G04*
G04 #@! TF.GenerationSoftware,Altium Limited,Altium Designer,22.11.1 (43)*
G04*
G04 Layer_Physical_Order=3*
G04 Layer_Color=128*
%FSLAX44Y44*%
%MOMM*%
G71*
G04*
G04 #@! TF.SameCoordinates,C851D113-A8C7-42F9-9C4B-FB2C255A0ABB*
G04*
G04*
G04 #@! TF.FilePolarity,Negative*
G04*
G01*
G75*
%ADD87C,1.0160*%
%ADD88C,1.8160*%
%ADD89C,2.0360*%
%ADD90O,2.1660X1.5160*%
%ADD91O,1.5660X1.8665*%
%ADD92C,2.0560*%
%ADD93C,1.9660*%
%ADD94C,1.4160*%
%ADD95C,1.2160*%
D87*
X109220Y749300D02*
X1109220D01*
Y1449300D01*
X109220D02*
X1109220D01*
X109220Y749300D02*
Y1449300D01*
D88*
X253860Y866800D02*
D03*
Y886800D02*
D03*
D89*
X519860Y1026200D02*
D03*
Y1000800D02*
D03*
Y975400D02*
D03*
X707885Y1274175D02*
D03*
X682485D02*
D03*
X657085D02*
D03*
X515860Y1337600D02*
D03*
Y1312200D02*
D03*
Y1286800D02*
D03*
X479860D02*
D03*
Y1312200D02*
D03*
Y1337600D02*
D03*
X481860Y975400D02*
D03*
Y1000800D02*
D03*
Y1026200D02*
D03*
D90*
X1018610Y1297300D02*
D03*
Y1367300D02*
D03*
D91*
X991610Y1357300D02*
D03*
Y1307300D02*
D03*
D92*
X284460Y1061900D02*
D03*
X309860D02*
D03*
X284460Y1087300D02*
D03*
X309860D02*
D03*
X284460Y1112700D02*
D03*
X309860D02*
D03*
X284460Y1138100D02*
D03*
X309860D02*
D03*
X284460Y1163500D02*
D03*
X309860D02*
D03*
X284460Y1188900D02*
D03*
X309860D02*
D03*
X284460Y1214300D02*
D03*
X309860D02*
D03*
X284460Y1239700D02*
D03*
X309860D02*
D03*
D93*
X351860Y1087300D02*
D03*
Y1138100D02*
D03*
Y1163500D02*
D03*
Y1239700D02*
D03*
Y1214300D02*
D03*
Y1188900D02*
D03*
Y1112700D02*
D03*
Y1061900D02*
D03*
D94*
X959860Y1310800D02*
D03*
X933860Y1214800D02*
D03*
X913860Y1258800D02*
D03*
X899860Y1237550D02*
D03*
X955760Y996800D02*
D03*
X838051Y1017080D02*
D03*
X767860Y1080800D02*
D03*
X763860Y1172800D02*
D03*
X840905Y996800D02*
D03*
X761860Y1142800D02*
D03*
X759860Y1124800D02*
D03*
X750932Y1004800D02*
D03*
X761860Y1108800D02*
D03*
X709860Y1158800D02*
D03*
X615360Y1023510D02*
D03*
X740493Y1098600D02*
D03*
X749860Y1186800D02*
D03*
X213860Y1074800D02*
D03*
X211860Y966800D02*
D03*
X429860Y951550D02*
D03*
X423371Y930800D02*
D03*
X591860Y1162800D02*
D03*
X562860Y1160800D02*
D03*
X557860Y1176800D02*
D03*
X409860Y1196800D02*
D03*
Y1232800D02*
D03*
Y1161050D02*
D03*
X591860Y1176800D02*
D03*
X657860Y1214800D02*
D03*
X736860Y1340800D02*
D03*
X588360Y1120800D02*
D03*
X409860Y1124800D02*
D03*
X969860Y1357900D02*
D03*
X839860Y1260800D02*
D03*
X726860Y1360600D02*
D03*
X839860Y1244800D02*
D03*
X941860Y1044800D02*
D03*
X935860Y1063800D02*
D03*
X903860Y1014800D02*
D03*
X879860Y1038800D02*
D03*
X941860Y1024800D02*
D03*
X569860Y1120800D02*
D03*
X211860Y1020800D02*
D03*
X215860Y1286800D02*
D03*
X213860Y1234800D02*
D03*
Y1174800D02*
D03*
Y1342800D02*
D03*
Y1134800D02*
D03*
X601860Y1186800D02*
D03*
X603360Y1120300D02*
D03*
X595201Y1150800D02*
D03*
X607860Y1142800D02*
D03*
X409985Y1087300D02*
D03*
X410110Y1056243D02*
D03*
D95*
X839360Y1301800D02*
D03*
X850360D02*
D03*
X861360D02*
D03*
X839360Y1312800D02*
D03*
X850360D02*
D03*
X861360D02*
D03*
X839360Y1323800D02*
D03*
X850360D02*
D03*
X861360D02*
D03*
M02*
