G04*
G04 #@! TF.GenerationSoftware,Altium Limited,Altium Designer,22.11.1 (43)*
G04*
G04 Layer_Physical_Order=4*
G04 Layer_Color=16711680*
%FSLAX44Y44*%
%MOMM*%
G71*
G04*
G04 #@! TF.SameCoordinates,C851D113-A8C7-42F9-9C4B-FB2C255A0ABB*
G04*
G04*
G04 #@! TF.FilePolarity,Positive*
G04*
G01*
G75*
%ADD11C,0.2540*%
%ADD18R,0.9500X0.9500*%
%ADD23R,0.9500X0.9500*%
%ADD25R,1.0000X0.9500*%
%ADD35R,1.4500X1.1500*%
%ADD76C,0.5080*%
%ADD78C,1.3000*%
%ADD79C,1.5500*%
%ADD80R,1.5500X1.5500*%
%ADD81O,0.9500X1.2500*%
%ADD82R,1.5500X1.5500*%
%ADD83C,1.5700*%
%ADD84O,2.2500X1.6000*%
%ADD85C,0.8000*%
%ADD86C,0.5000*%
%ADD96R,0.8000X0.9000*%
%ADD97R,3.3500X3.3500*%
%ADD98R,0.9500X0.3000*%
%ADD99R,0.3000X0.9500*%
G36*
G01X1026360Y1297300D02*
G02X1020860Y1292300I-5250J250D01*
G01X1016360D01*
G02X1010860Y1297300I-250J5250D01*
G01Y1308750D01*
G01X1026360D01*
G01Y1297300D01*
D02*
G37*
G36*
G01X1010860Y1367300D02*
G02X1016360Y1372300I5250J-250D01*
G01X1020860D01*
G02X1026360Y1367300I250J-5250D01*
G01Y1355850D01*
G01X1010860D01*
G01Y1367300D01*
D02*
G37*
D11*
X835360Y1274412D02*
Y1288800D01*
X805977Y1220800D02*
X855360D01*
X818324Y1257376D02*
X835360Y1274412D01*
X814436Y1257376D02*
X818324D01*
X806360Y1249300D02*
X814436Y1257376D01*
X800305Y1226472D02*
X805977Y1220800D01*
X800305Y1226472D02*
Y1242245D01*
X806360Y1248300D01*
Y1248800D01*
X817596Y1241531D02*
X818591D01*
X808865Y1232800D02*
X817596Y1241531D01*
X309860Y1138100D02*
X351860D01*
X294560Y1124800D02*
X307860Y1138100D01*
X233609Y1134800D02*
X243609Y1124800D01*
X294560D01*
X309860Y1112700D02*
X351860D01*
X297960Y1100800D02*
X309860Y1112700D01*
X239860Y1100800D02*
X297960D01*
X309860Y1087300D02*
X351860D01*
X306360D02*
X309860D01*
X293860Y1074800D02*
X306360Y1087300D01*
X265860Y1074800D02*
X293860D01*
X308410Y1061900D02*
X309860D01*
X351860D01*
X409860Y1124800D02*
X409985Y1124675D01*
X588360Y1109382D02*
Y1120800D01*
X583860Y1072800D02*
Y1104882D01*
X562860Y1113800D02*
X569860Y1120800D01*
X583860Y1104882D02*
X588360Y1109382D01*
X562860Y1073550D02*
Y1113800D01*
X547860Y1074050D02*
X548360Y1073550D01*
X547360D02*
X547860Y1074050D01*
X531860D02*
X532360Y1073550D01*
X601860Y1186800D02*
X602299Y1186361D01*
X548360Y1073550D02*
X562860D01*
X532360D02*
X547360D01*
X615360Y1023510D02*
Y1045300D01*
X604110Y1056800D02*
X607590Y1053320D01*
X603860Y1056800D02*
X604110D01*
X603360Y1073300D02*
X603860Y1072800D01*
X583860Y1056800D02*
X583860Y1056800D01*
X572110Y1056800D02*
X583860D01*
X562860Y1066050D02*
X572110Y1056800D01*
X562860Y1066050D02*
Y1073550D01*
X547360Y1057550D02*
X547860Y1058050D01*
X583860Y1056800D02*
X583860Y1056800D01*
X532360Y1057550D02*
X547360D01*
X583860Y1056800D02*
X603860D01*
X531860Y1058050D02*
X532360Y1057550D01*
X607590Y1053070D02*
Y1053320D01*
X591860Y1176800D02*
X645248D01*
X591860Y1163105D02*
X596835Y1168080D01*
X591860Y1162800D02*
Y1163105D01*
X607590Y1053070D02*
X615360Y1045300D01*
X309860Y1214300D02*
X351860D01*
X244604Y1202056D02*
X292604D01*
X302105Y1192555D01*
X302644D02*
X306299Y1188900D01*
X302105Y1192555D02*
X302644D01*
X306299Y1188900D02*
X309860D01*
X351860D01*
X256949Y1176800D02*
X296560D01*
X309860Y1163500D01*
X351860D01*
X307860Y1138100D02*
X309860D01*
X254949Y1174800D02*
X256949Y1176800D01*
X308788Y1240772D02*
Y1263872D01*
Y1240772D02*
X309860Y1239700D01*
X351860D01*
X272932Y1226800D02*
X297360D01*
X309860Y1214300D01*
X215842Y1230817D02*
X244604Y1202056D01*
X213860Y1174800D02*
X254949D01*
X213860Y1134800D02*
X233609D01*
X213860Y1074800D02*
X239860Y1100800D01*
X213310Y966800D02*
X308410Y1061900D01*
X211860Y1020800D02*
X265860Y1074800D01*
X215860Y1286800D02*
X216905Y1285755D01*
Y1282827D02*
Y1285755D01*
X213860Y1233323D02*
Y1234800D01*
Y1233323D02*
X215842Y1231340D01*
Y1230817D02*
Y1231340D01*
X211860Y966800D02*
X213310D01*
X959860Y1347900D02*
X969860Y1357900D01*
X959860Y1310800D02*
Y1347900D01*
X817725Y1363665D02*
Y1363665D01*
X809840Y1355780D02*
X817725Y1363665D01*
X809840Y1354280D02*
Y1355780D01*
X879860Y1038800D02*
Y1056800D01*
X763860Y1172800D02*
X879860Y1056800D01*
X761860Y1141322D02*
X878579Y1024604D01*
X758932Y1036800D02*
X762412Y1040280D01*
X834536Y1018124D02*
X837006D01*
X213860Y1342800D02*
X229860D01*
X308788Y1263872D01*
X216905Y1282827D02*
X272932Y1226800D01*
X772842Y1079818D02*
X834536Y1018124D01*
X770916Y1063744D02*
X838330Y996330D01*
X762412Y1055240D02*
X770916Y1063744D01*
X749860Y1084800D02*
X770916Y1063744D01*
X825610Y1371550D02*
X833610D01*
X778940Y1187720D02*
X941860Y1024800D01*
X761860Y1108800D02*
X867860Y1002800D01*
X817725Y1363665D02*
X825610Y1371550D01*
X762412Y1040280D02*
Y1055240D01*
X833610Y1355550D02*
X853860D01*
X833610Y1371550D02*
X853860D01*
X833610Y1355550D02*
X835360Y1353800D01*
X935860Y1063800D02*
Y1188800D01*
X867860Y1002800D02*
X949760D01*
X947860Y1050800D02*
Y1200800D01*
X878579Y1024604D02*
X894056D01*
X903860Y1014800D01*
X837006Y1018124D02*
X838051Y1017080D01*
X840434Y996330D02*
X840905Y996800D01*
X838330Y996330D02*
X840434D01*
X941860Y1044800D02*
X947860Y1050800D01*
X949760Y1002800D02*
X955760Y996800D01*
X738815Y1072600D02*
X740493Y1074278D01*
Y1098600D01*
X479860Y1286800D02*
X515860D01*
X602299Y1186361D02*
X642566D01*
X595201Y1150800D02*
X608671Y1164270D01*
X596835Y1168080D02*
X649140D01*
X607860Y1142800D02*
Y1150800D01*
X613860Y1156800D01*
X603860Y1072800D02*
X607299Y1076239D01*
X603360Y1073300D02*
Y1120300D01*
X604110Y1072800D02*
X606985Y1075675D01*
X855360Y1272040D02*
X865360Y1262040D01*
X890360Y1270300D02*
X899860Y1260800D01*
X874860Y1270300D02*
X890360D01*
X865360Y1250300D02*
Y1262040D01*
X843536Y1245845D02*
X850360Y1252668D01*
X840905Y1245845D02*
X843536D01*
X839860Y1244800D02*
X840905Y1245845D01*
X826360Y1327800D02*
Y1334800D01*
X807860Y1327800D02*
X826360D01*
X758391Y1317800D02*
X826360D01*
X747860Y1312800D02*
X826360D01*
X884360Y1233800D02*
Y1250300D01*
X883360Y1232800D02*
X884360Y1233800D01*
X855360Y1220800D02*
X867360Y1232800D01*
X824865Y1232800D02*
X847860D01*
X862630Y1247070D02*
X865360Y1249800D01*
X847860Y1232800D02*
X862130Y1247070D01*
X865360Y1249800D02*
Y1250300D01*
X839860Y1260845D02*
X845360Y1266345D01*
X839860Y1260800D02*
Y1260845D01*
X862130Y1247070D02*
X862630D01*
X913860Y1210800D02*
Y1258800D01*
X899860Y1237550D02*
Y1260800D01*
X913860Y1210800D02*
X935860Y1188800D01*
X933860Y1214800D02*
X947860Y1200800D01*
X850360Y1252668D02*
Y1288800D01*
X855360Y1272040D02*
Y1288800D01*
X845360Y1266345D02*
Y1288800D01*
X826360Y1334800D02*
X828360Y1336800D01*
X835360D01*
X825360Y1248300D02*
Y1248800D01*
X818591Y1241531D02*
X825360Y1248300D01*
X826360Y1322800D02*
Y1327800D01*
X805360Y1349800D02*
X809840Y1354280D01*
X803860Y1331800D02*
X807860Y1327800D01*
X802860Y1348800D02*
X803860Y1349800D01*
X782860Y1331800D02*
X803860D01*
X781860Y1348800D02*
X802860D01*
X781860Y1332800D02*
X782860Y1331800D01*
X736860Y1339330D02*
X758391Y1317800D01*
X803860Y1349800D02*
X805360D01*
X835360Y1336800D02*
Y1353800D01*
X750780Y1187720D02*
X778940D01*
X761860Y1141322D02*
Y1142800D01*
X758382Y1124800D02*
X759860D01*
X749860Y1116277D02*
X758382Y1124800D01*
X749860Y1084800D02*
Y1116277D01*
X767860Y1080800D02*
X768842Y1079818D01*
X772842D01*
X709860Y1178800D02*
Y1179050D01*
X707860Y1176800D02*
X709860Y1178800D01*
X707610Y1176800D02*
X709860Y1179050D01*
X707610Y1194800D02*
X707860Y1195050D01*
X707610Y1176800D02*
Y1194800D01*
X749860Y1186800D02*
X750780Y1187720D01*
X675860Y1194800D02*
X691610D01*
X673299Y1176800D02*
X691860D01*
X608671Y1164270D02*
X660769D01*
X708815Y1157755D02*
X709860Y1158800D01*
X703392Y1156800D02*
X704347Y1157755D01*
X708815D01*
X613860Y1156800D02*
X703392D01*
X707860Y1212800D02*
Y1239075D01*
Y1195050D02*
Y1212800D01*
X684538Y1228333D02*
X690098D01*
X677768Y1209320D02*
X688380D01*
X691860Y1212800D01*
X690098Y1228333D02*
X691610Y1229845D01*
X656773Y1273863D02*
X657085Y1274175D01*
X736860Y1339330D02*
Y1340800D01*
X723860Y1336800D02*
X747860Y1312800D01*
X723860Y1356382D02*
X726860Y1359382D01*
X723860Y1336800D02*
Y1356382D01*
X726860Y1359382D02*
Y1360600D01*
X645248Y1176800D02*
X677768Y1209320D01*
X657860Y1214800D02*
Y1230800D01*
X649860D02*
X657860D01*
X642566Y1186361D02*
X684538Y1228333D01*
X660769Y1164270D02*
X673299Y1176800D01*
X649140Y1168080D02*
X675860Y1194800D01*
X657860Y1230800D02*
X668905D01*
X668905Y1230800D01*
X656773Y1247410D02*
Y1273863D01*
Y1247410D02*
X657382Y1246800D01*
X649860D02*
X657382D01*
X700135Y1246800D02*
X707860Y1239075D01*
X668905Y1246800D02*
X700135D01*
X657382Y1246800D02*
X668905D01*
X668905Y1246800D01*
D18*
X691860Y1176800D02*
D03*
X707860D02*
D03*
X758932Y1036800D02*
D03*
X742932D02*
D03*
X691610Y1229845D02*
D03*
X707610D02*
D03*
X691860Y1212800D02*
D03*
X707860D02*
D03*
X691610Y1194800D02*
D03*
X707610D02*
D03*
X824865Y1232800D02*
D03*
X808865D02*
D03*
X867360Y1232800D02*
D03*
X883360D02*
D03*
D23*
X738815Y1056600D02*
D03*
Y1072600D02*
D03*
D25*
X603860Y1056800D02*
D03*
Y1072800D02*
D03*
X583860Y1056800D02*
D03*
Y1072800D02*
D03*
X531860Y1058050D02*
D03*
Y1074050D02*
D03*
X547860Y1058050D02*
D03*
Y1074050D02*
D03*
X668905Y1230800D02*
D03*
Y1246800D02*
D03*
X649860Y1230800D02*
D03*
Y1246800D02*
D03*
X833610Y1355550D02*
D03*
Y1371550D02*
D03*
X853860Y1355550D02*
D03*
Y1371550D02*
D03*
X781860Y1332800D02*
D03*
Y1348800D02*
D03*
D35*
X803860Y1331800D02*
D03*
Y1349800D02*
D03*
D76*
X409922Y1124613D02*
X409985Y1124675D01*
X409922Y1087363D02*
Y1124613D01*
Y1087363D02*
X410047Y1087237D01*
Y1056306D02*
Y1087237D01*
Y1056306D02*
X410110Y1056243D01*
X561860Y1160800D02*
X562860D01*
X499860Y1098800D02*
X561860Y1160800D01*
X429860Y1048800D02*
X557860Y1176800D01*
X409860Y1124800D02*
Y1161050D01*
Y1196800D02*
Y1232800D01*
Y1161050D02*
Y1196800D01*
X723860Y1186800D02*
X781860Y1244800D01*
X723860Y1031872D02*
X750932Y1004800D01*
X499860Y944598D02*
Y1098800D01*
X486062Y930800D02*
X499860Y944598D01*
X429860Y951550D02*
Y1048800D01*
X423371Y930800D02*
X486062D01*
X723860Y1031872D02*
Y1186800D01*
X814630Y1267570D02*
X815860Y1268800D01*
X804630Y1267570D02*
X814630D01*
X781860Y1244800D02*
X804630Y1267570D01*
X781860Y1244800D02*
Y1244800D01*
D78*
X253860Y866800D02*
D03*
Y886800D02*
D03*
D79*
X519860Y1026200D02*
D03*
Y1000800D02*
D03*
X707885Y1274175D02*
D03*
X682485D02*
D03*
X515860Y1337600D02*
D03*
Y1312200D02*
D03*
X479860Y1286800D02*
D03*
Y1312200D02*
D03*
X481860Y975400D02*
D03*
Y1000800D02*
D03*
D80*
X519860Y975400D02*
D03*
X515860Y1286800D02*
D03*
X479860Y1337600D02*
D03*
X481860Y1026200D02*
D03*
D81*
X991610Y1357300D02*
D03*
Y1307300D02*
D03*
D82*
X657085Y1274175D02*
D03*
D83*
X284460Y1061900D02*
D03*
X309860D02*
D03*
X284460Y1087300D02*
D03*
X309860D02*
D03*
X284460Y1112700D02*
D03*
X309860D02*
D03*
X284460Y1138100D02*
D03*
X309860D02*
D03*
X284460Y1163500D02*
D03*
X309860D02*
D03*
X284460Y1188900D02*
D03*
X309860D02*
D03*
X284460Y1214300D02*
D03*
X309860D02*
D03*
X284460Y1239700D02*
D03*
X309860D02*
D03*
D84*
X351860Y1087300D02*
D03*
Y1138100D02*
D03*
Y1163500D02*
D03*
Y1239700D02*
D03*
Y1214300D02*
D03*
Y1188900D02*
D03*
Y1112700D02*
D03*
Y1061900D02*
D03*
D85*
X959860Y1310800D02*
D03*
X933860Y1214800D02*
D03*
X913860Y1258800D02*
D03*
X899860Y1237550D02*
D03*
X955760Y996800D02*
D03*
X838051Y1017080D02*
D03*
X767860Y1080800D02*
D03*
X763860Y1172800D02*
D03*
X840905Y996800D02*
D03*
X761860Y1142800D02*
D03*
X759860Y1124800D02*
D03*
X750932Y1004800D02*
D03*
X761860Y1108800D02*
D03*
X709860Y1158800D02*
D03*
X615360Y1023510D02*
D03*
X740493Y1098600D02*
D03*
X749860Y1186800D02*
D03*
X213860Y1074800D02*
D03*
X211860Y966800D02*
D03*
X429860Y951550D02*
D03*
X423371Y930800D02*
D03*
X591860Y1162800D02*
D03*
X562860Y1160800D02*
D03*
X557860Y1176800D02*
D03*
X409860Y1196800D02*
D03*
Y1232800D02*
D03*
Y1161050D02*
D03*
X591860Y1176800D02*
D03*
X657860Y1214800D02*
D03*
X736860Y1340800D02*
D03*
X588360Y1120800D02*
D03*
X409860Y1124800D02*
D03*
X969860Y1357900D02*
D03*
X839860Y1260800D02*
D03*
X726860Y1360600D02*
D03*
X839860Y1244800D02*
D03*
X941860Y1044800D02*
D03*
X935860Y1063800D02*
D03*
X903860Y1014800D02*
D03*
X879860Y1038800D02*
D03*
X941860Y1024800D02*
D03*
X569860Y1120800D02*
D03*
X211860Y1020800D02*
D03*
X215860Y1286800D02*
D03*
X213860Y1234800D02*
D03*
Y1174800D02*
D03*
Y1342800D02*
D03*
Y1134800D02*
D03*
X601860Y1186800D02*
D03*
X603360Y1120300D02*
D03*
X595201Y1150800D02*
D03*
X607860Y1142800D02*
D03*
X409985Y1087300D02*
D03*
X410110Y1056243D02*
D03*
D86*
X839360Y1301800D02*
D03*
X850360D02*
D03*
X861360D02*
D03*
X839360Y1312800D02*
D03*
X850360D02*
D03*
X861360D02*
D03*
X839360Y1323800D02*
D03*
X850360D02*
D03*
X861360D02*
D03*
D96*
X884360Y1250300D02*
D03*
X865360D02*
D03*
X874860Y1270300D02*
D03*
X825360Y1248800D02*
D03*
X806360D02*
D03*
X815860Y1268800D02*
D03*
D97*
X850360Y1312800D02*
D03*
D98*
X826360Y1297800D02*
D03*
Y1302800D02*
D03*
Y1307800D02*
D03*
Y1312800D02*
D03*
Y1317800D02*
D03*
Y1322800D02*
D03*
Y1327800D02*
D03*
X874360D02*
D03*
Y1322800D02*
D03*
Y1317800D02*
D03*
Y1312800D02*
D03*
Y1307800D02*
D03*
Y1302800D02*
D03*
Y1297800D02*
D03*
D99*
X835360Y1336800D02*
D03*
X840360D02*
D03*
X845360D02*
D03*
X850360D02*
D03*
X855360D02*
D03*
X860360D02*
D03*
X865360D02*
D03*
Y1288800D02*
D03*
X860360D02*
D03*
X855360D02*
D03*
X850360D02*
D03*
X845360D02*
D03*
X840360D02*
D03*
X835360D02*
D03*
M02*
