G04*
G04 #@! TF.GenerationSoftware,Altium Limited,Altium Designer,22.11.1 (43)*
G04*
G04 Layer_Color=65535*
%FSLAX44Y44*%
%MOMM*%
G71*
G04*
G04 #@! TF.SameCoordinates,C851D113-A8C7-42F9-9C4B-FB2C255A0ABB*
G04*
G04*
G04 #@! TF.FilePolarity,Positive*
G04*
G01*
G75*
%ADD10C,0.2500*%
%ADD11C,0.2540*%
%ADD12C,0.2000*%
%ADD13C,0.1000*%
%ADD14C,0.1250*%
%ADD15C,0.1270*%
D10*
X247110Y838800D02*
G03*
X247110Y838800I-1250J0D01*
G01*
X264110Y1103749D02*
G03*
X264110Y1103749I-1250J0D01*
G01*
X450360Y1281250D02*
G03*
X450360Y1281250I-1250J0D01*
G01*
X264110Y1238800D02*
G03*
X264110Y1238800I-1250J0D01*
G01*
X444370Y920132D02*
G03*
X444370Y920132I-1250J0D01*
G01*
X450360Y961250D02*
G03*
X450360Y961250I-1250J0D01*
G01*
X685110Y1091300D02*
G03*
X685110Y1091300I-1250J0D01*
G01*
X896760Y1273200D02*
G03*
X896760Y1273200I-1250J0D01*
G01*
X521610Y1197300D02*
G03*
X521610Y1197300I-1250J0D01*
G01*
X969710Y1163550D02*
G03*
X969710Y1163550I-1250J0D01*
G01*
X979860Y1318300D02*
G03*
X979860Y1318300I-1250J0D01*
G01*
D11*
X756883Y880448D02*
G03*
X756883Y880448I-1270J0D01*
G01*
X973550Y881500D02*
G03*
X973550Y881500I-1270J0D01*
G01*
D12*
X326860Y1240200D02*
G03*
X326860Y1240200I-500J0D01*
G01*
D13*
X281860Y847300D02*
Y906300D01*
X236860Y847300D02*
X281860D01*
X236860D02*
Y906300D01*
X281860D01*
X881510Y1273650D02*
Y1378650D01*
X815510Y1273650D02*
Y1378650D01*
Y1273650D02*
X881510D01*
X815510Y1378650D02*
X881510D01*
X272410Y1046650D02*
X321910D01*
Y1254950D01*
X272410D02*
X321910D01*
X272410Y1046650D02*
Y1254950D01*
D14*
X771643Y924288D02*
Y936288D01*
X753643Y924788D02*
Y935788D01*
X260860Y1074018D02*
Y1089480D01*
X230860Y1074018D02*
X260860D01*
X230860D02*
Y1089480D01*
X260860D01*
X437860Y1283800D02*
Y1333800D01*
X405860Y1283800D02*
Y1333800D01*
Y1283800D02*
X437860D01*
X405860Y1333800D02*
X437860D01*
X260860Y1209069D02*
Y1224531D01*
X230860Y1209069D02*
X260860D01*
X230860D02*
Y1224531D01*
X260860D01*
X477860Y843800D02*
Y858800D01*
X461860Y844800D02*
Y857800D01*
X454370Y867582D02*
Y917582D01*
X486370Y867582D02*
Y917582D01*
X454370D02*
X486370D01*
X454370Y867582D02*
X486370D01*
X361360Y845800D02*
X376985D01*
X326735D02*
X342360D01*
X361360Y911800D02*
X384860D01*
X318860D02*
X342360D01*
X376985Y845800D02*
X384860Y853675D01*
X318860D02*
X326735Y845800D01*
X384860Y853675D02*
Y911800D01*
X318860Y853675D02*
Y911800D01*
X437860Y963800D02*
Y1013800D01*
X405860Y963800D02*
Y1013800D01*
Y963800D02*
X437860D01*
X405860Y1013800D02*
X437860D01*
X546360Y878482D02*
Y916482D01*
X589360Y878482D02*
Y916482D01*
X546360Y878482D02*
X551360Y873482D01*
X584360D02*
X589360Y878482D01*
X546360Y916482D02*
X558360D01*
X577360D02*
X589360D01*
X551360Y873482D02*
X558360D01*
X577360D02*
X584360D01*
X643143Y901788D02*
X650143D01*
X669143D02*
X676143D01*
X638143Y858788D02*
X650143D01*
X669143D02*
X681143D01*
X638143Y896788D02*
X643143Y901788D01*
X676143D02*
X681143Y896788D01*
X638143Y858788D02*
Y896788D01*
X681143Y858788D02*
Y896788D01*
X789643Y853788D02*
Y866788D01*
X805643Y852788D02*
Y867788D01*
X853360Y900300D02*
X860360D01*
X879360D02*
X886360D01*
X848360Y857300D02*
X860360D01*
X879360D02*
X891360D01*
X848360Y895300D02*
X853360Y900300D01*
X886360D02*
X891360Y895300D01*
X848360Y857300D02*
Y895300D01*
X891360Y857300D02*
Y895300D01*
X644610Y960800D02*
Y966800D01*
Y960800D02*
X705610Y960300D01*
Y966800D01*
X644610Y990800D02*
Y997300D01*
X705610D01*
Y990800D02*
Y997300D01*
X761443Y853788D02*
Y886788D01*
X696443Y853788D02*
X761443D01*
X696443D02*
Y886788D01*
X761443D01*
X1009860Y858300D02*
Y871300D01*
X1025860Y857300D02*
Y872300D01*
X660360Y1095800D02*
X663360D01*
X660360D02*
Y1098800D01*
X688360Y1134800D02*
X691360D01*
Y1131800D02*
Y1134800D01*
Y1095800D02*
Y1098800D01*
X688360Y1095800D02*
X691360D01*
X660360Y1131800D02*
Y1134800D01*
X663360D01*
X970560Y925300D02*
Y936300D01*
X988560Y924800D02*
Y936800D01*
X978110Y854840D02*
Y887840D01*
X913110Y854840D02*
X978110D01*
X913110D02*
Y887840D01*
X978110D01*
X697860Y1096800D02*
X709860D01*
X698360Y1114800D02*
X709360D01*
X718360Y1017300D02*
Y1032300D01*
X702360Y1018300D02*
Y1031300D01*
X959360Y1225300D02*
Y1240300D01*
X943360Y1226300D02*
Y1239300D01*
X959360Y1251300D02*
Y1266300D01*
X943360Y1252300D02*
Y1265300D01*
X957495Y1174550D02*
Y1186550D01*
X975495Y1175050D02*
Y1186050D01*
X823360Y1180800D02*
Y1186800D01*
Y1180800D02*
X884360Y1180300D01*
Y1186800D01*
X823360Y1210800D02*
Y1217300D01*
X884360D01*
Y1210800D02*
Y1217300D01*
X533360Y1110300D02*
Y1195300D01*
X618360Y1110300D02*
Y1195300D01*
X533360D02*
X618360D01*
X533360Y1110300D02*
X618360D01*
X1044110Y972050D02*
Y1153550D01*
X787610Y972050D02*
X795110D01*
X976710D02*
X1044110D01*
X787610Y1128150D02*
Y1153550D01*
Y972050D02*
Y997350D01*
Y1153550D02*
X795110D01*
X976710D02*
X1044110D01*
X507160Y960800D02*
X532560D01*
X507160Y1040800D02*
X532560D01*
X507160Y960800D02*
Y1040800D01*
X532560Y960800D02*
Y1040800D01*
X990110Y1295300D02*
Y1297800D01*
Y1295300D02*
X1008110D01*
X1029110D02*
X1033110D01*
Y1369300D01*
X1029110D02*
X1033110D01*
X990110Y1366800D02*
Y1369300D01*
X1008110D01*
X642485Y1261475D02*
Y1286875D01*
X722485Y1261475D02*
Y1286875D01*
X642485D02*
X722485D01*
X642485Y1261475D02*
X722485D01*
X503160Y1272200D02*
X528560D01*
X503160Y1352200D02*
X528560D01*
X503160Y1272200D02*
Y1352200D01*
X528560Y1272200D02*
Y1352200D01*
X467160D02*
X492560D01*
X467160Y1272200D02*
X492560D01*
Y1352200D01*
X467160Y1272200D02*
Y1352200D01*
X469160Y1040800D02*
X494560D01*
X469160Y960800D02*
X494560D01*
Y1040800D01*
X469160Y960800D02*
Y1040800D01*
D15*
X443860Y1118800D02*
Y1130800D01*
X444110Y1136800D02*
Y1148800D01*
X443860Y1064800D02*
Y1076800D01*
Y1082800D02*
Y1094800D01*
Y1100800D02*
Y1112800D01*
Y1046800D02*
Y1058800D01*
Y1262800D02*
Y1274800D01*
Y1190800D02*
Y1202800D01*
Y1226800D02*
Y1238800D01*
Y1208800D02*
Y1220800D01*
Y1172800D02*
Y1184800D01*
Y1244800D02*
Y1256800D01*
X444110Y1154800D02*
Y1166800D01*
X407860Y1342800D02*
Y1354800D01*
X441860Y1342800D02*
Y1354800D01*
X587860Y1058800D02*
X615860D01*
X516370Y894982D02*
X528370D01*
X470370Y926800D02*
Y938800D01*
X499860Y844800D02*
Y856800D01*
X443860Y1026800D02*
Y1038800D01*
X412370Y892982D02*
X424370D01*
X397860Y940800D02*
Y952800D01*
X601860Y830800D02*
Y842800D01*
X563299Y1061300D02*
Y1077300D01*
X562299Y1042800D02*
Y1054800D01*
X192612Y973595D02*
Y978898D01*
Y952898D02*
Y958018D01*
X166612Y952898D02*
Y978898D01*
X759860Y975300D02*
X771860D01*
X737860Y976300D02*
X749860D01*
X791643Y878288D02*
Y890288D01*
X714755Y926288D02*
Y938288D01*
X1011050Y882800D02*
Y894800D01*
X192612Y1135139D02*
Y1140442D01*
Y1114442D02*
Y1119562D01*
X166612Y1114442D02*
Y1140442D01*
X192612Y1188479D02*
Y1193782D01*
Y1167782D02*
Y1172902D01*
X166612Y1167782D02*
Y1193782D01*
X192612Y1028459D02*
Y1033762D01*
Y1007762D02*
Y1012882D01*
X166612Y1007762D02*
Y1033762D01*
X192612Y1082307D02*
Y1087610D01*
Y1061610D02*
Y1066730D01*
X166612Y1061610D02*
Y1087610D01*
X192612Y1296429D02*
Y1301732D01*
Y1275732D02*
Y1280852D01*
X166612Y1275732D02*
Y1301732D01*
X192612Y1242327D02*
Y1247630D01*
Y1221630D02*
Y1226750D01*
X166612Y1221630D02*
Y1247630D01*
X192612Y1350277D02*
Y1355580D01*
Y1329580D02*
Y1334700D01*
X166612Y1329580D02*
Y1355580D01*
X933860Y926800D02*
Y938800D01*
X717860Y1115300D02*
X729860D01*
X750932Y1018800D02*
Y1030800D01*
X983441Y1226800D02*
Y1238800D01*
X960745Y1200800D02*
Y1212800D01*
X983441Y1251550D02*
Y1263550D01*
X763860Y1336288D02*
Y1348288D01*
Y1354600D02*
Y1366600D01*
X933110Y1354600D02*
Y1366600D01*
Y1336500D02*
Y1348500D01*
X935360Y1308800D02*
X947360D01*
X746610Y1305100D02*
X758610D01*
X765860Y1286800D02*
X777860D01*
X915860Y1288800D02*
X927860D01*
X934860Y1173178D02*
Y1185178D01*
X769860Y1198800D02*
Y1210800D01*
X619860Y1269300D02*
X631860D01*
X681860Y1238800D02*
X693860D01*
X579360Y1301300D02*
X591360D01*
X576860Y1256005D02*
Y1268005D01*
X543360Y1301300D02*
X555360D01*
X561360D02*
X573360D01*
X598428Y1269300D02*
X610428D01*
X613860Y1238800D02*
Y1250800D01*
X539299Y1244800D02*
Y1256800D01*
Y1226800D02*
Y1238800D01*
X339160Y1255000D02*
X364560D01*
X339160Y1046600D02*
Y1255000D01*
Y1046600D02*
X364560D01*
Y1255000D01*
X750591Y947980D02*
Y954329D01*
Y947980D02*
X747870D01*
X746963Y948283D01*
X746661Y948585D01*
X746359Y949190D01*
Y949794D01*
X746661Y950399D01*
X746963Y950701D01*
X747870Y951003D01*
X750591D01*
X748475D02*
X746359Y954329D01*
X744333Y947980D02*
X741008D01*
X742822Y950399D01*
X741915D01*
X741310Y950701D01*
X741008Y951003D01*
X740705Y951910D01*
Y952515D01*
X741008Y953422D01*
X741612Y954027D01*
X742519Y954329D01*
X743426D01*
X744333Y954027D01*
X744635Y953724D01*
X744938Y953120D01*
X737470Y947980D02*
X738378Y948283D01*
X738982Y949190D01*
X739284Y950701D01*
Y951608D01*
X738982Y953120D01*
X738378Y954027D01*
X737470Y954329D01*
X736866D01*
X735959Y954027D01*
X735354Y953120D01*
X735052Y951608D01*
Y950701D01*
X735354Y949190D01*
X735959Y948283D01*
X736866Y947980D01*
X737470D01*
X906540Y1172447D02*
X912889D01*
X906540D02*
Y1175168D01*
X906843Y1176075D01*
X907145Y1176377D01*
X907750Y1176679D01*
X908354D01*
X908959Y1176377D01*
X909261Y1176075D01*
X909564Y1175168D01*
Y1172447D01*
Y1174563D02*
X912889Y1176679D01*
X908052Y1178402D02*
X907750D01*
X907145Y1178705D01*
X906843Y1179007D01*
X906540Y1179612D01*
Y1180821D01*
X906843Y1181426D01*
X907145Y1181728D01*
X907750Y1182030D01*
X908354D01*
X908959Y1181728D01*
X909866Y1181123D01*
X912889Y1178100D01*
Y1182333D01*
X906540Y1187986D02*
X912889Y1184963D01*
X906540Y1183754D02*
Y1187986D01*
X935924Y1251974D02*
Y1247440D01*
X936227Y1246533D01*
X936831Y1245928D01*
X937738Y1245626D01*
X938343D01*
X939250Y1245928D01*
X939854Y1246533D01*
X940157Y1247440D01*
Y1251974D01*
X942212Y1250463D02*
Y1250765D01*
X942515Y1251370D01*
X942817Y1251672D01*
X943422Y1251974D01*
X944631D01*
X945236Y1251672D01*
X945538Y1251370D01*
X945840Y1250765D01*
Y1250160D01*
X945538Y1249556D01*
X944933Y1248649D01*
X941910Y1245626D01*
X946143D01*
X951191Y1251974D02*
X948168D01*
X947866Y1249253D01*
X948168Y1249556D01*
X949075Y1249858D01*
X949982D01*
X950889Y1249556D01*
X951494Y1248951D01*
X951796Y1248044D01*
Y1247440D01*
X951494Y1246533D01*
X950889Y1245928D01*
X949982Y1245626D01*
X949075D01*
X948168Y1245928D01*
X947866Y1246230D01*
X947563Y1246835D01*
X1039704Y873309D02*
X1035169D01*
X1034262Y873007D01*
X1033657Y872402D01*
X1033355Y871495D01*
Y870890D01*
X1033657Y869984D01*
X1034262Y869379D01*
X1035169Y869077D01*
X1039704D01*
X1038192Y867021D02*
X1038494D01*
X1039099Y866719D01*
X1039401Y866416D01*
X1039704Y865811D01*
Y864602D01*
X1039401Y863998D01*
X1039099Y863695D01*
X1038494Y863393D01*
X1037890D01*
X1037285Y863695D01*
X1036378Y864300D01*
X1033355Y867323D01*
Y863091D01*
X1039704Y858647D02*
X1035471Y861670D01*
Y857135D01*
X1039704Y858647D02*
X1033355D01*
X819487Y868797D02*
X814952D01*
X814045Y868495D01*
X813440Y867890D01*
X813138Y866983D01*
Y866378D01*
X813440Y865471D01*
X814045Y864867D01*
X814952Y864565D01*
X819487D01*
X817975Y862509D02*
X818277D01*
X818882Y862206D01*
X819184Y861904D01*
X819487Y861299D01*
Y860090D01*
X819184Y859486D01*
X818882Y859183D01*
X818277Y858881D01*
X817673D01*
X817068Y859183D01*
X816161Y859788D01*
X813138Y862811D01*
Y858579D01*
X819487Y856553D02*
Y853228D01*
X817068Y855042D01*
Y854135D01*
X816766Y853530D01*
X816463Y853228D01*
X815557Y852925D01*
X814952D01*
X814045Y853228D01*
X813440Y853832D01*
X813138Y854739D01*
Y855646D01*
X813440Y856553D01*
X813743Y856855D01*
X814347Y857158D01*
X491704Y859809D02*
X487169D01*
X486262Y859507D01*
X485657Y858902D01*
X485355Y857995D01*
Y857390D01*
X485657Y856484D01*
X486262Y855879D01*
X487169Y855576D01*
X491704D01*
X490192Y853521D02*
X490494D01*
X491099Y853219D01*
X491401Y852916D01*
X491704Y852311D01*
Y851102D01*
X491401Y850498D01*
X491099Y850195D01*
X490494Y849893D01*
X489890D01*
X489285Y850195D01*
X488378Y850800D01*
X485355Y853823D01*
Y849591D01*
X490192Y847868D02*
X490494D01*
X491099Y847565D01*
X491401Y847263D01*
X491704Y846658D01*
Y845449D01*
X491401Y844844D01*
X491099Y844542D01*
X490494Y844240D01*
X489890D01*
X489285Y844542D01*
X488378Y845147D01*
X485355Y848170D01*
Y843937D01*
X940208Y921783D02*
X944743D01*
X945650Y922085D01*
X946255Y922690D01*
X946557Y923597D01*
Y924202D01*
X946255Y925108D01*
X945650Y925713D01*
X944743Y926015D01*
X940208D01*
X941720Y928071D02*
X941418D01*
X940813Y928373D01*
X940511Y928676D01*
X940208Y929280D01*
Y930490D01*
X940511Y931094D01*
X940813Y931397D01*
X941418Y931699D01*
X942022D01*
X942627Y931397D01*
X943534Y930792D01*
X946557Y927769D01*
Y932001D01*
X941418Y933422D02*
X941115Y934027D01*
X940208Y934934D01*
X946557D01*
X979773Y815842D02*
Y820377D01*
X979471Y821284D01*
X978866Y821889D01*
X977959Y822191D01*
X977355D01*
X976448Y821889D01*
X975843Y821284D01*
X975541Y820377D01*
Y815842D01*
X973485Y817354D02*
Y817052D01*
X973183Y816447D01*
X972880Y816145D01*
X972276Y815842D01*
X971066D01*
X970462Y816145D01*
X970159Y816447D01*
X969857Y817052D01*
Y817656D01*
X970159Y818261D01*
X970764Y819168D01*
X973787Y822191D01*
X969555D01*
X966320Y815842D02*
X967227Y816145D01*
X967831Y817052D01*
X968134Y818563D01*
Y819470D01*
X967831Y820982D01*
X967227Y821889D01*
X966320Y822191D01*
X965715D01*
X964808Y821889D01*
X964204Y820982D01*
X963901Y819470D01*
Y818563D01*
X964204Y817052D01*
X964808Y816145D01*
X965715Y815842D01*
X966320D01*
X723291Y921271D02*
X727826D01*
X728733Y921573D01*
X729338Y922178D01*
X729640Y923085D01*
Y923689D01*
X729338Y924596D01*
X728733Y925201D01*
X727826Y925503D01*
X723291D01*
X724501Y927257D02*
X724198Y927861D01*
X723291Y928768D01*
X729640D01*
X725408Y935843D02*
X726314Y935540D01*
X726919Y934936D01*
X727222Y934029D01*
Y933726D01*
X726919Y932819D01*
X726314Y932215D01*
X725408Y931912D01*
X725105D01*
X724198Y932215D01*
X723594Y932819D01*
X723291Y933726D01*
Y934029D01*
X723594Y934936D01*
X724198Y935540D01*
X725408Y935843D01*
X726919D01*
X728431Y935540D01*
X729338Y934936D01*
X729640Y934029D01*
Y933424D01*
X729338Y932517D01*
X728733Y932215D01*
X763106Y814790D02*
Y819325D01*
X762804Y820232D01*
X762199Y820837D01*
X761292Y821139D01*
X760687D01*
X759781Y820837D01*
X759176Y820232D01*
X758874Y819325D01*
Y814790D01*
X757120Y816000D02*
X756516Y815697D01*
X755609Y814790D01*
Y821139D01*
X750953Y814790D02*
X751860Y815093D01*
X752162Y815697D01*
Y816302D01*
X751860Y816907D01*
X751255Y817209D01*
X750046Y817511D01*
X749139Y817813D01*
X748534Y818418D01*
X748232Y819023D01*
Y819930D01*
X748534Y820534D01*
X748837Y820837D01*
X749744Y821139D01*
X750953D01*
X751860Y820837D01*
X752162Y820534D01*
X752465Y819930D01*
Y819023D01*
X752162Y818418D01*
X751558Y817813D01*
X750651Y817511D01*
X749441Y817209D01*
X748837Y816907D01*
X748534Y816302D01*
Y815697D01*
X748837Y815093D01*
X749744Y814790D01*
X750953D01*
X520280Y921411D02*
X515745D01*
X514838Y921109D01*
X514234Y920504D01*
X513931Y919597D01*
Y918993D01*
X514234Y918086D01*
X514838Y917481D01*
X515745Y917179D01*
X520280D01*
X519071Y915425D02*
X519373Y914821D01*
X520280Y913914D01*
X513931D01*
X520280Y906537D02*
X513931Y909560D01*
X520280Y910770D02*
Y906537D01*
X906803Y1257952D02*
Y1262487D01*
X906501Y1263394D01*
X905896Y1263999D01*
X904989Y1264301D01*
X904385D01*
X903477Y1263999D01*
X902873Y1263394D01*
X902571Y1262487D01*
Y1257952D01*
X900817Y1259162D02*
X900212Y1258859D01*
X899306Y1257952D01*
Y1264301D01*
X892534Y1258859D02*
X892836Y1258255D01*
X893743Y1257952D01*
X894348D01*
X895255Y1258255D01*
X895859Y1259162D01*
X896161Y1260673D01*
Y1262185D01*
X895859Y1263394D01*
X895255Y1263999D01*
X894348Y1264301D01*
X894045D01*
X893138Y1263999D01*
X892534Y1263394D01*
X892231Y1262487D01*
Y1262185D01*
X892534Y1261278D01*
X893138Y1260673D01*
X894045Y1260371D01*
X894348D01*
X895255Y1260673D01*
X895859Y1261278D01*
X896161Y1262185D01*
X732204Y1033309D02*
X727669D01*
X726762Y1033007D01*
X726157Y1032402D01*
X725855Y1031495D01*
Y1030891D01*
X726157Y1029984D01*
X726762Y1029379D01*
X727669Y1029077D01*
X732204D01*
X730994Y1027323D02*
X731297Y1026719D01*
X732204Y1025812D01*
X725855D01*
X732204Y1019040D02*
Y1022063D01*
X729483Y1022365D01*
X729785Y1022063D01*
X730087Y1021156D01*
Y1020249D01*
X729785Y1019342D01*
X729181Y1018737D01*
X728273Y1018435D01*
X727669D01*
X726762Y1018737D01*
X726157Y1019342D01*
X725855Y1020249D01*
Y1021156D01*
X726157Y1022063D01*
X726460Y1022365D01*
X727064Y1022667D01*
X1058734Y1164781D02*
X1054199D01*
X1053292Y1164479D01*
X1052687Y1163874D01*
X1052385Y1162967D01*
Y1162363D01*
X1052687Y1161456D01*
X1053292Y1160851D01*
X1054199Y1160549D01*
X1058734D01*
X1057524Y1158795D02*
X1057827Y1158191D01*
X1058734Y1157284D01*
X1052385D01*
X1058734Y1153535D02*
Y1150209D01*
X1056315Y1152023D01*
Y1151116D01*
X1056013Y1150512D01*
X1055711Y1150209D01*
X1054804Y1149907D01*
X1054199D01*
X1053292Y1150209D01*
X1052687Y1150814D01*
X1052385Y1151721D01*
Y1152628D01*
X1052687Y1153535D01*
X1052990Y1153837D01*
X1053594Y1154139D01*
X935923Y1245974D02*
Y1241440D01*
X936225Y1240533D01*
X936830Y1239928D01*
X937737Y1239626D01*
X938342D01*
X939249Y1239928D01*
X939853Y1240533D01*
X940155Y1241440D01*
Y1245974D01*
X941909Y1244765D02*
X942514Y1245067D01*
X943420Y1245974D01*
Y1239626D01*
X946867Y1244463D02*
Y1244765D01*
X947169Y1245370D01*
X947471Y1245672D01*
X948076Y1245974D01*
X949285D01*
X949890Y1245672D01*
X950192Y1245370D01*
X950495Y1244765D01*
Y1244160D01*
X950192Y1243556D01*
X949588Y1242649D01*
X946565Y1239626D01*
X950797D01*
X1005847Y1189567D02*
X1001312D01*
X1000405Y1189265D01*
X999800Y1188660D01*
X999498Y1187753D01*
Y1187149D01*
X999800Y1186242D01*
X1000405Y1185637D01*
X1001312Y1185335D01*
X1005847D01*
Y1182069D02*
X1005544Y1182977D01*
X1004940Y1183279D01*
X1004335D01*
X1003730Y1182977D01*
X1003428Y1182372D01*
X1003126Y1181163D01*
X1002823Y1180256D01*
X1002219Y1179651D01*
X1001614Y1179349D01*
X1000707D01*
X1000103Y1179651D01*
X999800Y1179953D01*
X999498Y1180860D01*
Y1182069D01*
X999800Y1182977D01*
X1000103Y1183279D01*
X1000707Y1183581D01*
X1001614D01*
X1002219Y1183279D01*
X1002823Y1182674D01*
X1003126Y1181767D01*
X1003428Y1180558D01*
X1003730Y1179953D01*
X1004335Y1179651D01*
X1004940D01*
X1005544Y1179953D01*
X1005847Y1180860D01*
Y1182069D01*
X264021Y1036665D02*
Y1041200D01*
X263719Y1042107D01*
X263114Y1042712D01*
X262207Y1043014D01*
X261602D01*
X260695Y1042712D01*
X260091Y1042107D01*
X259789Y1041200D01*
Y1036665D01*
X253803D02*
X256826Y1043014D01*
X258035Y1036665D02*
X253803D01*
X264021Y1171716D02*
Y1176251D01*
X263719Y1177158D01*
X263114Y1177763D01*
X262207Y1178065D01*
X261602D01*
X260695Y1177763D01*
X260091Y1177158D01*
X259789Y1176251D01*
Y1171716D01*
X254407Y1172623D02*
X254710Y1172019D01*
X255617Y1171716D01*
X256221D01*
X257128Y1172019D01*
X257733Y1172926D01*
X258035Y1174437D01*
Y1175949D01*
X257733Y1177158D01*
X257128Y1177763D01*
X256221Y1178065D01*
X255919D01*
X255012Y1177763D01*
X254407Y1177158D01*
X254105Y1176251D01*
Y1175949D01*
X254407Y1175042D01*
X255012Y1174437D01*
X255919Y1174135D01*
X256221D01*
X257128Y1174437D01*
X257733Y1175042D01*
X258035Y1175949D01*
X694843Y1145152D02*
Y1140617D01*
X695145Y1139710D01*
X695750Y1139105D01*
X696657Y1138803D01*
X697262D01*
X698168Y1139105D01*
X698773Y1139710D01*
X699075Y1140617D01*
Y1145152D01*
X704457D02*
X701433D01*
X701131Y1142431D01*
X701433Y1142733D01*
X702340Y1143035D01*
X703247D01*
X704154Y1142733D01*
X704759Y1142129D01*
X705061Y1141221D01*
Y1140617D01*
X704759Y1139710D01*
X704154Y1139105D01*
X703247Y1138803D01*
X702340D01*
X701433Y1139105D01*
X701131Y1139408D01*
X700829Y1140012D01*
X588440Y1095006D02*
X588138Y1095611D01*
X587533Y1096215D01*
X586928Y1096518D01*
X585719D01*
X585115Y1096215D01*
X584510Y1095611D01*
X584207Y1095006D01*
X583905Y1094099D01*
Y1092588D01*
X584207Y1091681D01*
X584510Y1091076D01*
X585115Y1090471D01*
X585719Y1090169D01*
X586928D01*
X587533Y1090471D01*
X588138Y1091076D01*
X588440Y1091681D01*
X590828Y1096518D02*
X594154D01*
X592340Y1094099D01*
X593247D01*
X593851Y1093797D01*
X594154Y1093494D01*
X594456Y1092588D01*
Y1091983D01*
X594154Y1091076D01*
X593549Y1090471D01*
X592642Y1090169D01*
X591735D01*
X590828Y1090471D01*
X590526Y1090774D01*
X590224Y1091378D01*
X599505Y1096518D02*
X596482D01*
X596179Y1093797D01*
X596482Y1094099D01*
X597388Y1094401D01*
X598296D01*
X599202Y1094099D01*
X599807Y1093494D01*
X600109Y1092588D01*
Y1091983D01*
X599807Y1091076D01*
X599202Y1090471D01*
X598296Y1090169D01*
X597388D01*
X596482Y1090471D01*
X596179Y1090774D01*
X595877Y1091378D01*
X371950Y959971D02*
X376485D01*
X377392Y960273D01*
X377997Y960878D01*
X378299Y961785D01*
Y962390D01*
X377997Y963296D01*
X377392Y963901D01*
X376485Y964203D01*
X371950D01*
Y966562D02*
Y969887D01*
X374369Y968073D01*
Y968980D01*
X374671Y969585D01*
X374973Y969887D01*
X375881Y970189D01*
X376485D01*
X377392Y969887D01*
X377997Y969282D01*
X378299Y968375D01*
Y967468D01*
X377997Y966562D01*
X377694Y966259D01*
X377090Y965957D01*
X371950Y1279971D02*
X376485D01*
X377392Y1280273D01*
X377997Y1280878D01*
X378299Y1281785D01*
Y1282390D01*
X377997Y1283296D01*
X377392Y1283901D01*
X376485Y1284203D01*
X371950D01*
X373462Y1286259D02*
X373160D01*
X372555Y1286561D01*
X372253Y1286864D01*
X371950Y1287468D01*
Y1288678D01*
X372253Y1289282D01*
X372555Y1289585D01*
X373160Y1289887D01*
X373764D01*
X374369Y1289585D01*
X375276Y1288980D01*
X378299Y1285957D01*
Y1290189D01*
X509947Y1232682D02*
Y1228147D01*
X510249Y1227240D01*
X510854Y1226635D01*
X511761Y1226333D01*
X512365D01*
X513273Y1226635D01*
X513877Y1227240D01*
X514179Y1228147D01*
Y1232682D01*
X515933Y1231472D02*
X516538Y1231775D01*
X517444Y1232682D01*
Y1226333D01*
X736305Y995777D02*
X736909Y996381D01*
X737212Y997288D01*
Y998497D01*
X736909Y999404D01*
X736305Y1000009D01*
X735700D01*
X735096Y999707D01*
X734793Y999404D01*
X734491Y998800D01*
X733886Y996986D01*
X733584Y996381D01*
X733282Y996079D01*
X732677Y995777D01*
X731770D01*
X731165Y996381D01*
X730863Y997288D01*
Y998497D01*
X731165Y999404D01*
X731770Y1000009D01*
X735700Y994053D02*
X736002D01*
X736607Y993751D01*
X736909Y993449D01*
X737212Y992844D01*
Y991635D01*
X736909Y991030D01*
X736607Y990728D01*
X736002Y990426D01*
X735398D01*
X734793Y990728D01*
X733886Y991332D01*
X730863Y994356D01*
Y990123D01*
X915055Y1215777D02*
X915659Y1216381D01*
X915962Y1217288D01*
Y1218497D01*
X915659Y1219404D01*
X915055Y1220009D01*
X914450D01*
X913845Y1219707D01*
X913543Y1219404D01*
X913241Y1218800D01*
X912636Y1216986D01*
X912334Y1216381D01*
X912032Y1216079D01*
X911427Y1215777D01*
X910520D01*
X909915Y1216381D01*
X909613Y1217288D01*
Y1218497D01*
X909915Y1219404D01*
X910520Y1220009D01*
X914752Y1214356D02*
X915055Y1213751D01*
X915962Y1212844D01*
X909613D01*
X973672Y1249974D02*
Y1243626D01*
Y1249974D02*
X976393D01*
X977299Y1249672D01*
X977602Y1249370D01*
X977904Y1248765D01*
Y1248160D01*
X977602Y1247556D01*
X977299Y1247253D01*
X976393Y1246951D01*
X973672D01*
X975788D02*
X977904Y1243626D01*
X982348Y1249974D02*
X979325Y1245742D01*
X983860D01*
X982348Y1249974D02*
Y1243626D01*
X985281Y1248463D02*
Y1248765D01*
X985583Y1249370D01*
X985885Y1249672D01*
X986490Y1249974D01*
X987699D01*
X988304Y1249672D01*
X988606Y1249370D01*
X988908Y1248765D01*
Y1248160D01*
X988606Y1247556D01*
X988001Y1246649D01*
X984978Y1243626D01*
X989211D01*
X572016Y828291D02*
X578365D01*
X572016D02*
Y831012D01*
X572319Y831919D01*
X572621Y832221D01*
X573226Y832523D01*
X573830D01*
X574435Y832221D01*
X574737Y831919D01*
X575039Y831012D01*
Y828291D01*
Y830407D02*
X578365Y832523D01*
X572016Y836967D02*
X576249Y833944D01*
Y838479D01*
X572016Y836967D02*
X578365D01*
X573226Y839598D02*
X572923Y840202D01*
X572016Y841109D01*
X578365D01*
X368016Y938291D02*
X374365D01*
X368016D02*
Y941012D01*
X368319Y941919D01*
X368621Y942221D01*
X369226Y942523D01*
X369830D01*
X370435Y942221D01*
X370737Y941919D01*
X371040Y941012D01*
Y938291D01*
Y940407D02*
X374365Y942523D01*
X368016Y946967D02*
X372249Y943944D01*
Y948479D01*
X368016Y946967D02*
X374365D01*
X368016Y951412D02*
X368319Y950505D01*
X369226Y949900D01*
X370737Y949598D01*
X371644D01*
X373156Y949900D01*
X374063Y950505D01*
X374365Y951412D01*
Y952016D01*
X374063Y952923D01*
X373156Y953528D01*
X371644Y953830D01*
X370737D01*
X369226Y953528D01*
X368319Y952923D01*
X368016Y952016D01*
Y951412D01*
X981206Y880291D02*
X987555D01*
X981206D02*
Y883012D01*
X981509Y883919D01*
X981811Y884221D01*
X982416Y884523D01*
X983020D01*
X983625Y884221D01*
X983927Y883919D01*
X984230Y883012D01*
Y880291D01*
Y882407D02*
X987555Y884523D01*
X981206Y886549D02*
Y889874D01*
X983625Y888061D01*
Y888968D01*
X983927Y889572D01*
X984230Y889874D01*
X985136Y890177D01*
X985741D01*
X986648Y889874D01*
X987253Y889270D01*
X987555Y888363D01*
Y887456D01*
X987253Y886549D01*
X986950Y886247D01*
X986346Y885944D01*
X983323Y895528D02*
X984230Y895225D01*
X984834Y894621D01*
X985136Y893714D01*
Y893411D01*
X984834Y892505D01*
X984230Y891900D01*
X983323Y891598D01*
X983020D01*
X982113Y891900D01*
X981509Y892505D01*
X981206Y893411D01*
Y893714D01*
X981509Y894621D01*
X982113Y895225D01*
X983323Y895528D01*
X984834D01*
X986346Y895225D01*
X987253Y894621D01*
X987555Y893714D01*
Y893109D01*
X987253Y892202D01*
X986648Y891900D01*
X761799Y875779D02*
X768148D01*
X761799D02*
Y878500D01*
X762102Y879407D01*
X762404Y879709D01*
X763009Y880011D01*
X763613D01*
X764218Y879709D01*
X764520Y879407D01*
X764823Y878500D01*
Y875779D01*
Y877895D02*
X768148Y880011D01*
X761799Y882037D02*
Y885362D01*
X764218Y883548D01*
Y884455D01*
X764520Y885060D01*
X764823Y885362D01*
X765730Y885665D01*
X766334D01*
X767241Y885362D01*
X767846Y884758D01*
X768148Y883851D01*
Y882944D01*
X767846Y882037D01*
X767543Y881734D01*
X766939Y881432D01*
X761799Y888597D02*
X762102Y887690D01*
X762706Y887388D01*
X763311D01*
X763916Y887690D01*
X764218Y888295D01*
X764520Y889504D01*
X764823Y890411D01*
X765427Y891016D01*
X766032Y891318D01*
X766939D01*
X767543Y891016D01*
X767846Y890713D01*
X768148Y889806D01*
Y888597D01*
X767846Y887690D01*
X767543Y887388D01*
X766939Y887085D01*
X766032D01*
X765427Y887388D01*
X764823Y887992D01*
X764520Y888899D01*
X764218Y890109D01*
X763916Y890713D01*
X763311Y891016D01*
X762706D01*
X762102Y890713D01*
X761799Y889806D01*
Y888597D01*
X529704Y859309D02*
X523355D01*
X529704D02*
Y856588D01*
X529401Y855681D01*
X529099Y855379D01*
X528494Y855077D01*
X527890D01*
X527285Y855379D01*
X526983Y855681D01*
X526680Y856588D01*
Y859309D01*
Y857193D02*
X523355Y855077D01*
X529704Y853051D02*
Y849726D01*
X527285Y851540D01*
Y850632D01*
X526983Y850028D01*
X526680Y849726D01*
X525774Y849423D01*
X525169D01*
X524262Y849726D01*
X523657Y850330D01*
X523355Y851237D01*
Y852144D01*
X523657Y853051D01*
X523960Y853353D01*
X524564Y853656D01*
X529704Y843770D02*
X523355Y846793D01*
X529704Y848002D02*
Y843770D01*
X500214Y941309D02*
X493866D01*
X500214D02*
Y938588D01*
X499912Y937681D01*
X499609Y937379D01*
X499005Y937076D01*
X498400D01*
X497796Y937379D01*
X497493Y937681D01*
X497191Y938588D01*
Y941309D01*
Y939193D02*
X493866Y937076D01*
X500214Y935051D02*
Y931725D01*
X497796Y933540D01*
Y932633D01*
X497493Y932028D01*
X497191Y931725D01*
X496284Y931423D01*
X495679D01*
X494772Y931725D01*
X494168Y932330D01*
X493866Y933237D01*
Y934144D01*
X494168Y935051D01*
X494470Y935353D01*
X495075Y935656D01*
X499307Y926375D02*
X499912Y926677D01*
X500214Y927584D01*
Y928188D01*
X499912Y929095D01*
X499005Y929700D01*
X497493Y930002D01*
X495982D01*
X494772Y929700D01*
X494168Y929095D01*
X493866Y928188D01*
Y927886D01*
X494168Y926979D01*
X494772Y926375D01*
X495679Y926072D01*
X495982D01*
X496889Y926375D01*
X497493Y926979D01*
X497796Y927886D01*
Y928188D01*
X497493Y929095D01*
X496889Y929700D01*
X495982Y930002D01*
X513861Y924826D02*
Y918477D01*
Y924826D02*
X516582D01*
X517489Y924524D01*
X517791Y924221D01*
X518094Y923617D01*
Y923012D01*
X517791Y922408D01*
X517489Y922105D01*
X516582Y921803D01*
X513861D01*
X515978D02*
X518094Y918477D01*
X520119Y924826D02*
X523445D01*
X521631Y922408D01*
X522538D01*
X523143Y922105D01*
X523445Y921803D01*
X523747Y920896D01*
Y920291D01*
X523445Y919384D01*
X522840Y918780D01*
X521933Y918477D01*
X521026D01*
X520119Y918780D01*
X519817Y919082D01*
X519515Y919687D01*
X528796Y924826D02*
X525773D01*
X525470Y922105D01*
X525773Y922408D01*
X526680Y922710D01*
X527587D01*
X528493Y922408D01*
X529098Y921803D01*
X529400Y920896D01*
Y920291D01*
X529098Y919384D01*
X528493Y918780D01*
X527587Y918477D01*
X526680D01*
X525773Y918780D01*
X525470Y919082D01*
X525168Y919687D01*
X763034Y1390721D02*
X756686D01*
X763034D02*
Y1388000D01*
X762732Y1387093D01*
X762430Y1386790D01*
X761825Y1386488D01*
X761220D01*
X760616Y1386790D01*
X760313Y1387093D01*
X760011Y1388000D01*
Y1390721D01*
Y1388604D02*
X756686Y1386488D01*
X763034Y1384463D02*
Y1381137D01*
X760616Y1382951D01*
Y1382044D01*
X760313Y1381440D01*
X760011Y1381137D01*
X759104Y1380835D01*
X758500D01*
X757593Y1381137D01*
X756988Y1381742D01*
X756686Y1382649D01*
Y1383556D01*
X756988Y1384463D01*
X757290Y1384765D01*
X757895Y1385067D01*
X763034Y1376391D02*
X758802Y1379414D01*
Y1374879D01*
X763034Y1376391D02*
X756686D01*
X962954Y1369109D02*
X956605D01*
X962954D02*
Y1366388D01*
X962651Y1365481D01*
X962349Y1365179D01*
X961744Y1364877D01*
X961140D01*
X960535Y1365179D01*
X960233Y1365481D01*
X959930Y1366388D01*
Y1369109D01*
Y1366993D02*
X956605Y1364877D01*
X962954Y1362851D02*
Y1359526D01*
X960535Y1361340D01*
Y1360432D01*
X960233Y1359828D01*
X959930Y1359526D01*
X959024Y1359223D01*
X958419D01*
X957512Y1359526D01*
X956907Y1360130D01*
X956605Y1361037D01*
Y1361944D01*
X956907Y1362851D01*
X957210Y1363153D01*
X957814Y1363456D01*
X962954Y1357198D02*
Y1353872D01*
X960535Y1355686D01*
Y1354779D01*
X960233Y1354175D01*
X959930Y1353872D01*
X959024Y1353570D01*
X958419D01*
X957512Y1353872D01*
X956907Y1354477D01*
X956605Y1355384D01*
Y1356291D01*
X956907Y1357198D01*
X957210Y1357500D01*
X957814Y1357802D01*
X793704Y1350797D02*
X787355D01*
X793704D02*
Y1348076D01*
X793401Y1347169D01*
X793099Y1346867D01*
X792494Y1346564D01*
X791890D01*
X791285Y1346867D01*
X790983Y1347169D01*
X790680Y1348076D01*
Y1350797D01*
Y1348681D02*
X787355Y1346564D01*
X793704Y1344539D02*
Y1341213D01*
X791285Y1343027D01*
Y1342120D01*
X790983Y1341516D01*
X790680Y1341213D01*
X789774Y1340911D01*
X789169D01*
X788262Y1341213D01*
X787657Y1341818D01*
X787355Y1342725D01*
Y1343632D01*
X787657Y1344539D01*
X787960Y1344841D01*
X788564Y1345143D01*
X792192Y1339188D02*
X792494D01*
X793099Y1338886D01*
X793401Y1338583D01*
X793704Y1337979D01*
Y1336769D01*
X793401Y1336165D01*
X793099Y1335862D01*
X792494Y1335560D01*
X791890D01*
X791285Y1335862D01*
X790378Y1336467D01*
X787355Y1339490D01*
Y1335258D01*
X962954Y1351009D02*
X956605D01*
X962954D02*
Y1348288D01*
X962651Y1347381D01*
X962349Y1347079D01*
X961745Y1346776D01*
X961140D01*
X960535Y1347079D01*
X960233Y1347381D01*
X959930Y1348288D01*
Y1351009D01*
Y1348893D02*
X956605Y1346776D01*
X962954Y1344751D02*
Y1341425D01*
X960535Y1343239D01*
Y1342332D01*
X960233Y1341728D01*
X959930Y1341425D01*
X959024Y1341123D01*
X958419D01*
X957512Y1341425D01*
X956907Y1342030D01*
X956605Y1342937D01*
Y1343844D01*
X956907Y1344751D01*
X957210Y1345053D01*
X957814Y1345356D01*
X961745Y1339702D02*
X962047Y1339098D01*
X962954Y1338191D01*
X956605D01*
X757351Y1005144D02*
Y998795D01*
Y1005144D02*
X760072D01*
X760979Y1004841D01*
X761281Y1004539D01*
X761583Y1003934D01*
Y1003330D01*
X761281Y1002725D01*
X760979Y1002423D01*
X760072Y1002121D01*
X757351D01*
X759467D02*
X761583Y998795D01*
X763307Y1003632D02*
Y1003934D01*
X763609Y1004539D01*
X763911Y1004841D01*
X764516Y1005144D01*
X765725D01*
X766330Y1004841D01*
X766632Y1004539D01*
X766934Y1003934D01*
Y1003330D01*
X766632Y1002725D01*
X766028Y1001818D01*
X763004Y998795D01*
X767237D01*
X772588Y1003027D02*
X772285Y1002121D01*
X771681Y1001516D01*
X770774Y1001214D01*
X770471D01*
X769565Y1001516D01*
X768960Y1002121D01*
X768658Y1003027D01*
Y1003330D01*
X768960Y1004237D01*
X769565Y1004841D01*
X770471Y1005144D01*
X770774D01*
X771681Y1004841D01*
X772285Y1004237D01*
X772588Y1003027D01*
Y1001516D01*
X772285Y1000004D01*
X771681Y999097D01*
X770774Y998795D01*
X770169D01*
X769262Y999097D01*
X768960Y999702D01*
X780776Y1033309D02*
X774427D01*
X780776D02*
Y1030588D01*
X780473Y1029681D01*
X780171Y1029379D01*
X779566Y1029077D01*
X778962D01*
X778357Y1029379D01*
X778055Y1029681D01*
X777753Y1030588D01*
Y1033309D01*
Y1031193D02*
X774427Y1029077D01*
X779264Y1027353D02*
X779566D01*
X780171Y1027051D01*
X780473Y1026749D01*
X780776Y1026144D01*
Y1024935D01*
X780473Y1024330D01*
X780171Y1024028D01*
X779566Y1023726D01*
X778962D01*
X778357Y1024028D01*
X777450Y1024632D01*
X774427Y1027656D01*
Y1023423D01*
X780776Y1020491D02*
X780473Y1021398D01*
X779869Y1021700D01*
X779264D01*
X778660Y1021398D01*
X778357Y1020793D01*
X778055Y1019584D01*
X777753Y1018677D01*
X777148Y1018072D01*
X776543Y1017770D01*
X775636D01*
X775032Y1018072D01*
X774729Y1018375D01*
X774427Y1019282D01*
Y1020491D01*
X774729Y1021398D01*
X775032Y1021700D01*
X775636Y1022002D01*
X776543D01*
X777148Y1021700D01*
X777753Y1021095D01*
X778055Y1020189D01*
X778357Y1018979D01*
X778660Y1018375D01*
X779264Y1018072D01*
X779869D01*
X780473Y1018375D01*
X780776Y1019282D01*
Y1020491D01*
X930901Y1198291D02*
X937250D01*
X930901D02*
Y1201012D01*
X931204Y1201919D01*
X931506Y1202221D01*
X932111Y1202523D01*
X932715D01*
X933320Y1202221D01*
X933622Y1201919D01*
X933924Y1201012D01*
Y1198291D01*
Y1200407D02*
X937250Y1202523D01*
X932413Y1204247D02*
X932111D01*
X931506Y1204549D01*
X931204Y1204851D01*
X930901Y1205456D01*
Y1206665D01*
X931204Y1207270D01*
X931506Y1207572D01*
X932111Y1207874D01*
X932715D01*
X933320Y1207572D01*
X934227Y1206967D01*
X937250Y1203944D01*
Y1208177D01*
X931808Y1213225D02*
X931204Y1212923D01*
X930901Y1212016D01*
Y1211412D01*
X931204Y1210505D01*
X932111Y1209900D01*
X933622Y1209598D01*
X935134D01*
X936343Y1209900D01*
X936948Y1210505D01*
X937250Y1211412D01*
Y1211714D01*
X936948Y1212621D01*
X936343Y1213225D01*
X935436Y1213528D01*
X935134D01*
X934227Y1213225D01*
X933622Y1212621D01*
X933320Y1211714D01*
Y1211412D01*
X933622Y1210505D01*
X934227Y1209900D01*
X935134Y1209598D01*
X989211Y1236376D02*
Y1242724D01*
Y1236376D02*
X986490D01*
X985583Y1236678D01*
X985281Y1236980D01*
X984978Y1237585D01*
Y1238189D01*
X985281Y1238794D01*
X985583Y1239097D01*
X986490Y1239399D01*
X989211D01*
X987094D02*
X984978Y1242724D01*
X983255Y1237887D02*
Y1237585D01*
X982953Y1236980D01*
X982650Y1236678D01*
X982046Y1236376D01*
X980836D01*
X980232Y1236678D01*
X979930Y1236980D01*
X979627Y1237585D01*
Y1238189D01*
X979930Y1238794D01*
X980534Y1239701D01*
X983557Y1242724D01*
X979325D01*
X977299Y1236376D02*
X973974D01*
X975788Y1238794D01*
X974881D01*
X974276Y1239097D01*
X973974Y1239399D01*
X973672Y1240306D01*
Y1240910D01*
X973974Y1241817D01*
X974578Y1242422D01*
X975486Y1242724D01*
X976392D01*
X977299Y1242422D01*
X977602Y1242120D01*
X977904Y1241515D01*
X473704Y1277309D02*
X467355D01*
X473704D02*
Y1274588D01*
X473401Y1273681D01*
X473099Y1273379D01*
X472494Y1273076D01*
X471890D01*
X471285Y1273379D01*
X470983Y1273681D01*
X470681Y1274588D01*
Y1277309D01*
Y1275193D02*
X467355Y1273076D01*
X472192Y1271353D02*
X472494D01*
X473099Y1271051D01*
X473401Y1270749D01*
X473704Y1270144D01*
Y1268935D01*
X473401Y1268330D01*
X473099Y1268028D01*
X472494Y1267726D01*
X471890D01*
X471285Y1268028D01*
X470378Y1268633D01*
X467355Y1271656D01*
Y1267423D01*
X472192Y1265700D02*
X472494D01*
X473099Y1265398D01*
X473401Y1265095D01*
X473704Y1264491D01*
Y1263281D01*
X473401Y1262677D01*
X473099Y1262375D01*
X472494Y1262072D01*
X471890D01*
X471285Y1262375D01*
X470378Y1262979D01*
X467355Y1266002D01*
Y1261770D01*
X433984Y1023209D02*
X427636D01*
X433984D02*
Y1020488D01*
X433682Y1019581D01*
X433380Y1019279D01*
X432775Y1018977D01*
X432170D01*
X431566Y1019279D01*
X431264Y1019581D01*
X430961Y1020488D01*
Y1023209D01*
Y1021093D02*
X427636Y1018977D01*
X432473Y1017253D02*
X432775D01*
X433380Y1016951D01*
X433682Y1016649D01*
X433984Y1016044D01*
Y1014835D01*
X433682Y1014230D01*
X433380Y1013928D01*
X432775Y1013626D01*
X432170D01*
X431566Y1013928D01*
X430659Y1014533D01*
X427636Y1017556D01*
Y1013323D01*
X432775Y1011902D02*
X433077Y1011298D01*
X433984Y1010391D01*
X427636D01*
X473704Y1079309D02*
X467355D01*
X473704D02*
Y1076588D01*
X473401Y1075681D01*
X473099Y1075379D01*
X472494Y1075077D01*
X471890D01*
X471285Y1075379D01*
X470983Y1075681D01*
X470681Y1076588D01*
Y1079309D01*
Y1077193D02*
X467355Y1075077D01*
X472192Y1073353D02*
X472494D01*
X473099Y1073051D01*
X473401Y1072749D01*
X473704Y1072144D01*
Y1070935D01*
X473401Y1070330D01*
X473099Y1070028D01*
X472494Y1069725D01*
X471890D01*
X471285Y1070028D01*
X470378Y1070632D01*
X467355Y1073656D01*
Y1069423D01*
X473704Y1066188D02*
X473401Y1067095D01*
X472494Y1067700D01*
X470983Y1068002D01*
X470076D01*
X468564Y1067700D01*
X467657Y1067095D01*
X467355Y1066188D01*
Y1065584D01*
X467657Y1064677D01*
X468564Y1064072D01*
X470076Y1063770D01*
X470983D01*
X472494Y1064072D01*
X473401Y1064677D01*
X473704Y1065584D01*
Y1066188D01*
X473704Y1115309D02*
X467355D01*
X473704D02*
Y1112588D01*
X473401Y1111681D01*
X473099Y1111379D01*
X472494Y1111077D01*
X471890D01*
X471285Y1111379D01*
X470983Y1111681D01*
X470681Y1112588D01*
Y1115309D01*
Y1113193D02*
X467355Y1111077D01*
X472494Y1109656D02*
X472797Y1109051D01*
X473704Y1108144D01*
X467355D01*
X471587Y1101070D02*
X470681Y1101372D01*
X470076Y1101977D01*
X469774Y1102884D01*
Y1103186D01*
X470076Y1104093D01*
X470681Y1104698D01*
X471587Y1105000D01*
X471890D01*
X472797Y1104698D01*
X473401Y1104093D01*
X473704Y1103186D01*
Y1102884D01*
X473401Y1101977D01*
X472797Y1101372D01*
X471587Y1101070D01*
X470076D01*
X468564Y1101372D01*
X467657Y1101977D01*
X467355Y1102884D01*
Y1103488D01*
X467657Y1104395D01*
X468262Y1104698D01*
X473954Y1151309D02*
X467605D01*
X473954D02*
Y1148588D01*
X473651Y1147681D01*
X473349Y1147379D01*
X472744Y1147076D01*
X472140D01*
X471535Y1147379D01*
X471233Y1147681D01*
X470930Y1148588D01*
Y1151309D01*
Y1149193D02*
X467605Y1147076D01*
X472744Y1145656D02*
X473047Y1145051D01*
X473954Y1144144D01*
X467605D01*
X473954Y1139488D02*
X473651Y1140395D01*
X473047Y1140698D01*
X472442D01*
X471838Y1140395D01*
X471535Y1139791D01*
X471233Y1138581D01*
X470930Y1137674D01*
X470326Y1137070D01*
X469721Y1136768D01*
X468814D01*
X468210Y1137070D01*
X467907Y1137372D01*
X467605Y1138279D01*
Y1139488D01*
X467907Y1140395D01*
X468210Y1140698D01*
X468814Y1141000D01*
X469721D01*
X470326Y1140698D01*
X470930Y1140093D01*
X471233Y1139186D01*
X471535Y1137977D01*
X471838Y1137372D01*
X472442Y1137070D01*
X473047D01*
X473651Y1137372D01*
X473954Y1138279D01*
Y1139488D01*
X473704Y1187309D02*
X467355D01*
X473704D02*
Y1184588D01*
X473401Y1183681D01*
X473099Y1183379D01*
X472494Y1183076D01*
X471890D01*
X471285Y1183379D01*
X470983Y1183681D01*
X470681Y1184588D01*
Y1187309D01*
Y1185193D02*
X467355Y1183076D01*
X472494Y1181656D02*
X472797Y1181051D01*
X473704Y1180144D01*
X467355D01*
X473704Y1172767D02*
X467355Y1175791D01*
X473704Y1177000D02*
Y1172767D01*
X473704Y1223309D02*
X467355D01*
X473704D02*
Y1220588D01*
X473401Y1219681D01*
X473099Y1219379D01*
X472494Y1219077D01*
X471890D01*
X471285Y1219379D01*
X470983Y1219681D01*
X470681Y1220588D01*
Y1223309D01*
Y1221193D02*
X467355Y1219077D01*
X472494Y1217656D02*
X472797Y1217051D01*
X473704Y1216144D01*
X467355D01*
X472797Y1209372D02*
X473401Y1209675D01*
X473704Y1210581D01*
Y1211186D01*
X473401Y1212093D01*
X472494Y1212698D01*
X470983Y1213000D01*
X469471D01*
X468262Y1212698D01*
X467657Y1212093D01*
X467355Y1211186D01*
Y1210884D01*
X467657Y1209977D01*
X468262Y1209372D01*
X469169Y1209070D01*
X469471D01*
X470378Y1209372D01*
X470983Y1209977D01*
X471285Y1210884D01*
Y1211186D01*
X470983Y1212093D01*
X470378Y1212698D01*
X469471Y1213000D01*
X473704Y1259309D02*
X467355D01*
X473704D02*
Y1256588D01*
X473401Y1255681D01*
X473099Y1255379D01*
X472494Y1255077D01*
X471890D01*
X471285Y1255379D01*
X470983Y1255681D01*
X470681Y1256588D01*
Y1259309D01*
Y1257193D02*
X467355Y1255077D01*
X472494Y1253656D02*
X472797Y1253051D01*
X473704Y1252144D01*
X467355D01*
X473704Y1245372D02*
Y1248395D01*
X470983Y1248698D01*
X471285Y1248395D01*
X471587Y1247488D01*
Y1246581D01*
X471285Y1245675D01*
X470681Y1245070D01*
X469774Y1244768D01*
X469169D01*
X468262Y1245070D01*
X467657Y1245675D01*
X467355Y1246581D01*
Y1247488D01*
X467657Y1248395D01*
X467960Y1248698D01*
X468564Y1249000D01*
X601938Y1313474D02*
Y1307126D01*
Y1313474D02*
X604659D01*
X605566Y1313172D01*
X605868Y1312870D01*
X606171Y1312265D01*
Y1311660D01*
X605868Y1311056D01*
X605566Y1310753D01*
X604659Y1310451D01*
X601938D01*
X604054D02*
X606171Y1307126D01*
X607591Y1312265D02*
X608196Y1312567D01*
X609103Y1313474D01*
Y1307126D01*
X615270Y1313474D02*
X612247Y1309242D01*
X616782D01*
X615270Y1313474D02*
Y1307126D01*
X552631Y1286126D02*
Y1292474D01*
Y1286126D02*
X549910D01*
X549003Y1286428D01*
X548700Y1286730D01*
X548398Y1287335D01*
Y1287939D01*
X548700Y1288544D01*
X549003Y1288846D01*
X549910Y1289149D01*
X552631D01*
X550514D02*
X548398Y1292474D01*
X546977Y1287335D02*
X546373Y1287032D01*
X545466Y1286126D01*
Y1292474D01*
X541717Y1286126D02*
X538392D01*
X540205Y1288544D01*
X539299D01*
X538694Y1288846D01*
X538392Y1289149D01*
X538089Y1290056D01*
Y1290660D01*
X538392Y1291567D01*
X538996Y1292172D01*
X539903Y1292474D01*
X540810D01*
X541717Y1292172D01*
X542019Y1291870D01*
X542322Y1291265D01*
X540851Y1331144D02*
Y1324795D01*
Y1331144D02*
X543572D01*
X544479Y1330841D01*
X544781Y1330539D01*
X545083Y1329934D01*
Y1329330D01*
X544781Y1328725D01*
X544479Y1328423D01*
X543572Y1328120D01*
X540851D01*
X542967D02*
X545083Y1324795D01*
X546504Y1329934D02*
X547109Y1330237D01*
X548016Y1331144D01*
Y1324795D01*
X551462Y1329632D02*
Y1329934D01*
X551765Y1330539D01*
X552067Y1330841D01*
X552672Y1331144D01*
X553881D01*
X554486Y1330841D01*
X554788Y1330539D01*
X555090Y1329934D01*
Y1329330D01*
X554788Y1328725D01*
X554183Y1327818D01*
X551160Y1324795D01*
X555392D01*
X696369Y1208956D02*
Y1215305D01*
Y1208956D02*
X693648D01*
X692741Y1209259D01*
X692439Y1209561D01*
X692137Y1210166D01*
Y1210770D01*
X692439Y1211375D01*
X692741Y1211677D01*
X693648Y1211980D01*
X696369D01*
X694253D02*
X692137Y1215305D01*
X690716Y1210166D02*
X690111Y1209863D01*
X689204Y1208956D01*
Y1215305D01*
X686060Y1210166D02*
X685455Y1209863D01*
X684548Y1208956D01*
Y1215305D01*
X509456Y1242291D02*
X515804D01*
X509456D02*
Y1245012D01*
X509758Y1245919D01*
X510060Y1246221D01*
X510665Y1246523D01*
X511270D01*
X511874Y1246221D01*
X512177Y1245919D01*
X512479Y1245012D01*
Y1242291D01*
Y1244407D02*
X515804Y1246523D01*
X510665Y1247944D02*
X510363Y1248549D01*
X509456Y1249456D01*
X515804D01*
X509456Y1254414D02*
X509758Y1253507D01*
X510665Y1252902D01*
X512177Y1252600D01*
X513083D01*
X514595Y1252902D01*
X515502Y1253507D01*
X515804Y1254414D01*
Y1255018D01*
X515502Y1255925D01*
X514595Y1256530D01*
X513083Y1256832D01*
X512177D01*
X510665Y1256530D01*
X509758Y1255925D01*
X509456Y1255018D01*
Y1254414D01*
X799704Y1213309D02*
X793355D01*
X799704D02*
Y1210588D01*
X799401Y1209681D01*
X799099Y1209379D01*
X798494Y1209077D01*
X797890D01*
X797285Y1209379D01*
X796983Y1209681D01*
X796681Y1210588D01*
Y1213309D01*
Y1211193D02*
X793355Y1209077D01*
X799704Y1206144D02*
X799401Y1207051D01*
X798797Y1207353D01*
X798192D01*
X797588Y1207051D01*
X797285Y1206446D01*
X796983Y1205237D01*
X796681Y1204330D01*
X796076Y1203726D01*
X795471Y1203423D01*
X794564D01*
X793960Y1203726D01*
X793657Y1204028D01*
X793355Y1204935D01*
Y1206144D01*
X793657Y1207051D01*
X793960Y1207353D01*
X794564Y1207656D01*
X795471D01*
X796076Y1207353D01*
X796681Y1206749D01*
X796983Y1205842D01*
X797285Y1204632D01*
X797588Y1204028D01*
X798192Y1203726D01*
X798797D01*
X799401Y1204028D01*
X799704Y1204935D01*
Y1206144D01*
X446853Y1329626D02*
Y1335974D01*
Y1329626D02*
X444132D01*
X443225Y1329928D01*
X442923Y1330230D01*
X442621Y1330835D01*
Y1331440D01*
X442923Y1332044D01*
X443225Y1332346D01*
X444132Y1332649D01*
X446853D01*
X444737D02*
X442621Y1335974D01*
X440595Y1329626D02*
X437270D01*
X439083Y1332044D01*
X438176D01*
X437572Y1332346D01*
X437270Y1332649D01*
X436967Y1333556D01*
Y1334160D01*
X437270Y1335067D01*
X437874Y1335672D01*
X438781Y1335974D01*
X439688D01*
X440595Y1335672D01*
X440897Y1335370D01*
X441200Y1334765D01*
X409442Y1329626D02*
Y1335974D01*
Y1329626D02*
X406722D01*
X405815Y1329928D01*
X405512Y1330230D01*
X405210Y1330835D01*
Y1331440D01*
X405512Y1332044D01*
X405815Y1332346D01*
X406722Y1332649D01*
X409442D01*
X407326D02*
X405210Y1335974D01*
X403789Y1330835D02*
X403185Y1330533D01*
X402278Y1329626D01*
Y1335974D01*
X662815Y1148192D02*
X662210Y1147889D01*
X661606Y1147285D01*
X661303Y1146680D01*
X661001Y1145773D01*
Y1144261D01*
X661303Y1143355D01*
X661606Y1142750D01*
X662210Y1142145D01*
X662815Y1141843D01*
X664024D01*
X664629Y1142145D01*
X665233Y1142750D01*
X665536Y1143355D01*
X665838Y1144261D01*
Y1145773D01*
X665536Y1146680D01*
X665233Y1147285D01*
X664629Y1147889D01*
X664024Y1148192D01*
X662815D01*
X671552Y1147285D02*
X670947Y1147889D01*
X670040Y1148192D01*
X668831D01*
X667924Y1147889D01*
X667319Y1147285D01*
Y1146680D01*
X667622Y1146075D01*
X667924Y1145773D01*
X668529Y1145471D01*
X670343Y1144866D01*
X670947Y1144564D01*
X671249Y1144261D01*
X671552Y1143657D01*
Y1142750D01*
X670947Y1142145D01*
X670040Y1141843D01*
X668831D01*
X667924Y1142145D01*
X667319Y1142750D01*
X677507Y1146680D02*
X677205Y1147285D01*
X676600Y1147889D01*
X675996Y1148192D01*
X674787D01*
X674182Y1147889D01*
X673577Y1147285D01*
X673275Y1146680D01*
X672973Y1145773D01*
Y1144261D01*
X673275Y1143355D01*
X673577Y1142750D01*
X674182Y1142145D01*
X674787Y1141843D01*
X675996D01*
X676600Y1142145D01*
X677205Y1142750D01*
X677507Y1143355D01*
X679291Y1146982D02*
X679896Y1147285D01*
X680803Y1148192D01*
Y1141843D01*
X215806Y985100D02*
X210969D01*
X210062Y985402D01*
X209759Y985704D01*
X209457Y986309D01*
Y986914D01*
X209759Y987518D01*
X210062Y987821D01*
X210969Y988123D01*
X211573D01*
X214596Y983467D02*
X214899Y982863D01*
X215806Y981956D01*
X209457D01*
X214899Y975184D02*
X215503Y975486D01*
X215806Y976393D01*
Y976998D01*
X215503Y977905D01*
X214596Y978509D01*
X213085Y978812D01*
X211573D01*
X210364Y978509D01*
X209759Y977905D01*
X209457Y976998D01*
Y976695D01*
X209759Y975788D01*
X210364Y975184D01*
X211271Y974882D01*
X211573D01*
X212480Y975184D01*
X213085Y975788D01*
X213387Y976695D01*
Y976998D01*
X213085Y977905D01*
X212480Y978509D01*
X211573Y978812D01*
X215806Y1039964D02*
X210969D01*
X210062Y1040266D01*
X209759Y1040568D01*
X209457Y1041173D01*
Y1041778D01*
X209759Y1042382D01*
X210062Y1042685D01*
X210969Y1042987D01*
X211573D01*
X214596Y1038331D02*
X214899Y1037727D01*
X215806Y1036820D01*
X209457D01*
X215806Y1030048D02*
Y1033071D01*
X213085Y1033373D01*
X213387Y1033071D01*
X213689Y1032164D01*
Y1031257D01*
X213387Y1030350D01*
X212782Y1029745D01*
X211876Y1029443D01*
X211271D01*
X210364Y1029745D01*
X209759Y1030350D01*
X209457Y1031257D01*
Y1032164D01*
X209759Y1033071D01*
X210062Y1033373D01*
X210666Y1033676D01*
X215806Y1093812D02*
X210969D01*
X210062Y1094114D01*
X209759Y1094416D01*
X209457Y1095021D01*
Y1095626D01*
X209759Y1096230D01*
X210062Y1096533D01*
X210969Y1096835D01*
X211573D01*
X214596Y1092179D02*
X214899Y1091575D01*
X215806Y1090668D01*
X209457D01*
X215806Y1084501D02*
X211573Y1087524D01*
Y1082989D01*
X215806Y1084501D02*
X209457D01*
X215806Y1146644D02*
X210969D01*
X210062Y1146946D01*
X209759Y1147248D01*
X209457Y1147853D01*
Y1148458D01*
X209759Y1149062D01*
X210062Y1149365D01*
X210969Y1149667D01*
X211573D01*
X214596Y1145011D02*
X214899Y1144407D01*
X215806Y1143500D01*
X209457D01*
X215806Y1139751D02*
Y1136425D01*
X213387Y1138239D01*
Y1137333D01*
X213085Y1136728D01*
X212782Y1136425D01*
X211876Y1136123D01*
X211271D01*
X210364Y1136425D01*
X209759Y1137030D01*
X209457Y1137937D01*
Y1138844D01*
X209759Y1139751D01*
X210062Y1140053D01*
X210666Y1140356D01*
X215806Y1199984D02*
X210969D01*
X210062Y1200286D01*
X209759Y1200589D01*
X209457Y1201193D01*
Y1201798D01*
X209759Y1202402D01*
X210062Y1202705D01*
X210969Y1203007D01*
X211573D01*
X214596Y1198351D02*
X214899Y1197747D01*
X215806Y1196840D01*
X209457D01*
X214294Y1193393D02*
X214596D01*
X215201Y1193091D01*
X215503Y1192789D01*
X215806Y1192184D01*
Y1190975D01*
X215503Y1190370D01*
X215201Y1190068D01*
X214596Y1189765D01*
X213992D01*
X213387Y1190068D01*
X212480Y1190673D01*
X209457Y1193696D01*
Y1189463D01*
X273386Y1271830D02*
Y1266992D01*
X273084Y1266086D01*
X272782Y1265783D01*
X272177Y1265481D01*
X271572D01*
X270968Y1265783D01*
X270665Y1266086D01*
X270363Y1266992D01*
Y1267597D01*
X275019Y1270620D02*
X275623Y1270923D01*
X276530Y1271830D01*
Y1265481D01*
X279674Y1270620D02*
X280279Y1270923D01*
X281186Y1271830D01*
Y1265481D01*
X215806Y1253832D02*
X210969D01*
X210062Y1254134D01*
X209759Y1254436D01*
X209457Y1255041D01*
Y1255646D01*
X209759Y1256250D01*
X210062Y1256553D01*
X210969Y1256855D01*
X211573D01*
X214596Y1252199D02*
X214899Y1251595D01*
X215806Y1250688D01*
X209457D01*
X215806Y1245730D02*
X215503Y1246637D01*
X214596Y1247241D01*
X213085Y1247544D01*
X212178D01*
X210666Y1247241D01*
X209759Y1246637D01*
X209457Y1245730D01*
Y1245125D01*
X209759Y1244218D01*
X210666Y1243614D01*
X212178Y1243311D01*
X213085D01*
X214596Y1243614D01*
X215503Y1244218D01*
X215806Y1245125D01*
Y1245730D01*
X365982Y1028500D02*
Y1033337D01*
X366284Y1034244D01*
X366586Y1034547D01*
X367191Y1034849D01*
X367796D01*
X368400Y1034547D01*
X368703Y1034244D01*
X369005Y1033337D01*
Y1032733D01*
X360419Y1030617D02*
X360722Y1031524D01*
X361326Y1032128D01*
X362233Y1032430D01*
X362535D01*
X363442Y1032128D01*
X364047Y1031524D01*
X364349Y1030617D01*
Y1030314D01*
X364047Y1029407D01*
X363442Y1028803D01*
X362535Y1028500D01*
X362233D01*
X361326Y1028803D01*
X360722Y1029407D01*
X360419Y1030617D01*
Y1032128D01*
X360722Y1033640D01*
X361326Y1034547D01*
X362233Y1034849D01*
X362838D01*
X363745Y1034547D01*
X364047Y1033942D01*
X215806Y1307934D02*
X210969D01*
X210062Y1308236D01*
X209759Y1308539D01*
X209457Y1309143D01*
Y1309748D01*
X209759Y1310352D01*
X210062Y1310655D01*
X210969Y1310957D01*
X211573D01*
X215806Y1304790D02*
X215503Y1305697D01*
X214899Y1305999D01*
X214294D01*
X213689Y1305697D01*
X213387Y1305092D01*
X213085Y1303883D01*
X212782Y1302976D01*
X212178Y1302371D01*
X211573Y1302069D01*
X210666D01*
X210062Y1302371D01*
X209759Y1302673D01*
X209457Y1303580D01*
Y1304790D01*
X209759Y1305697D01*
X210062Y1305999D01*
X210666Y1306301D01*
X211573D01*
X212178Y1305999D01*
X212782Y1305394D01*
X213085Y1304487D01*
X213387Y1303278D01*
X213689Y1302673D01*
X214294Y1302371D01*
X214899D01*
X215503Y1302673D01*
X215806Y1303580D01*
Y1304790D01*
Y1361782D02*
X210969D01*
X210062Y1362084D01*
X209759Y1362386D01*
X209457Y1362991D01*
Y1363596D01*
X209759Y1364200D01*
X210062Y1364503D01*
X210969Y1364805D01*
X211573D01*
X215806Y1355917D02*
X209457Y1358940D01*
X215806Y1360149D02*
Y1355917D01*
X737729Y1284995D02*
X732892D01*
X731985Y1285297D01*
X731682Y1285599D01*
X731380Y1286204D01*
Y1286809D01*
X731682Y1287413D01*
X731985Y1287716D01*
X732892Y1288018D01*
X733496D01*
X737729Y1279734D02*
Y1282758D01*
X735008Y1283060D01*
X735310Y1282758D01*
X735612Y1281851D01*
Y1280944D01*
X735310Y1280037D01*
X734706Y1279432D01*
X733799Y1279130D01*
X733194D01*
X732287Y1279432D01*
X731682Y1280037D01*
X731380Y1280944D01*
Y1281851D01*
X731682Y1282758D01*
X731985Y1283060D01*
X732589Y1283362D01*
X505040Y1367444D02*
Y1362607D01*
X504738Y1361700D01*
X504436Y1361397D01*
X503831Y1361095D01*
X503226D01*
X502622Y1361397D01*
X502319Y1361700D01*
X502017Y1362607D01*
Y1363211D01*
X509696Y1367444D02*
X506673Y1363211D01*
X511207D01*
X509696Y1367444D02*
Y1361095D01*
X492680Y945556D02*
Y950393D01*
X492982Y951300D01*
X493284Y951603D01*
X493889Y951905D01*
X494494D01*
X495098Y951603D01*
X495401Y951300D01*
X495703Y950393D01*
Y949789D01*
X490443Y945556D02*
X487117D01*
X488931Y947975D01*
X488024D01*
X487420Y948277D01*
X487117Y948579D01*
X486815Y949486D01*
Y950091D01*
X487117Y950998D01*
X487722Y951603D01*
X488629Y951905D01*
X489536D01*
X490443Y951603D01*
X490745Y951300D01*
X491047Y950696D01*
X509040Y1056044D02*
Y1051207D01*
X508738Y1050300D01*
X508436Y1049997D01*
X507831Y1049695D01*
X507226D01*
X506622Y1049997D01*
X506319Y1050300D01*
X506017Y1051207D01*
Y1051811D01*
X510975Y1054532D02*
Y1054834D01*
X511277Y1055439D01*
X511580Y1055741D01*
X512184Y1056044D01*
X513394D01*
X513998Y1055741D01*
X514300Y1055439D01*
X514603Y1054834D01*
Y1054230D01*
X514300Y1053625D01*
X513696Y1052718D01*
X510673Y1049695D01*
X514905D01*
X504650Y1270926D02*
Y1275763D01*
X504952Y1276670D01*
X505255Y1276973D01*
X505859Y1277275D01*
X506464D01*
X507068Y1276973D01*
X507371Y1276670D01*
X507673Y1275763D01*
Y1275159D01*
X503017Y1272135D02*
X502413Y1271833D01*
X501506Y1270926D01*
Y1277275D01*
X284213Y823588D02*
Y829937D01*
X279981Y823588D02*
Y829937D01*
X284213Y826611D02*
X279981D01*
X278227Y823588D02*
X275809Y826611D01*
Y829937D01*
X273390Y823588D02*
X275809Y826611D01*
X272574Y824798D02*
X271969Y824495D01*
X271062Y823588D01*
Y829937D01*
X981870Y1385778D02*
X981568Y1386383D01*
X980963Y1386987D01*
X980358Y1387290D01*
X979149D01*
X978544Y1386987D01*
X977940Y1386383D01*
X977637Y1385778D01*
X977335Y1384871D01*
Y1383360D01*
X977637Y1382453D01*
X977940Y1381848D01*
X978544Y1381243D01*
X979149Y1380941D01*
X980358D01*
X980963Y1381243D01*
X981568Y1381848D01*
X981870Y1382453D01*
X985467Y1387290D02*
X984863Y1386987D01*
X984258Y1386383D01*
X983956Y1385778D01*
X983653Y1384871D01*
Y1383360D01*
X983956Y1382453D01*
X984258Y1381848D01*
X984863Y1381243D01*
X985467Y1380941D01*
X986677D01*
X987281Y1381243D01*
X987886Y1381848D01*
X988188Y1382453D01*
X988491Y1383360D01*
Y1384871D01*
X988188Y1385778D01*
X987886Y1386383D01*
X987281Y1386987D01*
X986677Y1387290D01*
X985467D01*
X989972D02*
Y1380941D01*
Y1387290D02*
X994204Y1380941D01*
Y1387290D02*
Y1380941D01*
X995958Y1386080D02*
X996562Y1386383D01*
X997469Y1387290D01*
Y1380941D01*
X907052Y930604D02*
X906447Y930301D01*
X905843Y929697D01*
X905540Y929092D01*
Y927883D01*
X905843Y927278D01*
X906447Y926674D01*
X907052Y926371D01*
X907959Y926069D01*
X909470D01*
X910377Y926371D01*
X910982Y926674D01*
X911587Y927278D01*
X911889Y927883D01*
Y929092D01*
X911587Y929697D01*
X910982Y930301D01*
X910377Y930604D01*
X905540Y932992D02*
Y936318D01*
X907959Y934504D01*
Y935411D01*
X908261Y936015D01*
X908564Y936318D01*
X909470Y936620D01*
X910075D01*
X910982Y936318D01*
X911587Y935713D01*
X911889Y934806D01*
Y933899D01*
X911587Y932992D01*
X911284Y932690D01*
X910680Y932387D01*
X907052Y938343D02*
X906750D01*
X906145Y938645D01*
X905843Y938948D01*
X905540Y939552D01*
Y940761D01*
X905843Y941366D01*
X906145Y941668D01*
X906750Y941971D01*
X907354D01*
X907959Y941668D01*
X908866Y941064D01*
X911889Y938041D01*
Y942273D01*
X904796Y903348D02*
X905401Y903651D01*
X906005Y904255D01*
X906308Y904860D01*
Y906069D01*
X906005Y906674D01*
X905401Y907278D01*
X904796Y907581D01*
X903889Y907883D01*
X902378D01*
X901471Y907581D01*
X900866Y907278D01*
X900261Y906674D01*
X899959Y906069D01*
Y904860D01*
X900261Y904255D01*
X900866Y903651D01*
X901471Y903348D01*
X906308Y900960D02*
Y897635D01*
X903889Y899448D01*
Y898541D01*
X903587Y897937D01*
X903285Y897635D01*
X902378Y897332D01*
X901773D01*
X900866Y897635D01*
X900261Y898239D01*
X899959Y899146D01*
Y900053D01*
X900261Y900960D01*
X900564Y901262D01*
X901168Y901565D01*
X905098Y895911D02*
X905401Y895307D01*
X906308Y894400D01*
X899959D01*
X532924Y870434D02*
X532319Y870132D01*
X531715Y869527D01*
X531412Y868923D01*
Y867713D01*
X531715Y867109D01*
X532319Y866504D01*
X532924Y866202D01*
X533831Y865899D01*
X535342D01*
X536249Y866202D01*
X536854Y866504D01*
X537459Y867109D01*
X537761Y867713D01*
Y868923D01*
X537459Y869527D01*
X536854Y870132D01*
X536249Y870434D01*
X531412Y872822D02*
Y876148D01*
X533831Y874334D01*
Y875241D01*
X534133Y875845D01*
X534436Y876148D01*
X535342Y876450D01*
X535947D01*
X536854Y876148D01*
X537459Y875543D01*
X537761Y874636D01*
Y873729D01*
X537459Y872822D01*
X537156Y872520D01*
X536552Y872218D01*
X531412Y879685D02*
X531715Y878778D01*
X532622Y878173D01*
X534133Y877871D01*
X535040D01*
X536552Y878173D01*
X537459Y878778D01*
X537761Y879685D01*
Y880290D01*
X537459Y881197D01*
X536552Y881801D01*
X535040Y882103D01*
X534133D01*
X532622Y881801D01*
X531715Y881197D01*
X531412Y880290D01*
Y879685D01*
X687947Y930092D02*
X687342Y929789D01*
X686738Y929185D01*
X686435Y928580D01*
Y927371D01*
X686738Y926766D01*
X687342Y926161D01*
X687947Y925859D01*
X688854Y925557D01*
X690366D01*
X691273Y925859D01*
X691877Y926161D01*
X692482Y926766D01*
X692784Y927371D01*
Y928580D01*
X692482Y929185D01*
X691877Y929789D01*
X691273Y930092D01*
X687947Y932178D02*
X687645D01*
X687040Y932480D01*
X686738Y932782D01*
X686435Y933387D01*
Y934596D01*
X686738Y935201D01*
X687040Y935503D01*
X687645Y935805D01*
X688249D01*
X688854Y935503D01*
X689761Y934899D01*
X692784Y931875D01*
Y936108D01*
X688552Y941459D02*
X689459Y941156D01*
X690063Y940552D01*
X690366Y939645D01*
Y939342D01*
X690063Y938436D01*
X689459Y937831D01*
X688552Y937529D01*
X688249D01*
X687342Y937831D01*
X686738Y938436D01*
X686435Y939342D01*
Y939645D01*
X686738Y940552D01*
X687342Y941156D01*
X688552Y941459D01*
X690063D01*
X691575Y941156D01*
X692482Y940552D01*
X692784Y939645D01*
Y939040D01*
X692482Y938133D01*
X691877Y937831D01*
X420567Y866174D02*
X420869Y865570D01*
X421474Y864965D01*
X422078Y864663D01*
X423288D01*
X423892Y864965D01*
X424497Y865570D01*
X424799Y866174D01*
X425101Y867081D01*
Y868593D01*
X424799Y869500D01*
X424497Y870104D01*
X423892Y870709D01*
X423288Y871011D01*
X422078D01*
X421474Y870709D01*
X420869Y870104D01*
X420567Y869500D01*
X418481Y866174D02*
Y865872D01*
X418178Y865267D01*
X417876Y864965D01*
X417271Y864663D01*
X416062D01*
X415458Y864965D01*
X415155Y865267D01*
X414853Y865872D01*
Y866477D01*
X415155Y867081D01*
X415760Y867988D01*
X418783Y871011D01*
X414551D01*
X411618Y864663D02*
X412525Y864965D01*
X412827Y865570D01*
Y866174D01*
X412525Y866779D01*
X411921Y867081D01*
X410711Y867383D01*
X409804Y867686D01*
X409200Y868290D01*
X408897Y868895D01*
Y869802D01*
X409200Y870407D01*
X409502Y870709D01*
X410409Y871011D01*
X411618D01*
X412525Y870709D01*
X412827Y870407D01*
X413130Y869802D01*
Y868895D01*
X412827Y868290D01*
X412223Y867686D01*
X411316Y867383D01*
X410107Y867081D01*
X409502Y866779D01*
X409200Y866174D01*
Y865570D01*
X409502Y864965D01*
X410409Y864663D01*
X411618D01*
X322486Y940660D02*
X322183Y941265D01*
X321579Y941869D01*
X320974Y942172D01*
X319765D01*
X319160Y941869D01*
X318556Y941265D01*
X318253Y940660D01*
X317951Y939753D01*
Y938242D01*
X318253Y937335D01*
X318556Y936730D01*
X319160Y936125D01*
X319765Y935823D01*
X320974D01*
X321579Y936125D01*
X322183Y936730D01*
X322486Y937335D01*
X324572Y940660D02*
Y940962D01*
X324874Y941567D01*
X325176Y941869D01*
X325781Y942172D01*
X326990D01*
X327595Y941869D01*
X327897Y941567D01*
X328200Y940962D01*
Y940358D01*
X327897Y939753D01*
X327293Y938846D01*
X324269Y935823D01*
X328502D01*
X334155Y942172D02*
X331132Y935823D01*
X329923Y942172D02*
X334155D01*
X694579Y904836D02*
X695184Y905138D01*
X695788Y905743D01*
X696091Y906348D01*
Y907557D01*
X695788Y908162D01*
X695184Y908766D01*
X694579Y909069D01*
X693672Y909371D01*
X692161D01*
X691254Y909069D01*
X690649Y908766D01*
X690044Y908162D01*
X689742Y907557D01*
Y906348D01*
X690044Y905743D01*
X690649Y905138D01*
X691254Y904836D01*
X694579Y902750D02*
X694881D01*
X695486Y902448D01*
X695788Y902145D01*
X696091Y901541D01*
Y900332D01*
X695788Y899727D01*
X695486Y899425D01*
X694881Y899122D01*
X694277D01*
X693672Y899425D01*
X692765Y900029D01*
X689742Y903052D01*
Y898820D01*
X695184Y893771D02*
X695788Y894074D01*
X696091Y894981D01*
Y895585D01*
X695788Y896492D01*
X694881Y897097D01*
X693370Y897399D01*
X691858D01*
X690649Y897097D01*
X690044Y896492D01*
X689742Y895585D01*
Y895283D01*
X690044Y894376D01*
X690649Y893771D01*
X691556Y893469D01*
X691858D01*
X692765Y893771D01*
X693370Y894376D01*
X693672Y895283D01*
Y895585D01*
X693370Y896492D01*
X692765Y897097D01*
X691858Y897399D01*
X750414Y1331908D02*
X750111Y1332513D01*
X749507Y1333117D01*
X748902Y1333420D01*
X747693D01*
X747088Y1333117D01*
X746484Y1332513D01*
X746181Y1331908D01*
X745879Y1331001D01*
Y1329489D01*
X746181Y1328583D01*
X746484Y1327978D01*
X747088Y1327373D01*
X747693Y1327071D01*
X748902D01*
X749507Y1327373D01*
X750111Y1327978D01*
X750414Y1328583D01*
X752500Y1331908D02*
Y1332210D01*
X752802Y1332815D01*
X753104Y1333117D01*
X753709Y1333420D01*
X754918D01*
X755523Y1333117D01*
X755825Y1332815D01*
X756127Y1332210D01*
Y1331606D01*
X755825Y1331001D01*
X755221Y1330094D01*
X752197Y1327071D01*
X756430D01*
X761479Y1333420D02*
X758455D01*
X758153Y1330699D01*
X758455Y1331001D01*
X759362Y1331303D01*
X760269D01*
X761176Y1331001D01*
X761781Y1330397D01*
X762083Y1329489D01*
Y1328885D01*
X761781Y1327978D01*
X761176Y1327373D01*
X760269Y1327071D01*
X759362D01*
X758455Y1327373D01*
X758153Y1327676D01*
X757851Y1328280D01*
X943556Y1281992D02*
X943859Y1281387D01*
X944463Y1280783D01*
X945068Y1280480D01*
X946277D01*
X946882Y1280783D01*
X947486Y1281387D01*
X947789Y1281992D01*
X948091Y1282899D01*
Y1284410D01*
X947789Y1285317D01*
X947486Y1285922D01*
X946882Y1286527D01*
X946277Y1286829D01*
X945068D01*
X944463Y1286527D01*
X943859Y1285922D01*
X943556Y1285317D01*
X941470Y1281992D02*
Y1281689D01*
X941168Y1281085D01*
X940866Y1280783D01*
X940261Y1280480D01*
X939052D01*
X938447Y1280783D01*
X938145Y1281085D01*
X937842Y1281689D01*
Y1282294D01*
X938145Y1282899D01*
X938749Y1283806D01*
X941773Y1286829D01*
X937540D01*
X933096Y1280480D02*
X936119Y1284713D01*
X931585D01*
X933096Y1280480D02*
Y1286829D01*
X919664Y1315608D02*
X919361Y1316213D01*
X918757Y1316817D01*
X918152Y1317120D01*
X916943D01*
X916338Y1316817D01*
X915734Y1316213D01*
X915431Y1315608D01*
X915129Y1314701D01*
Y1313190D01*
X915431Y1312283D01*
X915734Y1311678D01*
X916338Y1311073D01*
X916943Y1310771D01*
X918152D01*
X918757Y1311073D01*
X919361Y1311678D01*
X919664Y1312283D01*
X921750Y1315608D02*
Y1315910D01*
X922052Y1316515D01*
X922354Y1316817D01*
X922959Y1317120D01*
X924168D01*
X924773Y1316817D01*
X925075Y1316515D01*
X925378Y1315910D01*
Y1315306D01*
X925075Y1314701D01*
X924471Y1313794D01*
X921447Y1310771D01*
X925680D01*
X927705Y1317120D02*
X931031D01*
X929217Y1314701D01*
X930124D01*
X930729Y1314399D01*
X931031Y1314097D01*
X931333Y1313190D01*
Y1312585D01*
X931031Y1311678D01*
X930426Y1311073D01*
X929519Y1310771D01*
X928612D01*
X927705Y1311073D01*
X927403Y1311376D01*
X927101Y1311980D01*
X774056Y1259992D02*
X774359Y1259387D01*
X774963Y1258783D01*
X775568Y1258480D01*
X776777D01*
X777382Y1258783D01*
X777986Y1259387D01*
X778289Y1259992D01*
X778591Y1260899D01*
Y1262410D01*
X778289Y1263317D01*
X777986Y1263922D01*
X777382Y1264527D01*
X776777Y1264829D01*
X775568D01*
X774963Y1264527D01*
X774359Y1263922D01*
X774056Y1263317D01*
X771970Y1259992D02*
Y1259689D01*
X771668Y1259085D01*
X771366Y1258783D01*
X770761Y1258480D01*
X769552D01*
X768947Y1258783D01*
X768645Y1259085D01*
X768343Y1259689D01*
Y1260294D01*
X768645Y1260899D01*
X769249Y1261806D01*
X772273Y1264829D01*
X768040D01*
X766317Y1259992D02*
Y1259689D01*
X766015Y1259085D01*
X765712Y1258783D01*
X765108Y1258480D01*
X763898D01*
X763294Y1258783D01*
X762991Y1259085D01*
X762689Y1259689D01*
Y1260294D01*
X762991Y1260899D01*
X763596Y1261806D01*
X766619Y1264829D01*
X762387D01*
X417052Y1050604D02*
X416447Y1050301D01*
X415843Y1049697D01*
X415540Y1049092D01*
Y1047883D01*
X415843Y1047278D01*
X416447Y1046674D01*
X417052Y1046371D01*
X417959Y1046069D01*
X419470D01*
X420377Y1046371D01*
X420982Y1046674D01*
X421587Y1047278D01*
X421889Y1047883D01*
Y1049092D01*
X421587Y1049697D01*
X420982Y1050301D01*
X420377Y1050604D01*
X417052Y1052690D02*
X416750D01*
X416145Y1052992D01*
X415843Y1053294D01*
X415540Y1053899D01*
Y1055108D01*
X415843Y1055713D01*
X416145Y1056015D01*
X416750Y1056318D01*
X417354D01*
X417959Y1056015D01*
X418866Y1055411D01*
X421889Y1052387D01*
Y1056620D01*
X415540Y1059855D02*
X415843Y1058948D01*
X416750Y1058343D01*
X418261Y1058041D01*
X419168D01*
X420680Y1058343D01*
X421587Y1058948D01*
X421889Y1059855D01*
Y1060459D01*
X421587Y1061366D01*
X420680Y1061971D01*
X419168Y1062273D01*
X418261D01*
X416750Y1061971D01*
X415843Y1061366D01*
X415540Y1060459D01*
Y1059855D01*
X417052Y1086604D02*
X416447Y1086301D01*
X415843Y1085697D01*
X415540Y1085092D01*
Y1083883D01*
X415843Y1083278D01*
X416447Y1082674D01*
X417052Y1082371D01*
X417959Y1082069D01*
X419470D01*
X420377Y1082371D01*
X420982Y1082674D01*
X421587Y1083278D01*
X421889Y1083883D01*
Y1085092D01*
X421587Y1085697D01*
X420982Y1086301D01*
X420377Y1086604D01*
X416750Y1088387D02*
X416447Y1088992D01*
X415540Y1089899D01*
X421889D01*
X417657Y1096973D02*
X418563Y1096671D01*
X419168Y1096066D01*
X419470Y1095159D01*
Y1094857D01*
X419168Y1093950D01*
X418563Y1093345D01*
X417657Y1093043D01*
X417354D01*
X416447Y1093345D01*
X415843Y1093950D01*
X415540Y1094857D01*
Y1095159D01*
X415843Y1096066D01*
X416447Y1096671D01*
X417657Y1096973D01*
X419168D01*
X420680Y1096671D01*
X421587Y1096066D01*
X421889Y1095159D01*
Y1094555D01*
X421587Y1093648D01*
X420982Y1093345D01*
X417052Y1122604D02*
X416447Y1122301D01*
X415843Y1121697D01*
X415540Y1121092D01*
Y1119883D01*
X415843Y1119278D01*
X416447Y1118674D01*
X417052Y1118371D01*
X417959Y1118069D01*
X419470D01*
X420377Y1118371D01*
X420982Y1118674D01*
X421587Y1119278D01*
X421889Y1119883D01*
Y1121092D01*
X421587Y1121697D01*
X420982Y1122301D01*
X420377Y1122604D01*
X416750Y1124387D02*
X416447Y1124992D01*
X415540Y1125899D01*
X421889D01*
X415540Y1130555D02*
X415843Y1129648D01*
X416447Y1129345D01*
X417052D01*
X417657Y1129648D01*
X417959Y1130252D01*
X418261Y1131462D01*
X418563Y1132368D01*
X419168Y1132973D01*
X419773Y1133276D01*
X420680D01*
X421284Y1132973D01*
X421587Y1132671D01*
X421889Y1131764D01*
Y1130555D01*
X421587Y1129648D01*
X421284Y1129345D01*
X420680Y1129043D01*
X419773D01*
X419168Y1129345D01*
X418563Y1129950D01*
X418261Y1130857D01*
X417959Y1132066D01*
X417657Y1132671D01*
X417052Y1132973D01*
X416447D01*
X415843Y1132671D01*
X415540Y1131764D01*
Y1130555D01*
X417302Y1158604D02*
X416697Y1158301D01*
X416093Y1157697D01*
X415790Y1157092D01*
Y1155883D01*
X416093Y1155278D01*
X416697Y1154674D01*
X417302Y1154371D01*
X418209Y1154069D01*
X419720D01*
X420628Y1154371D01*
X421232Y1154674D01*
X421837Y1155278D01*
X422139Y1155883D01*
Y1157092D01*
X421837Y1157697D01*
X421232Y1158301D01*
X420628Y1158604D01*
X417000Y1160387D02*
X416697Y1160992D01*
X415790Y1161899D01*
X422139D01*
X415790Y1169276D02*
X422139Y1166252D01*
X415790Y1165043D02*
Y1169276D01*
X417052Y1194604D02*
X416447Y1194301D01*
X415843Y1193697D01*
X415540Y1193092D01*
Y1191883D01*
X415843Y1191278D01*
X416447Y1190674D01*
X417052Y1190371D01*
X417959Y1190069D01*
X419470D01*
X420377Y1190371D01*
X420982Y1190674D01*
X421587Y1191278D01*
X421889Y1191883D01*
Y1193092D01*
X421587Y1193697D01*
X420982Y1194301D01*
X420377Y1194604D01*
X416750Y1196387D02*
X416447Y1196992D01*
X415540Y1197899D01*
X421889D01*
X416447Y1204671D02*
X415843Y1204369D01*
X415540Y1203462D01*
Y1202857D01*
X415843Y1201950D01*
X416750Y1201345D01*
X418261Y1201043D01*
X419773D01*
X420982Y1201345D01*
X421587Y1201950D01*
X421889Y1202857D01*
Y1203159D01*
X421587Y1204066D01*
X420982Y1204671D01*
X420075Y1204973D01*
X419773D01*
X418866Y1204671D01*
X418261Y1204066D01*
X417959Y1203159D01*
Y1202857D01*
X418261Y1201950D01*
X418866Y1201345D01*
X419773Y1201043D01*
X417052Y1230604D02*
X416447Y1230301D01*
X415843Y1229697D01*
X415540Y1229092D01*
Y1227883D01*
X415843Y1227278D01*
X416447Y1226674D01*
X417052Y1226371D01*
X417959Y1226069D01*
X419470D01*
X420377Y1226371D01*
X420982Y1226674D01*
X421587Y1227278D01*
X421889Y1227883D01*
Y1229092D01*
X421587Y1229697D01*
X420982Y1230301D01*
X420377Y1230604D01*
X416750Y1232387D02*
X416447Y1232992D01*
X415540Y1233899D01*
X421889D01*
X415540Y1240671D02*
Y1237648D01*
X418261Y1237345D01*
X417959Y1237648D01*
X417657Y1238555D01*
Y1239462D01*
X417959Y1240368D01*
X418563Y1240973D01*
X419470Y1241275D01*
X420075D01*
X420982Y1240973D01*
X421587Y1240368D01*
X421889Y1239462D01*
Y1238555D01*
X421587Y1237648D01*
X421284Y1237345D01*
X420680Y1237043D01*
X550052Y1259808D02*
X549447Y1259506D01*
X548843Y1258901D01*
X548540Y1258297D01*
Y1257087D01*
X548843Y1256483D01*
X549447Y1255878D01*
X550052Y1255576D01*
X550959Y1255274D01*
X552471D01*
X553377Y1255576D01*
X553982Y1255878D01*
X554587Y1256483D01*
X554889Y1257087D01*
Y1258297D01*
X554587Y1258901D01*
X553982Y1259506D01*
X553377Y1259808D01*
X549750Y1261592D02*
X549447Y1262197D01*
X548540Y1263103D01*
X554889D01*
X550052Y1266550D02*
X549750D01*
X549145Y1266852D01*
X548843Y1267155D01*
X548540Y1267759D01*
Y1268969D01*
X548843Y1269573D01*
X549145Y1269875D01*
X549750Y1270178D01*
X550354D01*
X550959Y1269875D01*
X551866Y1269271D01*
X554889Y1266248D01*
Y1270480D01*
X587052Y1242604D02*
X586447Y1242301D01*
X585843Y1241697D01*
X585540Y1241092D01*
Y1239883D01*
X585843Y1239278D01*
X586447Y1238674D01*
X587052Y1238371D01*
X587959Y1238069D01*
X589470D01*
X590377Y1238371D01*
X590982Y1238674D01*
X591587Y1239278D01*
X591889Y1239883D01*
Y1241092D01*
X591587Y1241697D01*
X590982Y1242301D01*
X590377Y1242604D01*
X587657Y1248317D02*
X588563Y1248015D01*
X589168Y1247411D01*
X589470Y1246504D01*
Y1246201D01*
X589168Y1245294D01*
X588563Y1244690D01*
X587657Y1244387D01*
X587354D01*
X586447Y1244690D01*
X585843Y1245294D01*
X585540Y1246201D01*
Y1246504D01*
X585843Y1247411D01*
X586447Y1248015D01*
X587657Y1248317D01*
X589168D01*
X590680Y1248015D01*
X591587Y1247411D01*
X591889Y1246504D01*
Y1245899D01*
X591587Y1244992D01*
X590982Y1244690D01*
X726056Y1088492D02*
X726359Y1087887D01*
X726963Y1087283D01*
X727568Y1086980D01*
X728777D01*
X729382Y1087283D01*
X729986Y1087887D01*
X730289Y1088492D01*
X730591Y1089399D01*
Y1090910D01*
X730289Y1091817D01*
X729986Y1092422D01*
X729382Y1093027D01*
X728777Y1093329D01*
X727568D01*
X726963Y1093027D01*
X726359Y1092422D01*
X726056Y1091817D01*
X722761Y1086980D02*
X723668Y1087283D01*
X723970Y1087887D01*
Y1088492D01*
X723668Y1089097D01*
X723063Y1089399D01*
X721854Y1089701D01*
X720947Y1090004D01*
X720342Y1090608D01*
X720040Y1091213D01*
Y1092120D01*
X720342Y1092724D01*
X720645Y1093027D01*
X721552Y1093329D01*
X722761D01*
X723668Y1093027D01*
X723970Y1092724D01*
X724273Y1092120D01*
Y1091213D01*
X723970Y1090608D01*
X723366Y1090004D01*
X722459Y1089701D01*
X721249Y1089399D01*
X720645Y1089097D01*
X720342Y1088492D01*
Y1087887D01*
X720645Y1087283D01*
X721552Y1086980D01*
X722761D01*
X623664Y1296108D02*
X623361Y1296713D01*
X622757Y1297317D01*
X622152Y1297620D01*
X620943D01*
X620338Y1297317D01*
X619734Y1296713D01*
X619431Y1296108D01*
X619129Y1295201D01*
Y1293690D01*
X619431Y1292783D01*
X619734Y1292178D01*
X620338Y1291573D01*
X620943Y1291271D01*
X622152D01*
X622757Y1291573D01*
X623361Y1292178D01*
X623664Y1292783D01*
X629075Y1296713D02*
X628773Y1297317D01*
X627866Y1297620D01*
X627261D01*
X626354Y1297317D01*
X625750Y1296410D01*
X625447Y1294899D01*
Y1293387D01*
X625750Y1292178D01*
X626354Y1291573D01*
X627261Y1291271D01*
X627564D01*
X628471Y1291573D01*
X629075Y1292178D01*
X629378Y1293085D01*
Y1293387D01*
X629075Y1294294D01*
X628471Y1294899D01*
X627564Y1295201D01*
X627261D01*
X626354Y1294899D01*
X625750Y1294294D01*
X625447Y1293387D01*
X602231Y1296108D02*
X601929Y1296713D01*
X601324Y1297317D01*
X600720Y1297620D01*
X599510D01*
X598906Y1297317D01*
X598301Y1296713D01*
X597999Y1296108D01*
X597697Y1295201D01*
Y1293690D01*
X597999Y1292783D01*
X598301Y1292178D01*
X598906Y1291573D01*
X599510Y1291271D01*
X600720D01*
X601324Y1291573D01*
X601929Y1292178D01*
X602231Y1292783D01*
X607643Y1297620D02*
X604620D01*
X604317Y1294899D01*
X604620Y1295201D01*
X605527Y1295503D01*
X606433D01*
X607341Y1295201D01*
X607945Y1294596D01*
X608247Y1293690D01*
Y1293085D01*
X607945Y1292178D01*
X607341Y1291573D01*
X606433Y1291271D01*
X605527D01*
X604620Y1291573D01*
X604317Y1291876D01*
X604015Y1292480D01*
X552637Y1022059D02*
X552032Y1021757D01*
X551427Y1021152D01*
X551125Y1020548D01*
Y1019339D01*
X551427Y1018734D01*
X552032Y1018129D01*
X552637Y1017827D01*
X553544Y1017525D01*
X555055D01*
X555962Y1017827D01*
X556567Y1018129D01*
X557171Y1018734D01*
X557474Y1019339D01*
Y1020548D01*
X557171Y1021152D01*
X556567Y1021757D01*
X555962Y1022059D01*
X551125Y1024448D02*
Y1027773D01*
X553544Y1025959D01*
Y1026866D01*
X553846Y1027471D01*
X554148Y1027773D01*
X555055Y1028075D01*
X555660D01*
X556567Y1027773D01*
X557171Y1027169D01*
X557474Y1026262D01*
Y1025355D01*
X557171Y1024448D01*
X556869Y1024145D01*
X556264Y1023843D01*
X587887Y1068559D02*
X587282Y1068257D01*
X586677Y1067652D01*
X586375Y1067048D01*
Y1065838D01*
X586677Y1065234D01*
X587282Y1064629D01*
X587887Y1064327D01*
X588793Y1064025D01*
X590305D01*
X591212Y1064327D01*
X591817Y1064629D01*
X592421Y1065234D01*
X592724Y1065838D01*
Y1067048D01*
X592421Y1067652D01*
X591817Y1068257D01*
X591212Y1068559D01*
X587887Y1070645D02*
X587584D01*
X586980Y1070948D01*
X586677Y1071250D01*
X586375Y1071854D01*
Y1073064D01*
X586677Y1073668D01*
X586980Y1073971D01*
X587584Y1074273D01*
X588189D01*
X588793Y1073971D01*
X589701Y1073366D01*
X592724Y1070343D01*
Y1074575D01*
X512491Y1230604D02*
X511887Y1230301D01*
X511282Y1229697D01*
X510980Y1229092D01*
Y1227883D01*
X511282Y1227278D01*
X511887Y1226674D01*
X512491Y1226371D01*
X513398Y1226069D01*
X514910D01*
X515817Y1226371D01*
X516421Y1226674D01*
X517026Y1227278D01*
X517328Y1227883D01*
Y1229092D01*
X517026Y1229697D01*
X516421Y1230301D01*
X515817Y1230604D01*
X512189Y1232387D02*
X511887Y1232992D01*
X510980Y1233899D01*
X517328D01*
M02*
