G04*
G04 #@! TF.GenerationSoftware,Altium Limited,Altium Designer,22.11.1 (43)*
G04*
G04 Layer_Color=5050912*
%FSLAX44Y44*%
%MOMM*%
G71*
G04*
G04 #@! TF.SameCoordinates,C851D113-A8C7-42F9-9C4B-FB2C255A0ABB*
G04*
G04*
G04 #@! TF.FilePolarity,Positive*
G04*
G01*
G75*
%ADD16R,1.1500X1.4500*%
%ADD17R,0.9500X1.0000*%
%ADD18R,0.9500X0.9500*%
%ADD19R,0.2758X1.6544*%
G04:AMPARAMS|DCode=20|XSize=1.6544mm|YSize=0.2758mm|CornerRadius=0.1379mm|HoleSize=0mm|Usage=FLASHONLY|Rotation=270.000|XOffset=0mm|YOffset=0mm|HoleType=Round|Shape=RoundedRectangle|*
%AMROUNDEDRECTD20*
21,1,1.6544,0.0000,0,0,270.0*
21,1,1.3786,0.2758,0,0,270.0*
1,1,0.2758,0.0000,-0.6893*
1,1,0.2758,0.0000,0.6893*
1,1,0.2758,0.0000,0.6893*
1,1,0.2758,0.0000,-0.6893*
%
%ADD20ROUNDEDRECTD20*%
G04:AMPARAMS|DCode=21|XSize=0.6mm|YSize=1.45mm|CornerRadius=0.03mm|HoleSize=0mm|Usage=FLASHONLY|Rotation=270.000|XOffset=0mm|YOffset=0mm|HoleType=Round|Shape=RoundedRectangle|*
%AMROUNDEDRECTD21*
21,1,0.6000,1.3900,0,0,270.0*
21,1,0.5400,1.4500,0,0,270.0*
1,1,0.0600,-0.6950,-0.2700*
1,1,0.0600,-0.6950,0.2700*
1,1,0.0600,0.6950,0.2700*
1,1,0.0600,0.6950,-0.2700*
%
%ADD21ROUNDEDRECTD21*%
%ADD22R,2.7000X1.3000*%
%ADD23R,0.9500X0.9500*%
%ADD24R,0.9000X1.4000*%
%ADD25R,1.0000X0.9500*%
%ADD26R,1.3000X3.3000*%
%ADD27R,1.1500X1.4500*%
%ADD28R,1.3000X1.8000*%
%ADD29R,1.0500X1.0500*%
%ADD30R,2.2000X1.0500*%
%ADD31R,1.2500X2.1000*%
%ADD32R,0.6500X2.0000*%
%ADD33R,3.2000X2.0000*%
%ADD34R,0.9500X1.2000*%
%ADD35R,1.4500X1.1500*%
G04:AMPARAMS|DCode=36|XSize=0.6mm|YSize=2mm|CornerRadius=0.03mm|HoleSize=0mm|Usage=FLASHONLY|Rotation=270.000|XOffset=0mm|YOffset=0mm|HoleType=Round|Shape=RoundedRectangle|*
%AMROUNDEDRECTD36*
21,1,0.6000,1.9400,0,0,270.0*
21,1,0.5400,2.0000,0,0,270.0*
1,1,0.0600,-0.9700,-0.2700*
1,1,0.0600,-0.9700,0.2700*
1,1,0.0600,0.9700,0.2700*
1,1,0.0600,0.9700,-0.2700*
%
%ADD36ROUNDEDRECTD36*%
%ADD37O,1.8000X0.3000*%
%ADD38O,0.3000X1.8000*%
%ADD39R,0.9000X1.5000*%
%ADD40R,1.5000X0.9000*%
%ADD41R,0.9000X0.9000*%
%ADD42R,1.5500X1.5000*%
%ADD43R,1.3500X0.4000*%
D16*
X762643Y930288D02*
D03*
X744643D02*
D03*
X961560Y930800D02*
D03*
X979560D02*
D03*
X966495Y1180550D02*
D03*
X984495D02*
D03*
D17*
X435860Y1124800D02*
D03*
X451860D02*
D03*
X435860Y1088800D02*
D03*
X451860D02*
D03*
X435860Y1052800D02*
D03*
X451860D02*
D03*
X435860Y1196800D02*
D03*
X451860D02*
D03*
X435860Y1232800D02*
D03*
X451860D02*
D03*
X436110Y1160800D02*
D03*
X452110D02*
D03*
X554299Y1048800D02*
D03*
X570299D02*
D03*
X722755Y932288D02*
D03*
X706755D02*
D03*
X941860Y932800D02*
D03*
X925860D02*
D03*
X568860Y1262005D02*
D03*
X584860D02*
D03*
X605860Y1244800D02*
D03*
X621860D02*
D03*
X531299Y1232800D02*
D03*
X547299D02*
D03*
D18*
X452110Y1142800D02*
D03*
X436110D02*
D03*
X451860Y1070800D02*
D03*
X435860D02*
D03*
X451860Y1106800D02*
D03*
X435860D02*
D03*
X451860Y1268800D02*
D03*
X435860D02*
D03*
X451860Y1214800D02*
D03*
X435860D02*
D03*
X451860Y1178800D02*
D03*
X435860D02*
D03*
X451860Y1250800D02*
D03*
X435860D02*
D03*
X415860Y1348800D02*
D03*
X399860D02*
D03*
X449860D02*
D03*
X433860D02*
D03*
X462370Y932800D02*
D03*
X478370D02*
D03*
X491860Y850800D02*
D03*
X507860D02*
D03*
X451860Y1032800D02*
D03*
X435860D02*
D03*
X405860Y946800D02*
D03*
X389860D02*
D03*
X593860Y836800D02*
D03*
X609860D02*
D03*
X783643Y884288D02*
D03*
X799643D02*
D03*
X1019050Y888800D02*
D03*
X1003050D02*
D03*
X742932Y1024800D02*
D03*
X758932D02*
D03*
X991441Y1232800D02*
D03*
X975441D02*
D03*
X968745Y1206800D02*
D03*
X952745D02*
D03*
X991441Y1257550D02*
D03*
X975441D02*
D03*
X755860Y1342288D02*
D03*
X771860D02*
D03*
X755860Y1360600D02*
D03*
X771860D02*
D03*
X925110D02*
D03*
X941110D02*
D03*
X925110Y1342500D02*
D03*
X941110D02*
D03*
X926860Y1179178D02*
D03*
X942860D02*
D03*
X761860Y1204800D02*
D03*
X777860D02*
D03*
X547299Y1250800D02*
D03*
X531299D02*
D03*
D19*
X255860Y1102752D02*
D03*
Y1237803D02*
D03*
D20*
X250860Y1102752D02*
D03*
X245860D02*
D03*
X240860D02*
D03*
X235860D02*
D03*
Y1060746D02*
D03*
X240860D02*
D03*
X245860D02*
D03*
X250860D02*
D03*
X255860D02*
D03*
X250860Y1237803D02*
D03*
X245860D02*
D03*
X240860D02*
D03*
X235860D02*
D03*
Y1195797D02*
D03*
X240860D02*
D03*
X245860D02*
D03*
X250860D02*
D03*
X255860D02*
D03*
D21*
X449110Y1302450D02*
D03*
Y1315150D02*
D03*
Y1327850D02*
D03*
X394610Y1315150D02*
D03*
Y1327850D02*
D03*
Y1302450D02*
D03*
Y1289750D02*
D03*
X449110D02*
D03*
X443120Y898932D02*
D03*
Y886232D02*
D03*
Y873532D02*
D03*
X497620Y886232D02*
D03*
Y873532D02*
D03*
Y898932D02*
D03*
Y911632D02*
D03*
X443120D02*
D03*
X449110Y982450D02*
D03*
Y995150D02*
D03*
Y1007850D02*
D03*
X394610Y995150D02*
D03*
Y1007850D02*
D03*
Y982450D02*
D03*
Y969750D02*
D03*
X449110D02*
D03*
D22*
X601860Y1073800D02*
D03*
Y1043800D02*
D03*
D23*
X522370Y886982D02*
D03*
Y902982D02*
D03*
X765860Y967300D02*
D03*
Y983300D02*
D03*
X743860Y968300D02*
D03*
Y984300D02*
D03*
X687860Y1246800D02*
D03*
Y1230800D02*
D03*
X585360Y1293300D02*
D03*
Y1309300D02*
D03*
X549360Y1293300D02*
D03*
Y1309300D02*
D03*
X567360D02*
D03*
Y1293300D02*
D03*
D24*
X452360Y851300D02*
D03*
X471360D02*
D03*
X799143Y860288D02*
D03*
X780143D02*
D03*
X1019360Y864800D02*
D03*
X1000360D02*
D03*
X692860Y1024800D02*
D03*
X711860D02*
D03*
X933860Y1232800D02*
D03*
X952860D02*
D03*
X933860Y1258800D02*
D03*
X952860D02*
D03*
D25*
X418370Y884982D02*
D03*
Y900982D02*
D03*
X723860Y1107300D02*
D03*
Y1123300D02*
D03*
X941360Y1300800D02*
D03*
Y1316800D02*
D03*
X752610Y1313100D02*
D03*
Y1297100D02*
D03*
X771860Y1278800D02*
D03*
Y1294800D02*
D03*
X921860Y1296800D02*
D03*
Y1280800D02*
D03*
X625860Y1277300D02*
D03*
Y1261300D02*
D03*
X604428Y1277300D02*
D03*
Y1261300D02*
D03*
D26*
X351860Y846800D02*
D03*
Y910800D02*
D03*
D27*
X572299Y1069300D02*
D03*
X554299D02*
D03*
D28*
X567860Y875982D02*
D03*
Y913982D02*
D03*
X659643Y899288D02*
D03*
Y861288D02*
D03*
X869860Y859800D02*
D03*
Y897800D02*
D03*
D29*
X194862Y965898D02*
D03*
Y1127442D02*
D03*
Y1180782D02*
D03*
Y1020762D02*
D03*
Y1074610D02*
D03*
Y1288732D02*
D03*
Y1234630D02*
D03*
Y1342580D02*
D03*
D30*
X179612Y951148D02*
D03*
Y980648D02*
D03*
Y1112692D02*
D03*
Y1142192D02*
D03*
Y1166032D02*
D03*
Y1195532D02*
D03*
Y1006012D02*
D03*
Y1035512D02*
D03*
Y1059860D02*
D03*
Y1089360D02*
D03*
Y1273982D02*
D03*
Y1303482D02*
D03*
Y1219880D02*
D03*
Y1249380D02*
D03*
Y1327830D02*
D03*
Y1357330D02*
D03*
D31*
X636360Y978800D02*
D03*
X713860D02*
D03*
X815110Y1198800D02*
D03*
X892610D02*
D03*
D32*
X754343Y900288D02*
D03*
X741643D02*
D03*
X728943D02*
D03*
X716243D02*
D03*
X703543D02*
D03*
X971010Y901340D02*
D03*
X945610D02*
D03*
X932910D02*
D03*
X920210D02*
D03*
X958310D02*
D03*
D33*
X728943Y840288D02*
D03*
X945610Y841340D02*
D03*
D34*
X684110Y1104300D02*
D03*
Y1126300D02*
D03*
X667610D02*
D03*
Y1104300D02*
D03*
D35*
X703860Y1105800D02*
D03*
Y1123800D02*
D03*
D36*
X895510Y1281700D02*
D03*
Y1294400D02*
D03*
Y1307100D02*
D03*
Y1319800D02*
D03*
Y1332500D02*
D03*
Y1345200D02*
D03*
Y1357900D02*
D03*
Y1370600D02*
D03*
X801510Y1281700D02*
D03*
Y1294400D02*
D03*
Y1307100D02*
D03*
Y1319800D02*
D03*
Y1332500D02*
D03*
Y1345200D02*
D03*
Y1357900D02*
D03*
Y1370600D02*
D03*
D37*
X520360Y1190300D02*
D03*
Y1185300D02*
D03*
Y1180300D02*
D03*
Y1175300D02*
D03*
Y1170300D02*
D03*
Y1165300D02*
D03*
Y1160300D02*
D03*
Y1155300D02*
D03*
Y1150300D02*
D03*
Y1145300D02*
D03*
Y1140300D02*
D03*
Y1135300D02*
D03*
Y1130300D02*
D03*
Y1125300D02*
D03*
Y1120300D02*
D03*
Y1115300D02*
D03*
X631360D02*
D03*
Y1120300D02*
D03*
Y1125300D02*
D03*
Y1130300D02*
D03*
Y1135300D02*
D03*
Y1140300D02*
D03*
Y1145300D02*
D03*
Y1150300D02*
D03*
Y1155300D02*
D03*
Y1160300D02*
D03*
Y1165300D02*
D03*
Y1170300D02*
D03*
Y1175300D02*
D03*
Y1180300D02*
D03*
Y1185300D02*
D03*
Y1190300D02*
D03*
D38*
X538360Y1097300D02*
D03*
X543360D02*
D03*
X548360D02*
D03*
X553360D02*
D03*
X558360D02*
D03*
X563360D02*
D03*
X568360D02*
D03*
X573360D02*
D03*
X578360D02*
D03*
X583360D02*
D03*
X588360D02*
D03*
X593360D02*
D03*
X598360D02*
D03*
X603360D02*
D03*
X608360D02*
D03*
X613360D02*
D03*
Y1208300D02*
D03*
X608360D02*
D03*
X603360D02*
D03*
X598360D02*
D03*
X593360D02*
D03*
X588360D02*
D03*
X583360D02*
D03*
X578360D02*
D03*
X573360D02*
D03*
X568360D02*
D03*
X563360D02*
D03*
X558360D02*
D03*
X553360D02*
D03*
X548360D02*
D03*
X543360D02*
D03*
X538360D02*
D03*
D39*
X968460Y1150300D02*
D03*
X955760D02*
D03*
X943060D02*
D03*
X930360D02*
D03*
X917660D02*
D03*
X904960D02*
D03*
X892260D02*
D03*
X879560D02*
D03*
X866860D02*
D03*
X854160D02*
D03*
X841460D02*
D03*
X828760D02*
D03*
X816060D02*
D03*
X803360D02*
D03*
Y975300D02*
D03*
X816060D02*
D03*
X828760D02*
D03*
X841460D02*
D03*
X854160D02*
D03*
X866860D02*
D03*
X879560D02*
D03*
X892260D02*
D03*
X904960D02*
D03*
X917660D02*
D03*
X930360D02*
D03*
X943060D02*
D03*
X955760D02*
D03*
X968460D02*
D03*
D40*
X790860Y1119900D02*
D03*
Y1107200D02*
D03*
Y1094500D02*
D03*
Y1081800D02*
D03*
Y1069100D02*
D03*
Y1056400D02*
D03*
Y1043700D02*
D03*
Y1031000D02*
D03*
Y1018300D02*
D03*
Y1005600D02*
D03*
D41*
X905260Y1091800D02*
D03*
Y1077800D02*
D03*
Y1063800D02*
D03*
X891260Y1091800D02*
D03*
Y1077800D02*
D03*
Y1063800D02*
D03*
X877260Y1091800D02*
D03*
Y1077800D02*
D03*
Y1063800D02*
D03*
D42*
X1018610Y1322300D02*
D03*
Y1342300D02*
D03*
D43*
X991860Y1338800D02*
D03*
Y1345300D02*
D03*
Y1325800D02*
D03*
Y1332300D02*
D03*
Y1319300D02*
D03*
M02*
