G04*
G04 #@! TF.GenerationSoftware,Altium Limited,Altium Designer,22.11.1 (43)*
G04*
G04 Layer_Physical_Order=1*
G04 Layer_Color=255*
%FSLAX44Y44*%
%MOMM*%
G71*
G04*
G04 #@! TF.SameCoordinates,C851D113-A8C7-42F9-9C4B-FB2C255A0ABB*
G04*
G04*
G04 #@! TF.FilePolarity,Positive*
G04*
G01*
G75*
%ADD11C,0.2540*%
%ADD16R,1.1500X1.4500*%
%ADD17R,0.9500X1.0000*%
%ADD18R,0.9500X0.9500*%
%ADD19R,0.2758X1.6544*%
G04:AMPARAMS|DCode=20|XSize=1.6544mm|YSize=0.2758mm|CornerRadius=0.1379mm|HoleSize=0mm|Usage=FLASHONLY|Rotation=270.000|XOffset=0mm|YOffset=0mm|HoleType=Round|Shape=RoundedRectangle|*
%AMROUNDEDRECTD20*
21,1,1.6544,0.0000,0,0,270.0*
21,1,1.3786,0.2758,0,0,270.0*
1,1,0.2758,0.0000,-0.6893*
1,1,0.2758,0.0000,0.6893*
1,1,0.2758,0.0000,0.6893*
1,1,0.2758,0.0000,-0.6893*
%
%ADD20ROUNDEDRECTD20*%
G04:AMPARAMS|DCode=21|XSize=0.6mm|YSize=1.45mm|CornerRadius=0.03mm|HoleSize=0mm|Usage=FLASHONLY|Rotation=270.000|XOffset=0mm|YOffset=0mm|HoleType=Round|Shape=RoundedRectangle|*
%AMROUNDEDRECTD21*
21,1,0.6000,1.3900,0,0,270.0*
21,1,0.5400,1.4500,0,0,270.0*
1,1,0.0600,-0.6950,-0.2700*
1,1,0.0600,-0.6950,0.2700*
1,1,0.0600,0.6950,0.2700*
1,1,0.0600,0.6950,-0.2700*
%
%ADD21ROUNDEDRECTD21*%
%ADD22R,2.7000X1.3000*%
%ADD23R,0.9500X0.9500*%
%ADD24R,0.9000X1.4000*%
%ADD25R,1.0000X0.9500*%
%ADD26R,1.3000X3.3000*%
%ADD27R,1.1500X1.4500*%
%ADD28R,1.3000X1.8000*%
%ADD29R,1.0500X1.0500*%
%ADD30R,2.2000X1.0500*%
%ADD31R,1.2500X2.1000*%
%ADD32R,0.6500X2.0000*%
%ADD33R,3.2000X2.0000*%
%ADD34R,0.9500X1.2000*%
%ADD35R,1.4500X1.1500*%
G04:AMPARAMS|DCode=36|XSize=0.6mm|YSize=2mm|CornerRadius=0.03mm|HoleSize=0mm|Usage=FLASHONLY|Rotation=270.000|XOffset=0mm|YOffset=0mm|HoleType=Round|Shape=RoundedRectangle|*
%AMROUNDEDRECTD36*
21,1,0.6000,1.9400,0,0,270.0*
21,1,0.5400,2.0000,0,0,270.0*
1,1,0.0600,-0.9700,-0.2700*
1,1,0.0600,-0.9700,0.2700*
1,1,0.0600,0.9700,0.2700*
1,1,0.0600,0.9700,-0.2700*
%
%ADD36ROUNDEDRECTD36*%
%ADD37O,1.8000X0.3000*%
%ADD38O,0.3000X1.8000*%
%ADD39R,0.9000X1.5000*%
%ADD40R,1.5000X0.9000*%
%ADD41R,0.9000X0.9000*%
%ADD42R,1.5500X1.5000*%
%ADD43R,1.3500X0.4000*%
%ADD76C,0.5080*%
%ADD77C,0.7620*%
%ADD78C,1.3000*%
%ADD79C,1.5500*%
%ADD80R,1.5500X1.5500*%
%ADD81O,0.9500X1.2500*%
%ADD82R,1.5500X1.5500*%
%ADD83C,1.5700*%
%ADD84O,2.2500X1.6000*%
%ADD85C,0.8000*%
%ADD86C,0.5000*%
G36*
G01X1026360Y1297300D02*
G02X1020860Y1292300I-5250J250D01*
G01X1016360D01*
G02X1010860Y1297300I-250J5250D01*
G01Y1308750D01*
G01X1026360D01*
G01Y1297300D01*
D02*
G37*
G36*
G01X1010860Y1367300D02*
G02X1016360Y1372300I5250J-250D01*
G01X1020860D01*
G02X1026360Y1367300I250J-5250D01*
G01Y1355850D01*
G01X1010860D01*
G01Y1367300D01*
D02*
G37*
D11*
X593360Y1191300D02*
Y1228300D01*
X109220Y749300D02*
X1109220D01*
X109220Y1449300D02*
X1109220D01*
Y749300D02*
Y1449300D01*
X109220Y749300D02*
Y1449300D01*
X657860Y1214800D02*
X681965D01*
X444860Y1327850D02*
X449110D01*
X240860Y1102752D02*
X240860Y1102752D01*
X240860Y1102752D02*
Y1113800D01*
X235860Y1070800D02*
X243860Y1078800D01*
X215567Y1035611D02*
X222617D01*
X207752Y1112692D02*
X219860Y1124800D01*
X198420Y1089360D02*
X226311Y1117251D01*
X205860Y1126800D02*
X213860Y1134800D01*
X195052Y1074800D02*
X213860D01*
X195504Y1126800D02*
X205860D01*
X194862Y1074610D02*
X195052Y1074800D01*
X194862Y1127442D02*
X195504Y1126800D01*
X255860Y1102752D02*
X255860Y1102752D01*
X239860Y1086800D02*
X257510D01*
X250860Y1102752D02*
X250860Y1102752D01*
X250860Y1102752D02*
Y1113299D01*
X239359Y1124800D02*
X250860Y1113299D01*
X237409Y1117251D02*
X240860Y1113800D01*
X226311Y1117251D02*
X237409D01*
X250860Y1024898D02*
Y1060746D01*
X240860Y1053854D02*
Y1060746D01*
X235860Y1060746D02*
X235860Y1060746D01*
X235860Y1060746D02*
Y1070800D01*
X222617Y1035611D02*
X240860Y1053854D01*
X206610Y980648D02*
X250860Y1024898D01*
X283410Y1112700D02*
X284460D01*
X283074Y1087300D02*
X284460D01*
X281942Y1135582D02*
X284460Y1138100D01*
X274575Y1078800D02*
X283074Y1087300D01*
X274746Y1135582D02*
X281942D01*
X257510Y1086800D02*
X283410Y1112700D01*
X255860Y1116696D02*
X274746Y1135582D01*
X255860Y1102752D02*
Y1116696D01*
X283560Y1062800D02*
X284460Y1061900D01*
X255961Y1062800D02*
X283560D01*
X235860Y1090800D02*
X239860Y1086800D01*
X235860Y1090800D02*
Y1102752D01*
X219860Y1124800D02*
X239359D01*
X243860Y1078800D02*
X274575D01*
X255860Y1062699D02*
X255961Y1062800D01*
X255860Y1060746D02*
Y1062699D01*
X250860Y1060746D02*
X250860Y1060746D01*
X215468Y1035512D02*
X215567Y1035611D01*
X195764Y966800D02*
X211860D01*
X194900Y1020800D02*
X211860D01*
X194862Y1020762D02*
X194900Y1020800D01*
X194862Y965898D02*
X195764Y966800D01*
X481860Y975400D02*
X485860D01*
X505260Y960800D02*
X519860Y975400D01*
X469898Y960800D02*
X505260D01*
X498800Y988340D02*
X529400D01*
X485860Y975400D02*
X498800Y988340D01*
X481860Y975400D02*
X481860Y975400D01*
X460660Y982450D02*
X463360Y979750D01*
X481860Y1000800D02*
X481860Y1000800D01*
X463360Y995150D02*
X469010Y1000800D01*
X449110Y995150D02*
X453110D01*
X453110Y995150D01*
X459110D01*
X463360D01*
X449110Y982450D02*
X453110D01*
X432984D02*
X449110D01*
X453110D02*
X453110Y982450D01*
X460660D01*
X469010Y1000800D02*
X481860D01*
X463360Y967338D02*
Y979750D01*
Y967338D02*
X469898Y960800D01*
X451860Y1052800D02*
Y1070800D01*
X542421Y1114239D02*
X548360D01*
X556872D01*
X558360Y1112751D01*
X548360Y1097300D02*
Y1114239D01*
X558360Y1097300D02*
Y1112751D01*
Y1097300D02*
X563360D01*
X553360Y1085861D02*
Y1097300D01*
Y1085861D02*
X556421Y1082800D01*
Y1071421D02*
Y1082800D01*
X554299Y1069300D02*
X556421Y1071421D01*
X554299Y1048550D02*
Y1069300D01*
Y1048800D02*
X554871Y1048228D01*
Y1041478D02*
Y1048228D01*
Y1041478D02*
X560166Y1036183D01*
X543360Y1208300D02*
Y1219300D01*
X536549Y1192800D02*
X545421D01*
X515860Y1213489D02*
X536549Y1192800D01*
X520360Y1180300D02*
Y1185300D01*
Y1190300D01*
X536650Y1168090D02*
X563360Y1194800D01*
X548360Y1195739D02*
Y1208300D01*
X545421Y1192800D02*
X548360Y1195739D01*
X520360Y1175300D02*
Y1180300D01*
X536860Y1119800D02*
Y1130973D01*
Y1139381D01*
X535941Y1140300D02*
X536860Y1139381D01*
X536188Y1130300D02*
X536860Y1130973D01*
X520360Y1120300D02*
X536360D01*
X536860Y1119800D01*
X510360Y1115300D02*
X520360D01*
X536860Y1159801D02*
Y1167881D01*
Y1150802D02*
Y1159801D01*
Y1139381D02*
Y1150802D01*
X536361Y1160300D02*
X536860Y1159801D01*
X536358Y1150300D02*
X536860Y1150802D01*
X534441Y1170300D02*
X536651Y1168090D01*
X519860Y1000800D02*
X535860Y1016800D01*
X529400Y988340D02*
X543360Y1002300D01*
X536860Y1119800D02*
X542421Y1114239D01*
X538210Y1097150D02*
X538360Y1097300D01*
X538210Y1089650D02*
Y1097150D01*
X535860Y1087300D02*
X538210Y1089650D01*
X543360Y1002300D02*
Y1097300D01*
X535860Y1016800D02*
Y1087300D01*
X520360Y1150300D02*
X536358D01*
X520360Y1170300D02*
X534441D01*
X520360D02*
Y1175300D01*
X493860Y1155300D02*
X520360D01*
X497860Y1172800D02*
X505360Y1165300D01*
X479860Y1169300D02*
X493860Y1155300D01*
X479860Y1169300D02*
Y1189239D01*
X505360Y1165300D02*
X520360D01*
X497860Y1172800D02*
Y1216800D01*
X484360Y1145300D02*
X520360D01*
X451860Y1196800D02*
Y1214800D01*
Y1196800D02*
X472299D01*
X479860Y1189239D01*
X520360Y1140300D02*
X535941D01*
X520360Y1130300D02*
X536188D01*
X520360Y1160300D02*
X536361D01*
X452110Y1135300D02*
X520360D01*
X493921Y1125300D02*
X520360D01*
X451860Y1124800D02*
X452110Y1125050D01*
X475421Y1106800D02*
X493921Y1125300D01*
X451860Y1106800D02*
X475421D01*
X451860Y1088800D02*
Y1106800D01*
X465860Y1070800D02*
X510360Y1115300D01*
X434360Y1087300D02*
X435860Y1088800D01*
X534779Y1227881D02*
Y1229320D01*
Y1227881D02*
X543360Y1219300D01*
X515860Y1213489D02*
Y1238795D01*
X547299Y1232550D02*
X553360Y1226489D01*
X531299Y1232800D02*
X534779Y1229320D01*
X451860Y1232800D02*
X481860D01*
X497860Y1216800D01*
X563360Y1194800D02*
X564299D01*
X563360Y1195739D02*
Y1208300D01*
Y1195739D02*
X564299Y1194800D01*
X563360Y1208300D02*
Y1238287D01*
X558360Y1208300D02*
Y1265800D01*
X557860Y1178278D02*
X564383Y1184800D01*
X557860Y1176800D02*
Y1178278D01*
X553360Y1208300D02*
Y1226489D01*
X452110Y1135300D02*
Y1142800D01*
Y1125050D02*
Y1135300D01*
X451860Y1161050D02*
X452110Y1160800D01*
X451860Y1161050D02*
Y1178800D01*
X452110Y1160800D02*
X468860D01*
X484360Y1145300D01*
X435860Y1052800D02*
X437860Y1050800D01*
Y1044800D02*
Y1050800D01*
X433860Y1034800D02*
X435860Y1032800D01*
X448380Y1036280D02*
X458460Y1026200D01*
X481860Y1026200D02*
X481860Y1026200D01*
X481860D02*
X481860Y1026200D01*
X481860Y1026200D02*
X519860D01*
X458460D02*
X481860D01*
X445860Y1042800D02*
X448380Y1040280D01*
Y1036280D02*
Y1040280D01*
X439860Y1042800D02*
X445860D01*
X437860Y1044800D02*
X439860Y1042800D01*
X451860Y1070800D02*
X465860D01*
X522701Y1308866D02*
X526884D01*
X519367Y1312200D02*
X522701Y1308866D01*
X515860Y1312200D02*
X519367D01*
X497860Y1337600D02*
X515860D01*
X497860Y1256795D02*
Y1337600D01*
X479860D02*
X497860D01*
X461860Y1268800D02*
X479860Y1286800D01*
X449110Y1348050D02*
X449860Y1348800D01*
X437510Y1315150D02*
X449110D01*
X423860Y1328800D02*
X437510Y1315150D01*
X423860Y1348800D02*
X433860D01*
X449110Y1327850D02*
Y1348050D01*
X423860Y1328800D02*
Y1348800D01*
X415860D02*
X423860D01*
X394610Y1315150D02*
X416410D01*
X389860Y1348800D02*
X399860D01*
X377860Y1336800D02*
X389860Y1348800D01*
X403860Y1250800D02*
X435860D01*
X393860Y1268800D02*
X435860D01*
X366121Y1241061D02*
X393860Y1268800D01*
X353221Y1241061D02*
X366121D01*
X351860Y1239700D02*
X353221Y1241061D01*
X549360Y1274800D02*
X558360Y1265800D01*
X526884Y1308866D02*
X533860Y1301889D01*
X549360Y1293300D02*
X550610Y1292050D01*
X533860Y1253361D02*
Y1301889D01*
X549360Y1274800D02*
Y1293300D01*
X470110Y1302450D02*
X479860Y1312200D01*
X449110Y1302450D02*
X470110D01*
X429110D02*
X449110D01*
X416410Y1315150D02*
X429110Y1302450D01*
X382210D02*
X394610D01*
X377860Y1306800D02*
X382210Y1302450D01*
X377860Y1306800D02*
Y1336800D01*
X547299Y1232550D02*
Y1250800D01*
X531299D02*
X533860Y1253361D01*
X531299Y1232800D02*
Y1250800D01*
X497860Y1256795D02*
X515860Y1238795D01*
X451860Y1268800D02*
X461860D01*
X451860Y1232800D02*
Y1250800D01*
X409860Y1232800D02*
X435860D01*
X397860Y1034800D02*
X433860D01*
X415031Y1052800D02*
X435860D01*
X409860Y1124800D02*
X435860D01*
X409985Y1087300D02*
X434360D01*
X409860Y1161050D02*
X435860D01*
X404504Y1178800D02*
X435860D01*
X389204Y1163500D02*
X404504Y1178800D01*
X397860Y1142800D02*
X436110D01*
X387860Y1106800D02*
X435860D01*
X393160Y1138100D02*
X397860Y1142800D01*
X389860Y1070800D02*
X435860D01*
X351860Y1163500D02*
X389204D01*
X381960Y1112700D02*
X387860Y1106800D01*
X351860Y1138100D02*
X393160D01*
X351860Y1112700D02*
X381960D01*
X352360Y1086800D02*
X373860D01*
X370760Y1061900D02*
X397860Y1034800D01*
X373860Y1086800D02*
X389860Y1070800D01*
X351860Y1061900D02*
X370760D01*
X351860Y1214300D02*
X367360D01*
X351860Y1188900D02*
X378960D01*
X351860Y1087300D02*
X352360Y1086800D01*
X367360Y1214300D02*
X403860Y1250800D01*
X409860Y1196800D02*
X435860D01*
X378960Y1188900D02*
X404860Y1214800D01*
X435860D01*
X420284Y995150D02*
X432984Y982450D01*
X404610Y995150D02*
X420284D01*
X398610D02*
X404610D01*
X398610Y995150D02*
X398610Y995150D01*
X394610Y995150D02*
X398610D01*
X255902Y1187755D02*
X276604Y1167053D01*
X255902Y1187755D02*
Y1195755D01*
X223860Y1180800D02*
X237860D01*
X280899Y1163500D02*
X284460D01*
X277346Y1167053D02*
X280899Y1163500D01*
X276604Y1167053D02*
X277346D01*
X255969Y1239700D02*
X284460D01*
X281960Y1216800D02*
X284460Y1214300D01*
X262560Y1210800D02*
X284460Y1188900D01*
X245860Y1216800D02*
X281960D01*
X226830Y1327830D02*
X250860Y1303800D01*
X212383Y1288800D02*
X214382Y1286800D01*
X194930Y1288800D02*
X212383D01*
X195082Y1342800D02*
X213860D01*
X194862Y1342580D02*
X195082Y1342800D01*
X194862Y1288732D02*
X194930Y1288800D01*
X250860Y1237803D02*
Y1303800D01*
X214382Y1286800D02*
X215860D01*
X216678Y1273982D02*
X240860Y1249800D01*
X255860Y1195797D02*
X255902Y1195755D01*
X250860Y1195797D02*
X250860Y1195797D01*
X250860Y1180904D02*
Y1195797D01*
X235988Y1166032D02*
X250860Y1180904D01*
X240860Y1183800D02*
Y1195797D01*
X237860Y1180800D02*
X240860Y1183800D01*
X235860Y1195797D02*
X235902Y1195839D01*
X255860Y1239591D02*
X255969Y1239700D01*
X255860Y1237803D02*
Y1239591D01*
X250860Y1237803D02*
X250860Y1237803D01*
X240860Y1237803D02*
X240860Y1237803D01*
X240860Y1237803D02*
Y1249800D01*
X241860Y1210800D02*
X262560D01*
X235860Y1226800D02*
X245860Y1216800D01*
X235902Y1204842D02*
X241860Y1210800D01*
X235902Y1195839D02*
Y1204842D01*
X235860Y1226800D02*
Y1237803D01*
X195032Y1234800D02*
X213860D01*
X194862Y1234630D02*
X195032Y1234800D01*
X189342Y1215318D02*
X223860Y1180800D01*
X207878Y1180782D02*
X213860Y1174800D01*
X194862Y1180782D02*
X207878D01*
X189342Y1215318D02*
Y1215900D01*
X604701Y1160300D02*
X631360D01*
X637590Y1082070D02*
Y1115088D01*
X645860Y1088300D02*
X653360Y1080800D01*
X612360Y1115300D02*
X631360D01*
X593360Y1079030D02*
Y1097300D01*
X594838Y1175300D02*
X631360D01*
X599360Y1170300D02*
X631360D01*
X623860Y1050800D02*
Y1087484D01*
X608360Y1111300D02*
X612360Y1115300D01*
X608360Y1097300D02*
Y1111300D01*
X583360Y1114323D02*
X588360Y1119323D01*
X583360Y1097300D02*
Y1114323D01*
X593360Y1079030D02*
X598590Y1073800D01*
X601860D01*
X603360Y1097300D02*
Y1120300D01*
X556421Y1082800D02*
X565812D01*
X568360Y1085349D02*
Y1097300D01*
X565812Y1082800D02*
X568360Y1085349D01*
X569860Y1120800D02*
X578360Y1112300D01*
Y1097300D02*
Y1112300D01*
X573360Y1070361D02*
Y1097300D01*
X572299Y1069300D02*
X573360Y1070361D01*
X572299Y1050800D02*
Y1069300D01*
X602946Y1043800D02*
X603768Y1044622D01*
X585525Y1043800D02*
X602946D01*
X577908Y1036183D02*
X585525Y1043800D01*
X560166Y1036183D02*
X577908D01*
X602946Y1043800D02*
X608176Y1038570D01*
Y1030694D02*
X615360Y1023510D01*
X653860Y1024800D02*
X692860D01*
X615360Y1023510D02*
Y1023510D01*
X639860Y1010800D02*
X653860Y1024800D01*
X608176Y1030694D02*
Y1038570D01*
X617682Y1044622D02*
X623860Y1050800D01*
X570299Y1048800D02*
X572299Y1050800D01*
X603768Y1044622D02*
X617682D01*
X840828Y1260800D02*
X844078Y1257550D01*
X839860Y1244800D02*
X840430Y1245370D01*
X783860Y1174800D02*
X843860D01*
X711860Y1024800D02*
X742932D01*
X653360Y1080800D02*
X767860D01*
X758932Y1024800D02*
X778132Y1005600D01*
X179612Y1035512D02*
X215468D01*
X179612Y1006012D02*
Y1035512D01*
Y1327830D02*
X226830D01*
X179612Y1273982D02*
X216678D01*
X179612Y1166032D02*
X235988D01*
X179612D02*
Y1195532D01*
Y1112692D02*
X207752D01*
X179612Y1089360D02*
X198420D01*
X179612Y1112692D02*
Y1142192D01*
Y1059860D02*
Y1089360D01*
Y1327830D02*
Y1357330D01*
Y1273982D02*
Y1303482D01*
Y1219880D02*
Y1249380D01*
X185362Y1219880D02*
X189342Y1215900D01*
X179612Y1219880D02*
X185362D01*
X411587Y1056243D02*
X415031Y1052800D01*
X410110Y1056243D02*
X411587D01*
X179612Y980648D02*
X206610D01*
X179612Y951148D02*
Y980648D01*
X821860Y1286462D02*
Y1302400D01*
X817160Y1307100D02*
X821860Y1302400D01*
X801510Y1307100D02*
X817160D01*
X801510Y1281700D02*
X817098D01*
X821860Y1286462D01*
X776860Y1307100D02*
X801510D01*
X774760Y1281700D02*
X801510D01*
X772260Y1294400D02*
X801510D01*
X839860Y1260800D02*
X840828D01*
X895510Y1281700D02*
X920960D01*
X895510Y1294400D02*
X919460D01*
X895510Y1345200D02*
X922410D01*
X895510Y1357900D02*
X922410D01*
X925110Y1360600D01*
X800610Y1358800D02*
X801510Y1357900D01*
X774772Y1345200D02*
X801510D01*
X771660Y1358800D02*
X800610D01*
X801510Y1357900D01*
X770860Y1359600D02*
X771860Y1360600D01*
X770860Y1359600D02*
X771660Y1358800D01*
X754372Y1340800D02*
X755860Y1342288D01*
X736860Y1340800D02*
X754372D01*
X726860Y1360600D02*
X755860D01*
X771860Y1342288D02*
X774772Y1345200D01*
X771860Y1278800D02*
X774760Y1281700D01*
X770860Y1313100D02*
X776860Y1307100D01*
X771860Y1294800D02*
X772260Y1294400D01*
X754910Y1294800D02*
X771860D01*
X752610Y1313100D02*
X770860D01*
X752610Y1297100D02*
X754910Y1294800D01*
X895510Y1319800D02*
X938360D01*
X840430Y1245370D02*
X923790D01*
X844078Y1257550D02*
X914360D01*
X920890Y1048830D02*
X935860Y1063800D01*
X923790Y1245370D02*
X933860Y1235300D01*
X969860Y1357550D02*
X982110Y1345300D01*
X948221Y1360939D02*
X976860Y1332300D01*
X970745Y1206800D02*
X980860D01*
X920890Y978530D02*
Y1048830D01*
X879860Y975600D02*
Y1038800D01*
X930360Y975300D02*
Y1033300D01*
X941860Y976500D02*
Y1024800D01*
X930360Y1033300D02*
X941860Y1044800D01*
X980860Y1168715D02*
X983123Y1170978D01*
X980860Y1168715D02*
X980860D01*
X971607Y1159462D02*
X980860Y1168715D01*
X952860Y1232800D02*
X975441D01*
X980860Y1206800D02*
X993808Y1219748D01*
X941449Y1360939D02*
X948221D01*
X941110Y1360600D02*
X941449Y1360939D01*
X969860Y1357550D02*
Y1357900D01*
X993808Y1235167D02*
Y1255183D01*
X991441Y1232800D02*
X993808Y1235167D01*
X983123Y1179178D02*
X984495Y1180550D01*
X983123Y1170978D02*
Y1179178D01*
X991441Y1232800D02*
X993808Y1230433D01*
Y1219748D02*
Y1230433D01*
X562860Y1160800D02*
X593360Y1191300D01*
X601860Y1186800D02*
X608360Y1180300D01*
X591860Y1162800D02*
X599360Y1170300D01*
X575860Y1184800D02*
X588360Y1197300D01*
X564383Y1184800D02*
X575860D01*
X575921Y1194800D02*
X578272Y1197151D01*
Y1208212D01*
X578360Y1208300D01*
X568360D02*
X573360D01*
X564299Y1194800D02*
X575921D01*
X588360Y1197300D02*
Y1208300D01*
X591860Y1176800D02*
X593338D01*
X594838Y1175300D01*
X588360Y1208300D02*
Y1235300D01*
X595201Y1150800D02*
X604701Y1160300D01*
X588360Y1119323D02*
Y1120800D01*
X607860Y1134800D02*
X612360Y1130300D01*
X607860Y1134800D02*
Y1142800D01*
X613360Y1208300D02*
Y1221191D01*
X608360Y1194800D02*
X612772Y1190388D01*
X608360Y1194800D02*
Y1208300D01*
X603360D02*
X603448Y1208388D01*
X604936Y1222679D02*
X611872D01*
X613360Y1221191D01*
X593360Y1228300D02*
X597860Y1232800D01*
X598360Y1224300D02*
X601860Y1227800D01*
X603448Y1221191D02*
X604936Y1222679D01*
X598360Y1208300D02*
Y1224300D01*
X603448Y1208388D02*
Y1221191D01*
X687860Y1220695D02*
Y1230800D01*
X647546Y1208300D02*
X647634Y1208388D01*
X613360Y1208300D02*
X647546D01*
X612772Y1190388D02*
X631272D01*
X631360Y1190300D01*
X658905Y1201571D02*
Y1213755D01*
X647634Y1190300D02*
X658905Y1201571D01*
X657860Y1214800D02*
X658905Y1213755D01*
X681965Y1214800D02*
X687860Y1220695D01*
X631360Y1190300D02*
X647634D01*
X585728Y1277192D02*
X604320D01*
X604428Y1277300D01*
X567360Y1309300D02*
X585360D01*
X604428Y1277300D02*
X607678Y1274050D01*
X604428Y1261300D02*
X606678Y1259050D01*
X585728Y1277192D02*
Y1292932D01*
X585360Y1293300D02*
X585728Y1292932D01*
X567360Y1293300D02*
X568860Y1291800D01*
X599678Y1256800D02*
X604178Y1261300D01*
X604428D01*
X599610Y1256800D02*
X599678D01*
X602380Y1241070D02*
X605671Y1244361D01*
X594130Y1241070D02*
X602380D01*
X605671Y1244361D02*
Y1244800D01*
X585360Y1262124D02*
X585728Y1262492D01*
X567880Y1261025D02*
X568860Y1262005D01*
X583880Y1261025D02*
X584860Y1262005D01*
X585728Y1262492D02*
Y1277192D01*
X567880Y1242807D02*
Y1261025D01*
X597860Y1232800D02*
X613860D01*
X573360Y1239739D02*
X583880Y1250259D01*
X563360Y1238287D02*
X567880Y1242807D01*
X687860Y1246800D02*
Y1266207D01*
X666610Y1246800D02*
X687860D01*
X623610Y1259050D02*
X625860Y1261300D01*
X682485Y1271582D02*
X687860Y1266207D01*
X682485Y1271582D02*
Y1274175D01*
X606678Y1259050D02*
X623610D01*
X607678Y1274050D02*
X622610D01*
X625860Y1277300D01*
X588360Y1235300D02*
X594130Y1241070D01*
X583360Y1208300D02*
Y1240550D01*
X573360Y1208300D02*
Y1239739D01*
X583360Y1240550D02*
X599610Y1256800D01*
X613860Y1232800D02*
X618831Y1237771D01*
X608360Y1180300D02*
X631360D01*
X618831Y1237771D02*
Y1241771D01*
X647610Y1227800D02*
X666610Y1246800D01*
X601860Y1227800D02*
X647610D01*
X618831Y1241771D02*
X621860Y1244800D01*
X568860Y1262005D02*
Y1291800D01*
X583880Y1250259D02*
Y1261025D01*
X549360Y1309300D02*
X567360D01*
X612360Y1130300D02*
X631360D01*
X613360Y1093690D02*
X613573Y1093478D01*
X617866D01*
X613360Y1093690D02*
Y1097300D01*
X617866Y1093478D02*
X623860Y1087484D01*
X739448Y1097555D02*
X740493Y1098600D01*
X739360Y1145300D02*
X759860Y1124800D01*
X656860Y1172800D02*
X763860D01*
X631360Y1185300D02*
X746882D01*
X631360Y1165300D02*
X649360D01*
X656860Y1172800D01*
X777860Y1204800D02*
X781340Y1201320D01*
X748382Y1186800D02*
X749860D01*
X746882Y1185300D02*
X748382Y1186800D01*
X781340Y1177320D02*
X783860Y1174800D01*
X767860Y1158800D02*
X783860Y1174800D01*
X781340Y1177320D02*
Y1201320D01*
X775860Y1154800D02*
X787860Y1166800D01*
X684110Y1104300D02*
X685610Y1105800D01*
X684110Y1126300D02*
X686610Y1123800D01*
X659860Y1135300D02*
X667610Y1127550D01*
X653860Y1094800D02*
X659860Y1088800D01*
X631360Y1150300D02*
X754360D01*
X631360Y1145300D02*
X739360D01*
X705360Y1107300D02*
X723860D01*
X703860Y1105800D02*
X705360Y1107300D01*
X685610Y1105800D02*
X703860D01*
X686610Y1123800D02*
X703860D01*
X723360D02*
X723860Y1123300D01*
X631360Y1140300D02*
X730360D01*
X667610Y1126300D02*
Y1127550D01*
Y1104300D02*
X684110D01*
X703860Y1123800D02*
X723360D01*
X631360Y1155300D02*
X672860D01*
X631360Y1115300D02*
X637378D01*
X631360Y1120300D02*
X642772D01*
X645860Y1117212D01*
X653860Y1094800D02*
Y1119800D01*
X645860Y1088300D02*
Y1117212D01*
X631360Y1125300D02*
X648360D01*
X653860Y1119800D01*
X637378Y1115300D02*
X637590Y1115088D01*
X631360Y1135300D02*
X659860D01*
X754360Y1150300D02*
X761860Y1142800D01*
X755660Y1088800D02*
X775860Y1109000D01*
X739448Y1094090D02*
Y1097555D01*
X730360Y1140300D02*
X761860Y1108800D01*
X672860Y1155300D02*
X677860Y1160300D01*
X775860Y1109000D02*
Y1154800D01*
X737751Y1092392D02*
X739448Y1094090D01*
X737751Y1088800D02*
Y1092392D01*
Y1088800D02*
X755660D01*
X709860Y1158800D02*
X767860D01*
X659860Y1088800D02*
X737751D01*
X891590Y1192271D02*
X913767D01*
X891590D02*
Y1197780D01*
X943060Y1188800D02*
X951265Y1197005D01*
X913767Y1192271D02*
X926860Y1179178D01*
X970745Y1206800D02*
X970975Y1206570D01*
X951265Y1205320D02*
X952745Y1206800D01*
X951265Y1197005D02*
Y1205320D01*
X943060Y1179378D02*
Y1188800D01*
X787860Y1166800D02*
X836960D01*
X803360Y1119900D02*
X831460Y1091800D01*
X790860Y1119900D02*
X803360D01*
X962015Y1176070D02*
X970975Y1185030D01*
X942860Y1179178D02*
X943060Y1179378D01*
X942860Y1179178D02*
X943060Y1178978D01*
X899860Y1237550D02*
X900905Y1236505D01*
Y1230955D02*
X943060Y1188800D01*
X891590Y1197780D02*
X892610Y1198800D01*
X970975Y1185030D02*
Y1206570D01*
X900905Y1230955D02*
Y1236505D01*
X877260Y1063800D02*
X891260D01*
X877260Y1077800D02*
Y1091800D01*
X891260D02*
X905260D01*
Y1077800D02*
Y1091800D01*
X891260Y1077800D02*
X905260D01*
X877260Y1063800D02*
Y1077800D01*
X843860Y1174800D02*
X854160Y1164500D01*
X836960Y1166800D02*
X841460Y1162300D01*
X854160Y1150300D02*
Y1164500D01*
X841460Y1150300D02*
Y1162300D01*
X962015Y1169605D02*
Y1176070D01*
X955760Y1163350D02*
X962015Y1169605D01*
X943060Y1150300D02*
Y1178978D01*
X955760Y1150300D02*
Y1163350D01*
X971607Y1153447D02*
Y1159462D01*
X968460Y1150300D02*
X971607Y1153447D01*
X930360Y1091800D02*
X968460Y1129900D01*
Y1150300D01*
X891260Y1063800D02*
X905260D01*
Y1091800D02*
X930360D01*
X877260D02*
X891260D01*
X831460D02*
X877260D01*
X933860Y1214800D02*
Y1235300D01*
X968745Y1206800D02*
X970745D01*
X879560Y975300D02*
X879860Y975600D01*
X840905Y975855D02*
Y996800D01*
X798360Y983300D02*
X803360Y978300D01*
X765860Y983300D02*
X798360D01*
X778132Y1005600D02*
X790860D01*
X838051Y1016609D02*
X866538Y988122D01*
X838051Y1016609D02*
Y1017080D01*
X903860Y976400D02*
X904960Y975300D01*
X866538Y975622D02*
Y988122D01*
X803360Y975300D02*
Y978300D01*
X866538Y975622D02*
X866860Y975300D01*
X840905Y975855D02*
X841460Y975300D01*
X639860Y982300D02*
Y1010800D01*
X636360Y978800D02*
X639860Y982300D01*
X713860Y974550D02*
Y978800D01*
X720110Y968300D02*
X743860D01*
X713860Y974550D02*
X720110Y968300D01*
X903860Y976400D02*
Y1014800D01*
X955760Y975300D02*
Y996800D01*
X917660Y975300D02*
X920890Y978530D01*
X941860Y976500D02*
X943060Y975300D01*
X750932Y983300D02*
Y1004800D01*
X743860Y984300D02*
X744860Y983300D01*
X750932D01*
X765860D01*
X982110Y1345300D02*
X991860D01*
X941110Y1342500D02*
X944590Y1339020D01*
Y1339020D02*
Y1339020D01*
Y1339020D02*
X957810Y1325800D01*
X976860Y1332300D02*
X991860D01*
X957810Y1325800D02*
X991860D01*
X941110Y1342500D02*
X941110D01*
X924810Y1342200D02*
X925110Y1342500D01*
X922410Y1345200D02*
X925110Y1342500D01*
X916860Y1258800D02*
X933860D01*
X913860D02*
X915610D01*
X914360Y1257550D02*
X915610Y1258800D01*
X957810Y1281700D02*
X969860Y1293750D01*
X922760Y1281700D02*
X957810D01*
X952860Y1257550D02*
Y1258800D01*
Y1257550D02*
X975441D01*
X991441D02*
X993808Y1255183D01*
X921860Y1280800D02*
X922760Y1281700D01*
X919460Y1294400D02*
X921860Y1296800D01*
X923360Y1298300D02*
X938860D01*
X921860Y1296800D02*
X923360Y1298300D01*
X920960Y1281700D02*
X921860Y1280800D01*
X991581Y1319021D02*
X991860Y1319300D01*
X983081Y1319021D02*
X991581D01*
X969860Y1305800D02*
X983081Y1319021D01*
X969860Y1293750D02*
Y1305800D01*
X959810Y1310800D02*
X959860D01*
X949810Y1300800D02*
X959810Y1310800D01*
X941360Y1300800D02*
X949810D01*
X938860Y1298300D02*
X941360Y1300800D01*
X938360Y1319800D02*
X941360Y1316800D01*
D16*
X762643Y930288D02*
D03*
X744643D02*
D03*
X961560Y930800D02*
D03*
X979560D02*
D03*
X966495Y1180550D02*
D03*
X984495D02*
D03*
D17*
X435860Y1124800D02*
D03*
X451860D02*
D03*
X435860Y1088800D02*
D03*
X451860D02*
D03*
X435860Y1052800D02*
D03*
X451860D02*
D03*
X435860Y1196800D02*
D03*
X451860D02*
D03*
X435860Y1232800D02*
D03*
X451860D02*
D03*
X436110Y1160800D02*
D03*
X452110D02*
D03*
X554299Y1048800D02*
D03*
X570299D02*
D03*
X722755Y932288D02*
D03*
X706755D02*
D03*
X941860Y932800D02*
D03*
X925860D02*
D03*
X568860Y1262005D02*
D03*
X584860D02*
D03*
X605860Y1244800D02*
D03*
X621860D02*
D03*
X531299Y1232800D02*
D03*
X547299D02*
D03*
D18*
X452110Y1142800D02*
D03*
X436110D02*
D03*
X451860Y1070800D02*
D03*
X435860D02*
D03*
X451860Y1106800D02*
D03*
X435860D02*
D03*
X451860Y1268800D02*
D03*
X435860D02*
D03*
X451860Y1214800D02*
D03*
X435860D02*
D03*
X451860Y1178800D02*
D03*
X435860D02*
D03*
X451860Y1250800D02*
D03*
X435860D02*
D03*
X415860Y1348800D02*
D03*
X399860D02*
D03*
X449860D02*
D03*
X433860D02*
D03*
X462370Y932800D02*
D03*
X478370D02*
D03*
X491860Y850800D02*
D03*
X507860D02*
D03*
X451860Y1032800D02*
D03*
X435860D02*
D03*
X405860Y946800D02*
D03*
X389860D02*
D03*
X593860Y836800D02*
D03*
X609860D02*
D03*
X783643Y884288D02*
D03*
X799643D02*
D03*
X1019050Y888800D02*
D03*
X1003050D02*
D03*
X742932Y1024800D02*
D03*
X758932D02*
D03*
X991441Y1232800D02*
D03*
X975441D02*
D03*
X968745Y1206800D02*
D03*
X952745D02*
D03*
X991441Y1257550D02*
D03*
X975441D02*
D03*
X755860Y1342288D02*
D03*
X771860D02*
D03*
X755860Y1360600D02*
D03*
X771860D02*
D03*
X925110D02*
D03*
X941110D02*
D03*
X925110Y1342500D02*
D03*
X941110D02*
D03*
X926860Y1179178D02*
D03*
X942860D02*
D03*
X761860Y1204800D02*
D03*
X777860D02*
D03*
X547299Y1250800D02*
D03*
X531299D02*
D03*
D19*
X255860Y1102752D02*
D03*
Y1237803D02*
D03*
D20*
X250860Y1102752D02*
D03*
X245860D02*
D03*
X240860D02*
D03*
X235860D02*
D03*
Y1060746D02*
D03*
X240860D02*
D03*
X245860D02*
D03*
X250860D02*
D03*
X255860D02*
D03*
X250860Y1237803D02*
D03*
X245860D02*
D03*
X240860D02*
D03*
X235860D02*
D03*
Y1195797D02*
D03*
X240860D02*
D03*
X245860D02*
D03*
X250860D02*
D03*
X255860D02*
D03*
D21*
X449110Y1302450D02*
D03*
Y1315150D02*
D03*
Y1327850D02*
D03*
X394610Y1315150D02*
D03*
Y1327850D02*
D03*
Y1302450D02*
D03*
Y1289750D02*
D03*
X449110D02*
D03*
X443120Y898932D02*
D03*
Y886232D02*
D03*
Y873532D02*
D03*
X497620Y886232D02*
D03*
Y873532D02*
D03*
Y898932D02*
D03*
Y911632D02*
D03*
X443120D02*
D03*
X449110Y982450D02*
D03*
Y995150D02*
D03*
Y1007850D02*
D03*
X394610Y995150D02*
D03*
Y1007850D02*
D03*
Y982450D02*
D03*
Y969750D02*
D03*
X449110D02*
D03*
D22*
X601860Y1073800D02*
D03*
Y1043800D02*
D03*
D23*
X522370Y886982D02*
D03*
Y902982D02*
D03*
X765860Y967300D02*
D03*
Y983300D02*
D03*
X743860Y968300D02*
D03*
Y984300D02*
D03*
X687860Y1246800D02*
D03*
Y1230800D02*
D03*
X585360Y1293300D02*
D03*
Y1309300D02*
D03*
X549360Y1293300D02*
D03*
Y1309300D02*
D03*
X567360D02*
D03*
Y1293300D02*
D03*
D24*
X452360Y851300D02*
D03*
X471360D02*
D03*
X799143Y860288D02*
D03*
X780143D02*
D03*
X1019360Y864800D02*
D03*
X1000360D02*
D03*
X692860Y1024800D02*
D03*
X711860D02*
D03*
X933860Y1232800D02*
D03*
X952860D02*
D03*
X933860Y1258800D02*
D03*
X952860D02*
D03*
D25*
X418370Y884982D02*
D03*
Y900982D02*
D03*
X723860Y1107300D02*
D03*
Y1123300D02*
D03*
X941360Y1300800D02*
D03*
Y1316800D02*
D03*
X752610Y1313100D02*
D03*
Y1297100D02*
D03*
X771860Y1278800D02*
D03*
Y1294800D02*
D03*
X921860Y1296800D02*
D03*
Y1280800D02*
D03*
X625860Y1277300D02*
D03*
Y1261300D02*
D03*
X604428Y1277300D02*
D03*
Y1261300D02*
D03*
D26*
X351860Y846800D02*
D03*
Y910800D02*
D03*
D27*
X572299Y1069300D02*
D03*
X554299D02*
D03*
D28*
X567860Y875982D02*
D03*
Y913982D02*
D03*
X659643Y899288D02*
D03*
Y861288D02*
D03*
X869860Y859800D02*
D03*
Y897800D02*
D03*
D29*
X194862Y965898D02*
D03*
Y1127442D02*
D03*
Y1180782D02*
D03*
Y1020762D02*
D03*
Y1074610D02*
D03*
Y1288732D02*
D03*
Y1234630D02*
D03*
Y1342580D02*
D03*
D30*
X179612Y951148D02*
D03*
Y980648D02*
D03*
Y1112692D02*
D03*
Y1142192D02*
D03*
Y1166032D02*
D03*
Y1195532D02*
D03*
Y1006012D02*
D03*
Y1035512D02*
D03*
Y1059860D02*
D03*
Y1089360D02*
D03*
Y1273982D02*
D03*
Y1303482D02*
D03*
Y1219880D02*
D03*
Y1249380D02*
D03*
Y1327830D02*
D03*
Y1357330D02*
D03*
D31*
X636360Y978800D02*
D03*
X713860D02*
D03*
X815110Y1198800D02*
D03*
X892610D02*
D03*
D32*
X754343Y900288D02*
D03*
X741643D02*
D03*
X728943D02*
D03*
X716243D02*
D03*
X703543D02*
D03*
X971010Y901340D02*
D03*
X945610D02*
D03*
X932910D02*
D03*
X920210D02*
D03*
X958310D02*
D03*
D33*
X728943Y840288D02*
D03*
X945610Y841340D02*
D03*
D34*
X684110Y1104300D02*
D03*
Y1126300D02*
D03*
X667610D02*
D03*
Y1104300D02*
D03*
D35*
X703860Y1105800D02*
D03*
Y1123800D02*
D03*
D36*
X895510Y1281700D02*
D03*
Y1294400D02*
D03*
Y1307100D02*
D03*
Y1319800D02*
D03*
Y1332500D02*
D03*
Y1345200D02*
D03*
Y1357900D02*
D03*
Y1370600D02*
D03*
X801510Y1281700D02*
D03*
Y1294400D02*
D03*
Y1307100D02*
D03*
Y1319800D02*
D03*
Y1332500D02*
D03*
Y1345200D02*
D03*
Y1357900D02*
D03*
Y1370600D02*
D03*
D37*
X520360Y1190300D02*
D03*
Y1185300D02*
D03*
Y1180300D02*
D03*
Y1175300D02*
D03*
Y1170300D02*
D03*
Y1165300D02*
D03*
Y1160300D02*
D03*
Y1155300D02*
D03*
Y1150300D02*
D03*
Y1145300D02*
D03*
Y1140300D02*
D03*
Y1135300D02*
D03*
Y1130300D02*
D03*
Y1125300D02*
D03*
Y1120300D02*
D03*
Y1115300D02*
D03*
X631360D02*
D03*
Y1120300D02*
D03*
Y1125300D02*
D03*
Y1130300D02*
D03*
Y1135300D02*
D03*
Y1140300D02*
D03*
Y1145300D02*
D03*
Y1150300D02*
D03*
Y1155300D02*
D03*
Y1160300D02*
D03*
Y1165300D02*
D03*
Y1170300D02*
D03*
Y1175300D02*
D03*
Y1180300D02*
D03*
Y1185300D02*
D03*
Y1190300D02*
D03*
D38*
X538360Y1097300D02*
D03*
X543360D02*
D03*
X548360D02*
D03*
X553360D02*
D03*
X558360D02*
D03*
X563360D02*
D03*
X568360D02*
D03*
X573360D02*
D03*
X578360D02*
D03*
X583360D02*
D03*
X588360D02*
D03*
X593360D02*
D03*
X598360D02*
D03*
X603360D02*
D03*
X608360D02*
D03*
X613360D02*
D03*
Y1208300D02*
D03*
X608360D02*
D03*
X603360D02*
D03*
X598360D02*
D03*
X593360D02*
D03*
X588360D02*
D03*
X583360D02*
D03*
X578360D02*
D03*
X573360D02*
D03*
X568360D02*
D03*
X563360D02*
D03*
X558360D02*
D03*
X553360D02*
D03*
X548360D02*
D03*
X543360D02*
D03*
X538360D02*
D03*
D39*
X968460Y1150300D02*
D03*
X955760D02*
D03*
X943060D02*
D03*
X930360D02*
D03*
X917660D02*
D03*
X904960D02*
D03*
X892260D02*
D03*
X879560D02*
D03*
X866860D02*
D03*
X854160D02*
D03*
X841460D02*
D03*
X828760D02*
D03*
X816060D02*
D03*
X803360D02*
D03*
Y975300D02*
D03*
X816060D02*
D03*
X828760D02*
D03*
X841460D02*
D03*
X854160D02*
D03*
X866860D02*
D03*
X879560D02*
D03*
X892260D02*
D03*
X904960D02*
D03*
X917660D02*
D03*
X930360D02*
D03*
X943060D02*
D03*
X955760D02*
D03*
X968460D02*
D03*
D40*
X790860Y1119900D02*
D03*
Y1107200D02*
D03*
Y1094500D02*
D03*
Y1081800D02*
D03*
Y1069100D02*
D03*
Y1056400D02*
D03*
Y1043700D02*
D03*
Y1031000D02*
D03*
Y1018300D02*
D03*
Y1005600D02*
D03*
D41*
X905260Y1091800D02*
D03*
Y1077800D02*
D03*
Y1063800D02*
D03*
X891260Y1091800D02*
D03*
Y1077800D02*
D03*
Y1063800D02*
D03*
X877260Y1091800D02*
D03*
Y1077800D02*
D03*
Y1063800D02*
D03*
D42*
X1018610Y1322300D02*
D03*
Y1342300D02*
D03*
D43*
X991860Y1338800D02*
D03*
Y1345300D02*
D03*
Y1325800D02*
D03*
Y1332300D02*
D03*
Y1319300D02*
D03*
D76*
X443120Y898932D02*
Y911632D01*
X452360Y848800D02*
Y851300D01*
X762643Y915338D02*
Y930288D01*
X754343Y907038D02*
X762643Y915338D01*
X754343Y900288D02*
Y907038D01*
X448610Y932800D02*
X462370D01*
X429860Y951550D02*
X448610Y932800D01*
X386780Y941614D02*
X387650Y942484D01*
Y944590D02*
X389860Y946800D01*
X387650Y942484D02*
Y944590D01*
X421301Y931359D02*
X422812D01*
X423371Y930800D01*
X405860Y946800D02*
X421301Y931359D01*
X706755Y922708D02*
Y932288D01*
X521620Y886232D02*
X522370Y886982D01*
X533370Y875982D01*
X567860D01*
X501600Y866821D02*
X510226Y858194D01*
X510070Y858038D02*
X510226Y858194D01*
X497620Y886232D02*
X521620D01*
X513721Y911632D02*
X522370Y902982D01*
X497620Y911632D02*
X513721D01*
X741643Y876288D02*
Y900288D01*
X659643Y899288D02*
X663373Y895558D01*
X667373D01*
X688131Y874800D01*
X659643Y861288D02*
X660333Y860598D01*
X688131Y874800D02*
X743131D01*
X660333Y860598D02*
X779833D01*
X766391Y884288D02*
X783643D01*
X706755Y922708D02*
X716243Y913220D01*
Y900288D02*
Y913220D01*
X756903Y874800D02*
X766391Y884288D01*
X741643Y876288D02*
X743131Y874800D01*
X756903D01*
X386780Y913880D02*
X389860Y910800D01*
X386780Y913880D02*
Y941614D01*
X869860Y859800D02*
X871360Y861300D01*
X798833Y883478D02*
X799643Y884288D01*
X869860Y895300D02*
Y897800D01*
X798833Y860598D02*
Y883478D01*
X779833Y860598D02*
X780143Y860288D01*
X798833Y860598D02*
X799143Y860288D01*
X458884Y898932D02*
X461860Y895956D01*
X478370Y893722D02*
X485860Y886232D01*
X497620D01*
X419620D02*
X443120D01*
X461860Y870800D02*
Y895956D01*
X497620Y873532D02*
Y886232D01*
X443120Y873532D02*
Y886232D01*
X453418Y862358D02*
X461860Y870800D01*
X501139Y873532D02*
X501600Y873072D01*
Y866821D02*
Y873072D01*
X497620Y873532D02*
X501139D01*
X478370Y893722D02*
Y932800D01*
X418370Y900982D02*
X441070D01*
X443120Y898932D01*
X458884D01*
X453418Y852358D02*
Y862358D01*
X452360Y851300D02*
X453418Y852358D01*
X471360Y850800D02*
Y851300D01*
Y850800D02*
X491860D01*
X507860D02*
X510070Y853010D01*
Y858038D01*
X1019050Y865110D02*
Y888800D01*
X871360Y861300D02*
X997130D01*
X1019050Y865110D02*
X1019360Y864800D01*
X981255Y880195D02*
X989860Y888800D01*
X958310Y880195D02*
X958310Y880195D01*
X958310D02*
X981255D01*
X997130Y861300D02*
X1000360Y864530D01*
X932910Y901340D02*
Y917750D01*
X971010Y901340D02*
Y908090D01*
X958310Y880195D02*
Y901340D01*
X1000360Y864530D02*
Y864800D01*
X887465Y880195D02*
X958310D01*
X925182Y925478D02*
X932910Y917750D01*
X945610Y901340D02*
Y930161D01*
X971010Y908090D02*
X979560Y916640D01*
X925182Y932122D02*
X925860Y932800D01*
X941860D02*
X943860Y930800D01*
X944971D02*
X961560D01*
X943860D02*
X944971D01*
X945610Y930161D01*
X979560Y916640D02*
Y930800D01*
X877590Y890070D02*
X887465Y880195D01*
X869860Y895300D02*
X875090Y890070D01*
X877590D01*
X925182Y925478D02*
Y932122D01*
X989860Y888800D02*
X1003050D01*
D77*
X253860Y866800D02*
X273860Y846800D01*
X253860Y886800D02*
Y898696D01*
X348176Y914483D02*
X351860Y910800D01*
X269648Y914483D02*
X348176D01*
X253860Y898696D02*
X269648Y914483D01*
X273860Y846800D02*
X351860D01*
Y911190D02*
X354550Y913880D01*
X351860Y910800D02*
Y911190D01*
X354550Y913880D02*
X386780D01*
X401678Y866800D02*
X436388D01*
X399678Y900982D02*
X418370D01*
X389860Y910800D02*
X399678Y900982D01*
X381678Y846800D02*
X401678Y866800D01*
X351860Y846800D02*
X381678D01*
X418370Y884982D02*
X419620Y886232D01*
X436388Y866800D02*
X443120Y873532D01*
D78*
X253860Y866800D02*
D03*
Y886800D02*
D03*
D79*
X519860Y1026200D02*
D03*
Y1000800D02*
D03*
X707885Y1274175D02*
D03*
X682485D02*
D03*
X515860Y1337600D02*
D03*
Y1312200D02*
D03*
X479860Y1286800D02*
D03*
Y1312200D02*
D03*
X481860Y975400D02*
D03*
Y1000800D02*
D03*
D80*
X519860Y975400D02*
D03*
X515860Y1286800D02*
D03*
X479860Y1337600D02*
D03*
X481860Y1026200D02*
D03*
D81*
X991610Y1357300D02*
D03*
Y1307300D02*
D03*
D82*
X657085Y1274175D02*
D03*
D83*
X284460Y1061900D02*
D03*
X309860D02*
D03*
X284460Y1087300D02*
D03*
X309860D02*
D03*
X284460Y1112700D02*
D03*
X309860D02*
D03*
X284460Y1138100D02*
D03*
X309860D02*
D03*
X284460Y1163500D02*
D03*
X309860D02*
D03*
X284460Y1188900D02*
D03*
X309860D02*
D03*
X284460Y1214300D02*
D03*
X309860D02*
D03*
X284460Y1239700D02*
D03*
X309860D02*
D03*
D84*
X351860Y1087300D02*
D03*
Y1138100D02*
D03*
Y1163500D02*
D03*
Y1239700D02*
D03*
Y1214300D02*
D03*
Y1188900D02*
D03*
Y1112700D02*
D03*
Y1061900D02*
D03*
D85*
X959860Y1310800D02*
D03*
X933860Y1214800D02*
D03*
X913860Y1258800D02*
D03*
X899860Y1237550D02*
D03*
X955760Y996800D02*
D03*
X838051Y1017080D02*
D03*
X767860Y1080800D02*
D03*
X763860Y1172800D02*
D03*
X840905Y996800D02*
D03*
X761860Y1142800D02*
D03*
X759860Y1124800D02*
D03*
X750932Y1004800D02*
D03*
X761860Y1108800D02*
D03*
X709860Y1158800D02*
D03*
X615360Y1023510D02*
D03*
X740493Y1098600D02*
D03*
X749860Y1186800D02*
D03*
X213860Y1074800D02*
D03*
X211860Y966800D02*
D03*
X429860Y951550D02*
D03*
X423371Y930800D02*
D03*
X591860Y1162800D02*
D03*
X562860Y1160800D02*
D03*
X557860Y1176800D02*
D03*
X409860Y1196800D02*
D03*
Y1232800D02*
D03*
Y1161050D02*
D03*
X591860Y1176800D02*
D03*
X657860Y1214800D02*
D03*
X736860Y1340800D02*
D03*
X588360Y1120800D02*
D03*
X409860Y1124800D02*
D03*
X969860Y1357900D02*
D03*
X839860Y1260800D02*
D03*
X726860Y1360600D02*
D03*
X839860Y1244800D02*
D03*
X941860Y1044800D02*
D03*
X935860Y1063800D02*
D03*
X903860Y1014800D02*
D03*
X879860Y1038800D02*
D03*
X941860Y1024800D02*
D03*
X569860Y1120800D02*
D03*
X211860Y1020800D02*
D03*
X215860Y1286800D02*
D03*
X213860Y1234800D02*
D03*
Y1174800D02*
D03*
Y1342800D02*
D03*
Y1134800D02*
D03*
X601860Y1186800D02*
D03*
X603360Y1120300D02*
D03*
X595201Y1150800D02*
D03*
X607860Y1142800D02*
D03*
X409985Y1087300D02*
D03*
X410110Y1056243D02*
D03*
D86*
X839360Y1301800D02*
D03*
X850360D02*
D03*
X861360D02*
D03*
X839360Y1312800D02*
D03*
X850360D02*
D03*
X861360D02*
D03*
X839360Y1323800D02*
D03*
X850360D02*
D03*
X861360D02*
D03*
M02*
