G04*
G04 #@! TF.GenerationSoftware,Altium Limited,Altium Designer,22.11.1 (43)*
G04*
G04 Layer_Color=3150156*
%FSLAX44Y44*%
%MOMM*%
G71*
G04*
G04 #@! TF.SameCoordinates,C851D113-A8C7-42F9-9C4B-FB2C255A0ABB*
G04*
G04*
G04 #@! TF.FilePolarity,Positive*
G04*
G01*
G75*
%ADD18R,0.9500X0.9500*%
%ADD23R,0.9500X0.9500*%
%ADD25R,1.0000X0.9500*%
%ADD35R,1.4500X1.1500*%
%ADD96R,0.8000X0.9000*%
%ADD97R,3.3500X3.3500*%
%ADD98R,0.9500X0.3000*%
%ADD99R,0.3000X0.9500*%
D18*
X691860Y1176800D02*
D03*
X707860D02*
D03*
X758932Y1036800D02*
D03*
X742932D02*
D03*
X691610Y1229845D02*
D03*
X707610D02*
D03*
X691860Y1212800D02*
D03*
X707860D02*
D03*
X691610Y1194800D02*
D03*
X707610D02*
D03*
X824865Y1232800D02*
D03*
X808865D02*
D03*
X867360Y1232800D02*
D03*
X883360D02*
D03*
D23*
X738815Y1056600D02*
D03*
Y1072600D02*
D03*
D25*
X603860Y1056800D02*
D03*
Y1072800D02*
D03*
X583860Y1056800D02*
D03*
Y1072800D02*
D03*
X531860Y1058050D02*
D03*
Y1074050D02*
D03*
X547860Y1058050D02*
D03*
Y1074050D02*
D03*
X668905Y1230800D02*
D03*
Y1246800D02*
D03*
X649860Y1230800D02*
D03*
Y1246800D02*
D03*
X833610Y1355550D02*
D03*
Y1371550D02*
D03*
X853860Y1355550D02*
D03*
Y1371550D02*
D03*
X781860Y1332800D02*
D03*
Y1348800D02*
D03*
D35*
X803860Y1331800D02*
D03*
Y1349800D02*
D03*
D96*
X884360Y1250300D02*
D03*
X865360D02*
D03*
X874860Y1270300D02*
D03*
X825360Y1248800D02*
D03*
X806360D02*
D03*
X815860Y1268800D02*
D03*
D97*
X850360Y1312800D02*
D03*
D98*
X826360Y1297800D02*
D03*
Y1302800D02*
D03*
Y1307800D02*
D03*
Y1312800D02*
D03*
Y1317800D02*
D03*
Y1322800D02*
D03*
Y1327800D02*
D03*
X874360D02*
D03*
Y1322800D02*
D03*
Y1317800D02*
D03*
Y1312800D02*
D03*
Y1307800D02*
D03*
Y1302800D02*
D03*
Y1297800D02*
D03*
D99*
X835360Y1336800D02*
D03*
X840360D02*
D03*
X845360D02*
D03*
X850360D02*
D03*
X855360D02*
D03*
X860360D02*
D03*
X865360D02*
D03*
Y1288800D02*
D03*
X860360D02*
D03*
X855360D02*
D03*
X850360D02*
D03*
X845360D02*
D03*
X840360D02*
D03*
X835360D02*
D03*
M02*
